<?xml version="1.0" encoding="utf-8" standalone="no"?>
<!DOCTYPE svg PUBLIC "-//W3C//DTD SVG 1.1//EN"
  "http://www.w3.org/Graphics/SVG/1.1/DTD/svg11.dtd">
<svg xmlns:xlink="http://www.w3.org/1999/xlink" width="907.2pt" height="513.36pt" viewBox="0 0 907.2 513.36" xmlns="http://www.w3.org/2000/svg" version="1.1">
 <metadata>
  <rdf:RDF xmlns:dc="http://purl.org/dc/elements/1.1/" xmlns:cc="http://creativecommons.org/ns#" xmlns:rdf="http://www.w3.org/1999/02/22-rdf-syntax-ns#">
   <cc:Work>
    <dc:type rdf:resource="http://purl.org/dc/dcmitype/StillImage"/>
    <dc:date>2025-08-26T09:03:35.154056</dc:date>
    <dc:format>image/svg+xml</dc:format>
    <dc:creator>
     <cc:Agent>
      <dc:title>Matplotlib v3.10.1, https://matplotlib.org/</dc:title>
     </cc:Agent>
    </dc:creator>
   </cc:Work>
  </rdf:RDF>
 </metadata>
 <defs>
  <style type="text/css">*{stroke-linejoin: round; stroke-linecap: butt}</style>
 </defs>
 <g id="figure_1">
  <g id="patch_1">
   <path d="M 0 513.36 
L 907.2 513.36 
L 907.2 -0 
L 0 -0 
z
" style="fill: #ffffff"/>
  </g>
  <g id="axes_1">
   <g id="patch_2">
    <path d="M 47.376 161.8776 
L 859.824 161.8776 
Q 877.68 161.8776 877.68 151.8984 
L 877.68 52.1064 
Q 877.68 42.1272 859.824 42.1272 
L 47.376 42.1272 
Q 29.52 42.1272 29.52 52.1064 
L 29.52 151.8984 
Q 29.52 161.8776 47.376 161.8776 
z
" clip-path="url(#p0587187471)" style="fill: #f8fafc; opacity: 0.35; stroke: #1e293b; stroke-width: 0.8; stroke-linejoin: miter"/>
   </g>
   <g id="patch_3">
    <path d="M 47.376 291.6072 
L 859.824 291.6072 
Q 877.68 291.6072 877.68 281.628 
L 877.68 171.8568 
Q 877.68 161.8776 859.824 161.8776 
L 47.376 161.8776 
Q 29.52 161.8776 29.52 171.8568 
L 29.52 281.628 
Q 29.52 291.6072 47.376 291.6072 
z
" clip-path="url(#p0587187471)" style="fill: #f8fafc; opacity: 0.35; stroke: #1e293b; stroke-width: 0.8; stroke-linejoin: miter"/>
   </g>
   <g id="patch_4">
    <path d="M 47.376 441.2952 
L 859.824 441.2952 
Q 877.68 441.2952 877.68 431.316 
L 877.68 311.5656 
Q 877.68 301.5864 859.824 301.5864 
L 47.376 301.5864 
Q 29.52 301.5864 29.52 311.5656 
L 29.52 431.316 
Q 29.52 441.2952 47.376 441.2952 
z
" clip-path="url(#p0587187471)" style="fill: #f8fafc; opacity: 0.35; stroke: #1e293b; stroke-width: 0.8; stroke-linejoin: miter"/>
   </g>
   <g id="patch_5">
    <path d="M 60.768 131.94 
L 123.264 131.94 
Q 141.12 131.94 141.12 121.9608 
L 141.12 87.0336 
Q 141.12 77.0544 123.264 77.0544 
L 60.768 77.0544 
Q 42.912 77.0544 42.912 87.0336 
L 42.912 121.9608 
Q 42.912 131.94 60.768 131.94 
z
" clip-path="url(#p0587187471)" style="fill: #ffffff; stroke: #1e293b; stroke-width: 1.2; stroke-linejoin: miter"/>
   </g>
   <g id="patch_6">
    <path d="M 60.768 166.8672 
L 123.264 166.8672 
Q 141.12 166.8672 141.12 156.888 
L 141.12 121.9608 
Q 141.12 111.9816 123.264 111.9816 
L 60.768 111.9816 
Q 42.912 111.9816 42.912 121.9608 
L 42.912 156.888 
Q 42.912 166.8672 60.768 166.8672 
z
" clip-path="url(#p0587187471)" style="fill: #ffffff; stroke: #1e293b; stroke-width: 1.2; stroke-linejoin: miter"/>
   </g>
   <g id="patch_7">
    <path d="M 60.768 97.0128 
L 123.264 97.0128 
Q 141.12 97.0128 141.12 87.0336 
L 141.12 52.1064 
Q 141.12 42.1272 123.264 42.1272 
L 60.768 42.1272 
Q 42.912 42.1272 42.912 52.1064 
L 42.912 87.0336 
Q 42.912 97.0128 60.768 97.0128 
z
" clip-path="url(#p0587187471)" style="fill: #ffffff; stroke: #1e293b; stroke-width: 1.2; stroke-linejoin: miter"/>
   </g>
   <g id="patch_8">
    <path d="M 201.8304 147.90672 
L 330.3936 147.90672 
Q 357.1776 147.90672 357.1776 132.93792 
L 357.1776 91.02528 
Q 357.1776 76.05648 330.3936 76.05648 
L 201.8304 76.05648 
Q 175.0464 76.05648 175.0464 91.02528 
L 175.0464 132.93792 
Q 175.0464 147.90672 201.8304 147.90672 
z
" clip-path="url(#p0587187471)" style="fill: #e0f7fa; stroke: #1e293b; stroke-width: 1.8; stroke-linejoin: miter"/>
   </g>
   <g id="patch_9">
    <path d="M 416.1024 137.92752 
L 562.5216 137.92752 
Q 589.3056 137.92752 589.3056 122.95872 
L 589.3056 91.02528 
Q 589.3056 76.05648 562.5216 76.05648 
L 416.1024 76.05648 
Q 389.3184 76.05648 389.3184 91.02528 
L 389.3184 122.95872 
Q 389.3184 137.92752 416.1024 137.92752 
z
" clip-path="url(#p0587187471)" style="fill: #ede7f6; stroke: #1e293b; stroke-width: 1.8; stroke-linejoin: miter"/>
   </g>
   <g id="patch_10">
    <path d="M 130.4064 277.63632 
L 598.2336 277.63632 
Q 625.0176 277.63632 625.0176 262.66752 
L 625.0176 190.81728 
Q 625.0176 175.84848 598.2336 175.84848 
L 130.4064 175.84848 
Q 103.6224 175.84848 103.6224 190.81728 
L 103.6224 262.66752 
Q 103.6224 277.63632 130.4064 277.63632 
z
" clip-path="url(#p0587187471)" style="fill: #f3e5f5; stroke: #1e293b; stroke-width: 1.4; stroke-linejoin: miter"/>
   </g>
   <g id="PathCollection_1">
    <defs>
     <path id="C0_0_9468ba0497" d="M 0 1.581139 
C 0.419323 1.581139 0.821528 1.41454 1.118034 1.118034 
C 1.41454 0.821528 1.581139 0.419323 1.581139 -0 
C 1.581139 -0.419323 1.41454 -0.821528 1.118034 -1.118034 
C 0.821528 -1.41454 0.419323 -1.581139 0 -1.581139 
C -0.419323 -1.581139 -0.821528 -1.41454 -1.118034 -1.118034 
C -1.41454 -0.821528 -1.581139 -0.419323 -1.581139 0 
C -1.581139 0.419323 -1.41454 0.821528 -1.118034 1.118034 
C -0.821528 1.41454 -0.419323 1.581139 0 1.581139 
z
"/>
    </defs>
    <g clip-path="url(#p0587187471)">
     <use xlink:href="#C0_0_9468ba0497" x="263.281313" y="223.475386" style="fill: #cfd8dc; fill-opacity: 0.9"/>
    </g>
    <g clip-path="url(#p0587187471)">
     <use xlink:href="#C0_0_9468ba0497" x="240.620294" y="240.689525" style="fill: #cfd8dc; fill-opacity: 0.9"/>
    </g>
    <g clip-path="url(#p0587187471)">
     <use xlink:href="#C0_0_9468ba0497" x="235.613217" y="229.397558" style="fill: #cfd8dc; fill-opacity: 0.9"/>
    </g>
    <g clip-path="url(#p0587187471)">
     <use xlink:href="#C0_0_9468ba0497" x="238.219926" y="231.435124" style="fill: #cfd8dc; fill-opacity: 0.9"/>
    </g>
    <g clip-path="url(#p0587187471)">
     <use xlink:href="#C0_0_9468ba0497" x="238.741187" y="230.314091" style="fill: #cfd8dc; fill-opacity: 0.9"/>
    </g>
    <g clip-path="url(#p0587187471)">
     <use xlink:href="#C0_0_9468ba0497" x="221.732723" y="220.121532" style="fill: #cfd8dc; fill-opacity: 0.9"/>
    </g>
    <g clip-path="url(#p0587187471)">
     <use xlink:href="#C0_0_9468ba0497" x="251.130611" y="213.947271" style="fill: #cfd8dc; fill-opacity: 0.9"/>
    </g>
    <g clip-path="url(#p0587187471)">
     <use xlink:href="#C0_0_9468ba0497" x="239.998051" y="229.771168" style="fill: #cfd8dc; fill-opacity: 0.9"/>
    </g>
    <g clip-path="url(#p0587187471)">
     <use xlink:href="#C0_0_9468ba0497" x="232.02454" y="238.316855" style="fill: #cfd8dc; fill-opacity: 0.9"/>
    </g>
    <g clip-path="url(#p0587187471)">
     <use xlink:href="#C0_0_9468ba0497" x="252.483865" y="234.983231" style="fill: #cfd8dc; fill-opacity: 0.9"/>
    </g>
    <g clip-path="url(#p0587187471)">
     <use xlink:href="#C0_0_9468ba0497" x="223.457857" y="228.281566" style="fill: #cfd8dc; fill-opacity: 0.9"/>
    </g>
    <g clip-path="url(#p0587187471)">
     <use xlink:href="#C0_0_9468ba0497" x="259.230499" y="224.970721" style="fill: #cfd8dc; fill-opacity: 0.9"/>
    </g>
    <g clip-path="url(#p0587187471)">
     <use xlink:href="#C0_0_9468ba0497" x="225.617469" y="232.078726" style="fill: #cfd8dc; fill-opacity: 0.9"/>
    </g>
    <g clip-path="url(#p0587187471)">
     <use xlink:href="#C0_0_9468ba0497" x="247.701281" y="227.943746" style="fill: #cfd8dc; fill-opacity: 0.9"/>
    </g>
    <g clip-path="url(#p0587187471)">
     <use xlink:href="#C0_0_9468ba0497" x="229.031744" y="228.464042" style="fill: #cfd8dc; fill-opacity: 0.9"/>
    </g>
    <g clip-path="url(#p0587187471)">
     <use xlink:href="#C0_0_9468ba0497" x="249.305794" y="211.952396" style="fill: #cfd8dc; fill-opacity: 0.9"/>
    </g>
    <g clip-path="url(#p0587187471)">
     <use xlink:href="#C0_0_9468ba0497" x="222.6667" y="231.430755" style="fill: #cfd8dc; fill-opacity: 0.9"/>
    </g>
    <g clip-path="url(#p0587187471)">
     <use xlink:href="#C0_0_9468ba0497" x="228.563964" y="244.847786" style="fill: #cfd8dc; fill-opacity: 0.9"/>
    </g>
    <g clip-path="url(#p0587187471)">
     <use xlink:href="#C0_0_9468ba0497" x="226.956577" y="234.405496" style="fill: #cfd8dc; fill-opacity: 0.9"/>
    </g>
    <g clip-path="url(#p0587187471)">
     <use xlink:href="#C0_0_9468ba0497" x="254.380313" y="227.729699" style="fill: #cfd8dc; fill-opacity: 0.9"/>
    </g>
    <g clip-path="url(#p0587187471)">
     <use xlink:href="#C0_0_9468ba0497" x="217.588961" y="221.902422" style="fill: #cfd8dc; fill-opacity: 0.9"/>
    </g>
    <g clip-path="url(#p0587187471)">
     <use xlink:href="#C0_0_9468ba0497" x="234.556822" y="239.788765" style="fill: #cfd8dc; fill-opacity: 0.9"/>
    </g>
    <g clip-path="url(#p0587187471)">
     <use xlink:href="#C0_0_9468ba0497" x="231.337668" y="231.147676" style="fill: #cfd8dc; fill-opacity: 0.9"/>
    </g>
    <g clip-path="url(#p0587187471)">
     <use xlink:href="#C0_0_9468ba0497" x="227.624968" y="226.52001" style="fill: #cfd8dc; fill-opacity: 0.9"/>
    </g>
    <g clip-path="url(#p0587187471)">
     <use xlink:href="#C0_0_9468ba0497" x="209.219332" y="228.746437" style="fill: #cfd8dc; fill-opacity: 0.9"/>
    </g>
    <g clip-path="url(#p0587187471)">
     <use xlink:href="#C0_0_9468ba0497" x="252.896553" y="220.35972" style="fill: #cfd8dc; fill-opacity: 0.9"/>
    </g>
    <g clip-path="url(#p0587187471)">
     <use xlink:href="#C0_0_9468ba0497" x="254.168847" y="218.364433" style="fill: #cfd8dc; fill-opacity: 0.9"/>
    </g>
    <g clip-path="url(#p0587187471)">
     <use xlink:href="#C0_0_9468ba0497" x="259.249178" y="235.11221" style="fill: #cfd8dc; fill-opacity: 0.9"/>
    </g>
    <g clip-path="url(#p0587187471)">
     <use xlink:href="#C0_0_9468ba0497" x="250.655401" y="240.670042" style="fill: #cfd8dc; fill-opacity: 0.9"/>
    </g>
    <g clip-path="url(#p0587187471)">
     <use xlink:href="#C0_0_9468ba0497" x="231.254163" y="241.071075" style="fill: #cfd8dc; fill-opacity: 0.9"/>
    </g>
    <g clip-path="url(#p0587187471)">
     <use xlink:href="#C0_0_9468ba0497" x="253.364791" y="216.760173" style="fill: #cfd8dc; fill-opacity: 0.9"/>
    </g>
    <g clip-path="url(#p0587187471)">
     <use xlink:href="#C0_0_9468ba0497" x="236.684223" y="213.460247" style="fill: #cfd8dc; fill-opacity: 0.9"/>
    </g>
    <g clip-path="url(#p0587187471)">
     <use xlink:href="#C0_0_9468ba0497" x="230.292049" y="225.615123" style="fill: #cfd8dc; fill-opacity: 0.9"/>
    </g>
    <g clip-path="url(#p0587187471)">
     <use xlink:href="#C0_0_9468ba0497" x="241.376249" y="234.707263" style="fill: #cfd8dc; fill-opacity: 0.9"/>
    </g>
    <g clip-path="url(#p0587187471)">
     <use xlink:href="#C0_0_9468ba0497" x="245.192981" y="212.23031" style="fill: #cfd8dc; fill-opacity: 0.9"/>
    </g>
    <g clip-path="url(#p0587187471)">
     <use xlink:href="#C0_0_9468ba0497" x="225.602126" y="220.011391" style="fill: #cfd8dc; fill-opacity: 0.9"/>
    </g>
    <g clip-path="url(#p0587187471)">
     <use xlink:href="#C0_0_9468ba0497" x="237.258844" y="213.497801" style="fill: #cfd8dc; fill-opacity: 0.9"/>
    </g>
    <g clip-path="url(#p0587187471)">
     <use xlink:href="#C0_0_9468ba0497" x="245.806894" y="221.681326" style="fill: #cfd8dc; fill-opacity: 0.9"/>
    </g>
    <g clip-path="url(#p0587187471)">
     <use xlink:href="#C0_0_9468ba0497" x="247.941243" y="224.878135" style="fill: #cfd8dc; fill-opacity: 0.9"/>
    </g>
    <g clip-path="url(#p0587187471)">
     <use xlink:href="#C0_0_9468ba0497" x="220.635935" y="216.326638" style="fill: #cfd8dc; fill-opacity: 0.9"/>
    </g>
    <g clip-path="url(#p0587187471)">
     <use xlink:href="#C0_0_9468ba0497" x="304.133334" y="234.34093" style="fill: #cfd8dc; fill-opacity: 0.9"/>
    </g>
    <g clip-path="url(#p0587187471)">
     <use xlink:href="#C0_0_9468ba0497" x="339.57296" y="245.083294" style="fill: #cfd8dc; fill-opacity: 0.9"/>
    </g>
    <g clip-path="url(#p0587187471)">
     <use xlink:href="#C0_0_9468ba0497" x="331.198249" y="225.067069" style="fill: #cfd8dc; fill-opacity: 0.9"/>
    </g>
    <g clip-path="url(#p0587187471)">
     <use xlink:href="#C0_0_9468ba0497" x="328.177591" y="245.58969" style="fill: #cfd8dc; fill-opacity: 0.9"/>
    </g>
    <g clip-path="url(#p0587187471)">
     <use xlink:href="#C0_0_9468ba0497" x="276.544587" y="246.419791" style="fill: #cfd8dc; fill-opacity: 0.9"/>
    </g>
    <g clip-path="url(#p0587187471)">
     <use xlink:href="#C0_0_9468ba0497" x="318.053698" y="241.875032" style="fill: #cfd8dc; fill-opacity: 0.9"/>
    </g>
    <g clip-path="url(#p0587187471)">
     <use xlink:href="#C0_0_9468ba0497" x="311.466308" y="232.956495" style="fill: #cfd8dc; fill-opacity: 0.9"/>
    </g>
    <g clip-path="url(#p0587187471)">
     <use xlink:href="#C0_0_9468ba0497" x="318.346006" y="237.813867" style="fill: #cfd8dc; fill-opacity: 0.9"/>
    </g>
    <g clip-path="url(#p0587187471)">
     <use xlink:href="#C0_0_9468ba0497" x="340.733502" y="245.258179" style="fill: #cfd8dc; fill-opacity: 0.9"/>
    </g>
    <g clip-path="url(#p0587187471)">
     <use xlink:href="#C0_0_9468ba0497" x="323.24752" y="215.184996" style="fill: #cfd8dc; fill-opacity: 0.9"/>
    </g>
    <g clip-path="url(#p0587187471)">
     <use xlink:href="#C0_0_9468ba0497" x="344.219246" y="249.630061" style="fill: #cfd8dc; fill-opacity: 0.9"/>
    </g>
    <g clip-path="url(#p0587187471)">
     <use xlink:href="#C0_0_9468ba0497" x="327.184146" y="231.088486" style="fill: #cfd8dc; fill-opacity: 0.9"/>
    </g>
    <g clip-path="url(#p0587187471)">
     <use xlink:href="#C0_0_9468ba0497" x="350.632859" y="235.234835" style="fill: #cfd8dc; fill-opacity: 0.9"/>
    </g>
    <g clip-path="url(#p0587187471)">
     <use xlink:href="#C0_0_9468ba0497" x="319.133925" y="244.011671" style="fill: #cfd8dc; fill-opacity: 0.9"/>
    </g>
    <g clip-path="url(#p0587187471)">
     <use xlink:href="#C0_0_9468ba0497" x="340.126227" y="233.597508" style="fill: #cfd8dc; fill-opacity: 0.9"/>
    </g>
    <g clip-path="url(#p0587187471)">
     <use xlink:href="#C0_0_9468ba0497" x="319.382735" y="238.608384" style="fill: #cfd8dc; fill-opacity: 0.9"/>
    </g>
    <g clip-path="url(#p0587187471)">
     <use xlink:href="#C0_0_9468ba0497" x="321.176368" y="229.490096" style="fill: #cfd8dc; fill-opacity: 0.9"/>
    </g>
    <g clip-path="url(#p0587187471)">
     <use xlink:href="#C0_0_9468ba0497" x="316.288062" y="231.867573" style="fill: #cfd8dc; fill-opacity: 0.9"/>
    </g>
    <g clip-path="url(#p0587187471)">
     <use xlink:href="#C0_0_9468ba0497" x="343.812722" y="231.869221" style="fill: #cfd8dc; fill-opacity: 0.9"/>
    </g>
    <g clip-path="url(#p0587187471)">
     <use xlink:href="#C0_0_9468ba0497" x="313.711813" y="223.299651" style="fill: #cfd8dc; fill-opacity: 0.9"/>
    </g>
    <g clip-path="url(#p0587187471)">
     <use xlink:href="#C0_0_9468ba0497" x="316.497834" y="232.466119" style="fill: #cfd8dc; fill-opacity: 0.9"/>
    </g>
    <g clip-path="url(#p0587187471)">
     <use xlink:href="#C0_0_9468ba0497" x="315.156454" y="254.126425" style="fill: #cfd8dc; fill-opacity: 0.9"/>
    </g>
    <g clip-path="url(#p0587187471)">
     <use xlink:href="#C0_0_9468ba0497" x="332.638997" y="233.857219" style="fill: #cfd8dc; fill-opacity: 0.9"/>
    </g>
    <g clip-path="url(#p0587187471)">
     <use xlink:href="#C0_0_9468ba0497" x="327.225214" y="233.966657" style="fill: #cfd8dc; fill-opacity: 0.9"/>
    </g>
    <g clip-path="url(#p0587187471)">
     <use xlink:href="#C0_0_9468ba0497" x="317.029975" y="244.080909" style="fill: #cfd8dc; fill-opacity: 0.9"/>
    </g>
    <g clip-path="url(#p0587187471)">
     <use xlink:href="#C0_0_9468ba0497" x="325.606583" y="217.668545" style="fill: #cfd8dc; fill-opacity: 0.9"/>
    </g>
    <g clip-path="url(#p0587187471)">
     <use xlink:href="#C0_0_9468ba0497" x="343.157328" y="241.910702" style="fill: #cfd8dc; fill-opacity: 0.9"/>
    </g>
    <g clip-path="url(#p0587187471)">
     <use xlink:href="#C0_0_9468ba0497" x="338.584383" y="241.495297" style="fill: #cfd8dc; fill-opacity: 0.9"/>
    </g>
    <g clip-path="url(#p0587187471)">
     <use xlink:href="#C0_0_9468ba0497" x="320.443151" y="228.146633" style="fill: #cfd8dc; fill-opacity: 0.9"/>
    </g>
    <g clip-path="url(#p0587187471)">
     <use xlink:href="#C0_0_9468ba0497" x="319.228874" y="253.443093" style="fill: #cfd8dc; fill-opacity: 0.9"/>
    </g>
    <g clip-path="url(#p0587187471)">
     <use xlink:href="#C0_0_9468ba0497" x="312.421631" y="235.839287" style="fill: #cfd8dc; fill-opacity: 0.9"/>
    </g>
    <g clip-path="url(#p0587187471)">
     <use xlink:href="#C0_0_9468ba0497" x="330.893708" y="224.33126" style="fill: #cfd8dc; fill-opacity: 0.9"/>
    </g>
    <g clip-path="url(#p0587187471)">
     <use xlink:href="#C0_0_9468ba0497" x="315.822643" y="229.422157" style="fill: #cfd8dc; fill-opacity: 0.9"/>
    </g>
    <g clip-path="url(#p0587187471)">
     <use xlink:href="#C0_0_9468ba0497" x="336.214062" y="238.208638" style="fill: #cfd8dc; fill-opacity: 0.9"/>
    </g>
    <g clip-path="url(#p0587187471)">
     <use xlink:href="#C0_0_9468ba0497" x="343.532829" y="231.810647" style="fill: #cfd8dc; fill-opacity: 0.9"/>
    </g>
    <g clip-path="url(#p0587187471)">
     <use xlink:href="#C0_0_9468ba0497" x="313.21062" y="226.027052" style="fill: #cfd8dc; fill-opacity: 0.9"/>
    </g>
    <g clip-path="url(#p0587187471)">
     <use xlink:href="#C0_0_9468ba0497" x="306.807575" y="236.126686" style="fill: #cfd8dc; fill-opacity: 0.9"/>
    </g>
    <g clip-path="url(#p0587187471)">
     <use xlink:href="#C0_0_9468ba0497" x="328.651643" y="232.484075" style="fill: #cfd8dc; fill-opacity: 0.9"/>
    </g>
    <g clip-path="url(#p0587187471)">
     <use xlink:href="#C0_0_9468ba0497" x="315.65466" y="237.070307" style="fill: #cfd8dc; fill-opacity: 0.9"/>
    </g>
    <g clip-path="url(#p0587187471)">
     <use xlink:href="#C0_0_9468ba0497" x="326.097089" y="226.771456" style="fill: #cfd8dc; fill-opacity: 0.9"/>
    </g>
    <g clip-path="url(#p0587187471)">
     <use xlink:href="#C0_0_9468ba0497" x="476.521333" y="216.109852" style="fill: #cfd8dc; fill-opacity: 0.9"/>
    </g>
    <g clip-path="url(#p0587187471)">
     <use xlink:href="#C0_0_9468ba0497" x="485.113761" y="228.42132" style="fill: #cfd8dc; fill-opacity: 0.9"/>
    </g>
    <g clip-path="url(#p0587187471)">
     <use xlink:href="#C0_0_9468ba0497" x="532.318198" y="217.402838" style="fill: #cfd8dc; fill-opacity: 0.9"/>
    </g>
    <g clip-path="url(#p0587187471)">
     <use xlink:href="#C0_0_9468ba0497" x="465.42081" y="204.111927" style="fill: #cfd8dc; fill-opacity: 0.9"/>
    </g>
    <g clip-path="url(#p0587187471)">
     <use xlink:href="#C0_0_9468ba0497" x="472.107263" y="213.432313" style="fill: #cfd8dc; fill-opacity: 0.9"/>
    </g>
    <g clip-path="url(#p0587187471)">
     <use xlink:href="#C0_0_9468ba0497" x="503.178057" y="222.58695" style="fill: #cfd8dc; fill-opacity: 0.9"/>
    </g>
    <g clip-path="url(#p0587187471)">
     <use xlink:href="#C0_0_9468ba0497" x="482.387424" y="221.615519" style="fill: #cfd8dc; fill-opacity: 0.9"/>
    </g>
    <g clip-path="url(#p0587187471)">
     <use xlink:href="#C0_0_9468ba0497" x="487.233117" y="231.334978" style="fill: #cfd8dc; fill-opacity: 0.9"/>
    </g>
    <g clip-path="url(#p0587187471)">
     <use xlink:href="#C0_0_9468ba0497" x="469.454825" y="218.027642" style="fill: #cfd8dc; fill-opacity: 0.9"/>
    </g>
    <g clip-path="url(#p0587187471)">
     <use xlink:href="#C0_0_9468ba0497" x="506.008376" y="211.089329" style="fill: #cfd8dc; fill-opacity: 0.9"/>
    </g>
    <g clip-path="url(#p0587187471)">
     <use xlink:href="#C0_0_9468ba0497" x="517.10443" y="210.529722" style="fill: #cfd8dc; fill-opacity: 0.9"/>
    </g>
    <g clip-path="url(#p0587187471)">
     <use xlink:href="#C0_0_9468ba0497" x="481.097953" y="217.866491" style="fill: #cfd8dc; fill-opacity: 0.9"/>
    </g>
    <g clip-path="url(#p0587187471)">
     <use xlink:href="#C0_0_9468ba0497" x="456.682763" y="225.39219" style="fill: #cfd8dc; fill-opacity: 0.9"/>
    </g>
    <g clip-path="url(#p0587187471)">
     <use xlink:href="#C0_0_9468ba0497" x="472.914418" y="214.332925" style="fill: #cfd8dc; fill-opacity: 0.9"/>
    </g>
    <g clip-path="url(#p0587187471)">
     <use xlink:href="#C0_0_9468ba0497" x="499.722884" y="221.796071" style="fill: #cfd8dc; fill-opacity: 0.9"/>
    </g>
    <g clip-path="url(#p0587187471)">
     <use xlink:href="#C0_0_9468ba0497" x="479.854544" y="230.653251" style="fill: #cfd8dc; fill-opacity: 0.9"/>
    </g>
    <g clip-path="url(#p0587187471)">
     <use xlink:href="#C0_0_9468ba0497" x="487.258813" y="214.534333" style="fill: #cfd8dc; fill-opacity: 0.9"/>
    </g>
    <g clip-path="url(#p0587187471)">
     <use xlink:href="#C0_0_9468ba0497" x="496.475878" y="223.792929" style="fill: #cfd8dc; fill-opacity: 0.9"/>
    </g>
    <g clip-path="url(#p0587187471)">
     <use xlink:href="#C0_0_9468ba0497" x="521.267825" y="206.030046" style="fill: #cfd8dc; fill-opacity: 0.9"/>
    </g>
    <g clip-path="url(#p0587187471)">
     <use xlink:href="#C0_0_9468ba0497" x="487.781494" y="221.498021" style="fill: #cfd8dc; fill-opacity: 0.9"/>
    </g>
    <g clip-path="url(#p0587187471)">
     <use xlink:href="#C0_0_9468ba0497" x="484.144005" y="215.405856" style="fill: #cfd8dc; fill-opacity: 0.9"/>
    </g>
    <g clip-path="url(#p0587187471)">
     <use xlink:href="#C0_0_9468ba0497" x="489.012645" y="212.420493" style="fill: #cfd8dc; fill-opacity: 0.9"/>
    </g>
    <g clip-path="url(#p0587187471)">
     <use xlink:href="#C0_0_9468ba0497" x="501.669578" y="204.49259" style="fill: #cfd8dc; fill-opacity: 0.9"/>
    </g>
    <g clip-path="url(#p0587187471)">
     <use xlink:href="#C0_0_9468ba0497" x="507.749004" y="217.753199" style="fill: #cfd8dc; fill-opacity: 0.9"/>
    </g>
    <g clip-path="url(#p0587187471)">
     <use xlink:href="#C0_0_9468ba0497" x="495.551339" y="220.240098" style="fill: #cfd8dc; fill-opacity: 0.9"/>
    </g>
    <g clip-path="url(#p0587187471)">
     <use xlink:href="#C0_0_9468ba0497" x="479.875135" y="199.601529" style="fill: #cfd8dc; fill-opacity: 0.9"/>
    </g>
    <g clip-path="url(#p0587187471)">
     <use xlink:href="#C0_0_9468ba0497" x="481.922088" y="198.883826" style="fill: #cfd8dc; fill-opacity: 0.9"/>
    </g>
    <g clip-path="url(#p0587187471)">
     <use xlink:href="#C0_0_9468ba0497" x="483.702862" y="214.492507" style="fill: #cfd8dc; fill-opacity: 0.9"/>
    </g>
    <g clip-path="url(#p0587187471)">
     <use xlink:href="#C0_0_9468ba0497" x="506.819247" y="216.54835" style="fill: #cfd8dc; fill-opacity: 0.9"/>
    </g>
    <g clip-path="url(#p0587187471)">
     <use xlink:href="#C0_0_9468ba0497" x="495.629681" y="218.931144" style="fill: #cfd8dc; fill-opacity: 0.9"/>
    </g>
    <g clip-path="url(#p0587187471)">
     <use xlink:href="#C0_0_9468ba0497" x="481.670125" y="218.25209" style="fill: #cfd8dc; fill-opacity: 0.9"/>
    </g>
    <g clip-path="url(#p0587187471)">
     <use xlink:href="#C0_0_9468ba0497" x="478.870781" y="202.111293" style="fill: #cfd8dc; fill-opacity: 0.9"/>
    </g>
    <g clip-path="url(#p0587187471)">
     <use xlink:href="#C0_0_9468ba0497" x="486.617016" y="201.291426" style="fill: #cfd8dc; fill-opacity: 0.9"/>
    </g>
    <g clip-path="url(#p0587187471)">
     <use xlink:href="#C0_0_9468ba0497" x="446.16123" y="216.597758" style="fill: #cfd8dc; fill-opacity: 0.9"/>
    </g>
    <g clip-path="url(#p0587187471)">
     <use xlink:href="#C0_0_9468ba0497" x="498.342788" y="219.402091" style="fill: #cfd8dc; fill-opacity: 0.9"/>
    </g>
    <g clip-path="url(#p0587187471)">
     <use xlink:href="#C0_0_9468ba0497" x="506.903513" y="211.017944" style="fill: #cfd8dc; fill-opacity: 0.9"/>
    </g>
    <g clip-path="url(#p0587187471)">
     <use xlink:href="#C0_0_9468ba0497" x="484.899066" y="212.85626" style="fill: #cfd8dc; fill-opacity: 0.9"/>
    </g>
    <g clip-path="url(#p0587187471)">
     <use xlink:href="#C0_0_9468ba0497" x="534.50001" y="214.499961" style="fill: #cfd8dc; fill-opacity: 0.9"/>
    </g>
    <g clip-path="url(#p0587187471)">
     <use xlink:href="#C0_0_9468ba0497" x="494.125122" y="220.714885" style="fill: #cfd8dc; fill-opacity: 0.9"/>
    </g>
    <g clip-path="url(#p0587187471)">
     <use xlink:href="#C0_0_9468ba0497" x="491.457351" y="228.342416" style="fill: #cfd8dc; fill-opacity: 0.9"/>
    </g>
   </g>
   <g id="patch_11">
    <path d="M 237.5424 417.34512 
L 401.8176 417.34512 
Q 428.6016 417.34512 428.6016 402.37632 
L 428.6016 360.46368 
Q 428.6016 345.49488 401.8176 345.49488 
L 237.5424 345.49488 
Q 210.7584 345.49488 210.7584 360.46368 
L 210.7584 402.37632 
Q 210.7584 417.34512 237.5424 417.34512 
z
" clip-path="url(#p0587187471)" style="fill: #e8f5e9; stroke: #1e293b; stroke-width: 1.8; stroke-linejoin: miter"/>
   </g>
   <g id="patch_12">
    <path d="M 525.024 376.4304 
L 685.728 376.4304 
Q 703.584 376.4304 703.584 366.4512 
L 703.584 326.5344 
Q 703.584 316.5552 685.728 316.5552 
L 525.024 316.5552 
Q 507.168 316.5552 507.168 326.5344 
L 507.168 366.4512 
Q 507.168 376.4304 525.024 376.4304 
z
" clip-path="url(#p0587187471)" style="fill: #c8e6c9; stroke: #2e7d32; stroke-width: 2; stroke-linejoin: miter"/>
   </g>
   <g id="patch_13">
    <path d="M 525.024 426.3264 
L 721.44 426.3264 
Q 739.296 426.3264 739.296 416.3472 
L 739.296 376.4304 
Q 739.296 366.4512 721.44 366.4512 
L 525.024 366.4512 
Q 507.168 366.4512 507.168 376.4304 
L 507.168 416.3472 
Q 507.168 426.3264 525.024 426.3264 
z
" clip-path="url(#p0587187471)" style="fill: #ffe082; stroke: #f9a825; stroke-width: 2; stroke-linejoin: miter"/>
   </g>
   <g id="patch_14">
    <path d="M 748.224 436.3056 
L 882.144 436.3056 
Q 900 436.3056 900 426.3264 
L 900 391.3992 
Q 900 381.42 882.144 381.42 
L 748.224 381.42 
Q 730.368 381.42 730.368 391.3992 
L 730.368 426.3264 
Q 730.368 436.3056 748.224 436.3056 
z
" clip-path="url(#p0587187471)" style="fill: #fff9c4; stroke: #f9a825; stroke-width: 2; stroke-linejoin: miter"/>
   </g>
   <g id="patch_15">
    <path d="M 815.184 408.8628 
Q 714.43998 224.9658 510.262482 256.206521 
" style="fill: none; stroke-dasharray: 10.36,4.48; stroke-dashoffset: 0; stroke: #7e57c2; stroke-width: 2.8; stroke-linecap: round"/>
    <path d="M 514.51896 257.578523 
L 510.262482 256.206521 
L 513.913971 253.624539 
z
" style="fill: #7e57c2; stroke-dasharray: 10.36,4.48; stroke-dashoffset: 0; stroke: #7e57c2; stroke-width: 2.8; stroke-linecap: round"/>
   </g>
   <g id="line2d_1">
    <path d="M 426.816 116.9712 
L 426.816 106.992 
" clip-path="url(#p0587187471)" style="fill: none; stroke: #1e293b; stroke-linecap: round"/>
   </g>
   <g id="line2d_2">
    <path d="M 435.744 116.9712 
L 435.744 106.992 
" clip-path="url(#p0587187471)" style="fill: none; stroke: #1e293b; stroke-linecap: round"/>
   </g>
   <g id="line2d_3">
    <path d="M 444.672 116.9712 
L 444.672 106.992 
" clip-path="url(#p0587187471)" style="fill: none; stroke: #1e293b; stroke-linecap: round"/>
   </g>
   <g id="line2d_4">
    <path d="M 453.6 116.9712 
L 453.6 106.992 
" clip-path="url(#p0587187471)" style="fill: none; stroke: #1e293b; stroke-linecap: round"/>
   </g>
   <g id="line2d_5">
    <path d="M 462.528 116.9712 
L 462.528 106.992 
" clip-path="url(#p0587187471)" style="fill: none; stroke: #1e293b; stroke-linecap: round"/>
   </g>
   <g id="line2d_6">
    <path d="M 471.456 116.9712 
L 471.456 106.992 
" clip-path="url(#p0587187471)" style="fill: none; stroke: #1e293b; stroke-linecap: round"/>
   </g>
   <g id="line2d_7">
    <path d="M 480.384 116.9712 
L 480.384 106.992 
" clip-path="url(#p0587187471)" style="fill: none; stroke: #1e293b; stroke-linecap: round"/>
   </g>
   <g id="line2d_8">
    <path d="M 489.312 116.9712 
L 489.312 106.992 
" clip-path="url(#p0587187471)" style="fill: none; stroke: #1e293b; stroke-linecap: round"/>
   </g>
   <g id="line2d_9">
    <path d="M 498.24 116.9712 
L 498.24 106.992 
" clip-path="url(#p0587187471)" style="fill: none; stroke: #1e293b; stroke-linecap: round"/>
   </g>
   <g id="line2d_10">
    <path d="M 507.168 116.9712 
L 507.168 106.992 
" clip-path="url(#p0587187471)" style="fill: none; stroke: #1e293b; stroke-linecap: round"/>
   </g>
   <g id="line2d_11">
    <path d="M 516.096 116.9712 
L 516.096 106.992 
" clip-path="url(#p0587187471)" style="fill: none; stroke: #1e293b; stroke-linecap: round"/>
   </g>
   <g id="line2d_12">
    <path d="M 525.024 116.9712 
L 525.024 106.992 
" clip-path="url(#p0587187471)" style="fill: none; stroke: #1e293b; stroke-linecap: round"/>
   </g>
   <g id="text_1">
    <!-- cat -->
    <g style="fill: #1e293b" transform="translate(85.512797 106.830169) scale(0.09 -0.09)">
     <defs>
      <path id="Arial-BoldMT-63" d="M 3353 2338 
L 2488 2181 
Q 2444 2441 2289 2572 
Q 2134 2703 1888 2703 
Q 1559 2703 1364 2476 
Q 1169 2250 1169 1719 
Q 1169 1128 1367 884 
Q 1566 641 1900 641 
Q 2150 641 2309 783 
Q 2469 925 2534 1272 
L 3397 1125 
Q 3263 531 2881 228 
Q 2500 -75 1859 -75 
Q 1131 -75 698 384 
Q 266 844 266 1656 
Q 266 2478 700 2936 
Q 1134 3394 1875 3394 
Q 2481 3394 2839 3133 
Q 3197 2872 3353 2338 
z
" transform="scale(0.015625)"/>
      <path id="Arial-BoldMT-61" d="M 1116 2306 
L 319 2450 
Q 453 2931 781 3162 
Q 1109 3394 1756 3394 
Q 2344 3394 2631 3255 
Q 2919 3116 3036 2902 
Q 3153 2688 3153 2116 
L 3144 1091 
Q 3144 653 3186 445 
Q 3228 238 3344 0 
L 2475 0 
Q 2441 88 2391 259 
Q 2369 338 2359 363 
Q 2134 144 1878 34 
Q 1622 -75 1331 -75 
Q 819 -75 523 203 
Q 228 481 228 906 
Q 228 1188 362 1408 
Q 497 1628 739 1745 
Q 981 1863 1438 1950 
Q 2053 2066 2291 2166 
L 2291 2253 
Q 2291 2506 2166 2614 
Q 2041 2722 1694 2722 
Q 1459 2722 1328 2630 
Q 1197 2538 1116 2306 
z
M 2291 1594 
Q 2122 1538 1756 1459 
Q 1391 1381 1278 1306 
Q 1106 1184 1106 997 
Q 1106 813 1243 678 
Q 1381 544 1594 544 
Q 1831 544 2047 700 
Q 2206 819 2256 991 
Q 2291 1103 2291 1419 
L 2291 1594 
z
" transform="scale(0.015625)"/>
      <path id="Arial-BoldMT-74" d="M 1981 3319 
L 1981 2619 
L 1381 2619 
L 1381 1281 
Q 1381 875 1398 808 
Q 1416 741 1477 697 
Q 1538 653 1625 653 
Q 1747 653 1978 738 
L 2053 56 
Q 1747 -75 1359 -75 
Q 1122 -75 931 4 
Q 741 84 652 211 
Q 563 338 528 553 
Q 500 706 500 1172 
L 500 2619 
L 97 2619 
L 97 3319 
L 500 3319 
L 500 3978 
L 1381 4491 
L 1381 3319 
L 1981 3319 
z
" transform="scale(0.015625)"/>
     </defs>
     <use xlink:href="#Arial-BoldMT-63"/>
     <use xlink:href="#Arial-BoldMT-61" transform="translate(55.615234 0)"/>
     <use xlink:href="#Arial-BoldMT-74" transform="translate(111.230469 0)"/>
    </g>
   </g>
   <g id="text_2">
    <!-- shoe -->
    <g style="fill: #1e293b" transform="translate(81.514125 141.757369) scale(0.09 -0.09)">
     <defs>
      <path id="Arial-BoldMT-73" d="M 150 947 
L 1031 1081 
Q 1088 825 1259 692 
Q 1431 559 1741 559 
Q 2081 559 2253 684 
Q 2369 772 2369 919 
Q 2369 1019 2306 1084 
Q 2241 1147 2013 1200 
Q 950 1434 666 1628 
Q 272 1897 272 2375 
Q 272 2806 612 3100 
Q 953 3394 1669 3394 
Q 2350 3394 2681 3172 
Q 3013 2950 3138 2516 
L 2309 2363 
Q 2256 2556 2107 2659 
Q 1959 2763 1684 2763 
Q 1338 2763 1188 2666 
Q 1088 2597 1088 2488 
Q 1088 2394 1175 2328 
Q 1294 2241 1995 2081 
Q 2697 1922 2975 1691 
Q 3250 1456 3250 1038 
Q 3250 581 2869 253 
Q 2488 -75 1741 -75 
Q 1063 -75 667 200 
Q 272 475 150 947 
z
" transform="scale(0.015625)"/>
      <path id="Arial-BoldMT-68" d="M 1334 4581 
L 1334 2897 
Q 1759 3394 2350 3394 
Q 2653 3394 2897 3281 
Q 3141 3169 3264 2994 
Q 3388 2819 3433 2606 
Q 3478 2394 3478 1947 
L 3478 0 
L 2600 0 
L 2600 1753 
Q 2600 2275 2550 2415 
Q 2500 2556 2373 2639 
Q 2247 2722 2056 2722 
Q 1838 2722 1666 2615 
Q 1494 2509 1414 2295 
Q 1334 2081 1334 1663 
L 1334 0 
L 456 0 
L 456 4581 
L 1334 4581 
z
" transform="scale(0.015625)"/>
      <path id="Arial-BoldMT-6f" d="M 256 1706 
Q 256 2144 472 2553 
Q 688 2963 1083 3178 
Q 1478 3394 1966 3394 
Q 2719 3394 3200 2905 
Q 3681 2416 3681 1669 
Q 3681 916 3195 420 
Q 2709 -75 1972 -75 
Q 1516 -75 1102 131 
Q 688 338 472 736 
Q 256 1134 256 1706 
z
M 1156 1659 
Q 1156 1166 1390 903 
Q 1625 641 1969 641 
Q 2313 641 2545 903 
Q 2778 1166 2778 1666 
Q 2778 2153 2545 2415 
Q 2313 2678 1969 2678 
Q 1625 2678 1390 2415 
Q 1156 2153 1156 1659 
z
" transform="scale(0.015625)"/>
      <path id="Arial-BoldMT-65" d="M 2381 1056 
L 3256 909 
Q 3088 428 2723 176 
Q 2359 -75 1813 -75 
Q 947 -75 531 491 
Q 203 944 203 1634 
Q 203 2459 634 2926 
Q 1066 3394 1725 3394 
Q 2466 3394 2894 2905 
Q 3322 2416 3303 1406 
L 1103 1406 
Q 1113 1016 1316 798 
Q 1519 581 1822 581 
Q 2028 581 2168 693 
Q 2309 806 2381 1056 
z
M 2431 1944 
Q 2422 2325 2234 2523 
Q 2047 2722 1778 2722 
Q 1491 2722 1303 2513 
Q 1116 2303 1119 1944 
L 2431 1944 
z
" transform="scale(0.015625)"/>
     </defs>
     <use xlink:href="#Arial-BoldMT-73"/>
     <use xlink:href="#Arial-BoldMT-68" transform="translate(55.615234 0)"/>
     <use xlink:href="#Arial-BoldMT-6f" transform="translate(116.699219 0)"/>
     <use xlink:href="#Arial-BoldMT-65" transform="translate(177.783203 0)"/>
    </g>
   </g>
   <g id="text_3">
    <!-- plane -->
    <g style="fill: #1e293b" transform="translate(80.263969 71.902969) scale(0.09 -0.09)">
     <defs>
      <path id="Arial-BoldMT-70" d="M 434 3319 
L 1253 3319 
L 1253 2831 
Q 1413 3081 1684 3237 
Q 1956 3394 2288 3394 
Q 2866 3394 3269 2941 
Q 3672 2488 3672 1678 
Q 3672 847 3265 386 
Q 2859 -75 2281 -75 
Q 2006 -75 1782 34 
Q 1559 144 1313 409 
L 1313 -1263 
L 434 -1263 
L 434 3319 
z
M 1303 1716 
Q 1303 1156 1525 889 
Q 1747 622 2066 622 
Q 2372 622 2575 867 
Q 2778 1113 2778 1672 
Q 2778 2194 2568 2447 
Q 2359 2700 2050 2700 
Q 1728 2700 1515 2451 
Q 1303 2203 1303 1716 
z
" transform="scale(0.015625)"/>
      <path id="Arial-BoldMT-6c" d="M 459 0 
L 459 4581 
L 1338 4581 
L 1338 0 
L 459 0 
z
" transform="scale(0.015625)"/>
      <path id="Arial-BoldMT-6e" d="M 3478 0 
L 2600 0 
L 2600 1694 
Q 2600 2231 2544 2389 
Q 2488 2547 2361 2634 
Q 2234 2722 2056 2722 
Q 1828 2722 1647 2597 
Q 1466 2472 1398 2265 
Q 1331 2059 1331 1503 
L 1331 0 
L 453 0 
L 453 3319 
L 1269 3319 
L 1269 2831 
Q 1703 3394 2363 3394 
Q 2653 3394 2893 3289 
Q 3134 3184 3257 3021 
Q 3381 2859 3429 2653 
Q 3478 2447 3478 2063 
L 3478 0 
z
" transform="scale(0.015625)"/>
     </defs>
     <use xlink:href="#Arial-BoldMT-70"/>
     <use xlink:href="#Arial-BoldMT-6c" transform="translate(61.083984 0)"/>
     <use xlink:href="#Arial-BoldMT-61" transform="translate(88.867188 0)"/>
     <use xlink:href="#Arial-BoldMT-6e" transform="translate(144.482422 0)"/>
     <use xlink:href="#Arial-BoldMT-65" transform="translate(205.566406 0)"/>
    </g>
   </g>
   <g id="text_4">
    <!-- Frozen VLM -->
    <g style="fill: #1e293b" transform="translate(234.947625 103.061287) scale(0.11 -0.11)">
     <defs>
      <path id="Arial-BoldMT-46" d="M 472 0 
L 472 4581 
L 3613 4581 
L 3613 3806 
L 1397 3806 
L 1397 2722 
L 3309 2722 
L 3309 1947 
L 1397 1947 
L 1397 0 
L 472 0 
z
" transform="scale(0.015625)"/>
      <path id="Arial-BoldMT-72" d="M 1300 0 
L 422 0 
L 422 3319 
L 1238 3319 
L 1238 2847 
Q 1447 3181 1614 3287 
Q 1781 3394 1994 3394 
Q 2294 3394 2572 3228 
L 2300 2463 
Q 2078 2606 1888 2606 
Q 1703 2606 1575 2504 
Q 1447 2403 1373 2137 
Q 1300 1872 1300 1025 
L 1300 0 
z
" transform="scale(0.015625)"/>
      <path id="Arial-BoldMT-7a" d="M 106 0 
L 106 684 
L 1350 2113 
Q 1656 2463 1803 2609 
Q 1650 2600 1400 2597 
L 228 2591 
L 228 3319 
L 2972 3319 
L 2972 2697 
L 1703 1234 
L 1256 750 
Q 1622 772 1709 772 
L 3069 772 
L 3069 0 
L 106 0 
z
" transform="scale(0.015625)"/>
      <path id="Arial-BoldMT-20" transform="scale(0.015625)"/>
      <path id="Arial-BoldMT-56" d="M 1634 0 
L -3 4581 
L 1000 4581 
L 2159 1191 
L 3281 4581 
L 4263 4581 
L 2622 0 
L 1634 0 
z
" transform="scale(0.015625)"/>
      <path id="Arial-BoldMT-4c" d="M 491 0 
L 491 4544 
L 1416 4544 
L 1416 772 
L 3716 772 
L 3716 0 
L 491 0 
z
" transform="scale(0.015625)"/>
      <path id="Arial-BoldMT-4d" d="M 453 0 
L 453 4581 
L 1838 4581 
L 2669 1456 
L 3491 4581 
L 4878 4581 
L 4878 0 
L 4019 0 
L 4019 3606 
L 3109 0 
L 2219 0 
L 1313 3606 
L 1313 0 
L 453 0 
z
" transform="scale(0.015625)"/>
     </defs>
     <use xlink:href="#Arial-BoldMT-46"/>
     <use xlink:href="#Arial-BoldMT-72" transform="translate(61.083984 0)"/>
     <use xlink:href="#Arial-BoldMT-6f" transform="translate(100 0)"/>
     <use xlink:href="#Arial-BoldMT-7a" transform="translate(161.083984 0)"/>
     <use xlink:href="#Arial-BoldMT-65" transform="translate(211.083984 0)"/>
     <use xlink:href="#Arial-BoldMT-6e" transform="translate(266.699219 0)"/>
     <use xlink:href="#Arial-BoldMT-20" transform="translate(327.783203 0)"/>
     <use xlink:href="#Arial-BoldMT-56" transform="translate(355.566406 0)"/>
     <use xlink:href="#Arial-BoldMT-4c" transform="translate(422.265625 0)"/>
     <use xlink:href="#Arial-BoldMT-4d" transform="translate(483.349609 0)"/>
    </g>
    <!-- (CLIP) -->
    <g style="fill: #1e293b" transform="translate(249.921375 114.841256) scale(0.11 -0.11)">
     <defs>
      <path id="Arial-BoldMT-28" d="M 1916 -1347 
L 1313 -1347 
Q 834 -625 584 153 
Q 334 931 334 1659 
Q 334 2563 644 3369 
Q 913 4069 1325 4659 
L 1925 4659 
Q 1497 3713 1336 3048 
Q 1175 2384 1175 1641 
Q 1175 1128 1270 590 
Q 1366 53 1531 -431 
Q 1641 -750 1916 -1347 
z
" transform="scale(0.015625)"/>
      <path id="Arial-BoldMT-43" d="M 3397 1684 
L 4294 1400 
Q 4088 650 3608 286 
Q 3128 -78 2391 -78 
Q 1478 -78 890 545 
Q 303 1169 303 2250 
Q 303 3394 893 4026 
Q 1484 4659 2447 4659 
Q 3288 4659 3813 4163 
Q 4125 3869 4281 3319 
L 3366 3100 
Q 3284 3456 3026 3662 
Q 2769 3869 2400 3869 
Q 1891 3869 1573 3503 
Q 1256 3138 1256 2319 
Q 1256 1450 1568 1081 
Q 1881 713 2381 713 
Q 2750 713 3015 947 
Q 3281 1181 3397 1684 
z
" transform="scale(0.015625)"/>
      <path id="Arial-BoldMT-49" d="M 438 0 
L 438 4581 
L 1363 4581 
L 1363 0 
L 438 0 
z
" transform="scale(0.015625)"/>
      <path id="Arial-BoldMT-50" d="M 466 0 
L 466 4581 
L 1950 4581 
Q 2794 4581 3050 4513 
Q 3444 4409 3709 4064 
Q 3975 3719 3975 3172 
Q 3975 2750 3822 2462 
Q 3669 2175 3433 2011 
Q 3197 1847 2953 1794 
Q 2622 1728 1994 1728 
L 1391 1728 
L 1391 0 
L 466 0 
z
M 1391 3806 
L 1391 2506 
L 1897 2506 
Q 2444 2506 2628 2578 
Q 2813 2650 2917 2803 
Q 3022 2956 3022 3159 
Q 3022 3409 2875 3571 
Q 2728 3734 2503 3775 
Q 2338 3806 1838 3806 
L 1391 3806 
z
" transform="scale(0.015625)"/>
      <path id="Arial-BoldMT-29" d="M 216 -1347 
Q 475 -791 581 -494 
Q 688 -197 778 190 
Q 869 578 912 926 
Q 956 1275 956 1641 
Q 956 2384 797 3048 
Q 638 3713 209 4659 
L 806 4659 
Q 1278 3988 1539 3234 
Q 1800 2481 1800 1706 
Q 1800 1053 1594 306 
Q 1359 -531 822 -1347 
L 216 -1347 
z
" transform="scale(0.015625)"/>
     </defs>
     <use xlink:href="#Arial-BoldMT-28"/>
     <use xlink:href="#Arial-BoldMT-43" transform="translate(33.300781 0)"/>
     <use xlink:href="#Arial-BoldMT-4c" transform="translate(105.517578 0)"/>
     <use xlink:href="#Arial-BoldMT-49" transform="translate(166.601562 0)"/>
     <use xlink:href="#Arial-BoldMT-50" transform="translate(194.384766 0)"/>
     <use xlink:href="#Arial-BoldMT-29" transform="translate(261.083984 0)"/>
    </g>
    <!-- Frozen θ -->
    <g style="fill: #1e293b" transform="translate(243.584344 126.604725) scale(0.11 -0.11)">
     <defs>
      <path id="Arial-BoldMT-3b8" d="M 1731 4659 
Q 3219 4659 3219 2291 
Q 3219 -75 1731 -75 
Q 1041 -75 642 461 
Q 244 997 244 2303 
Q 244 4659 1731 4659 
z
M 2313 2656 
Q 2288 3438 2142 3691 
Q 1997 3944 1731 3944 
Q 1469 3944 1322 3689 
Q 1175 3434 1153 2656 
L 2313 2656 
z
M 2313 1928 
L 1153 1928 
Q 1175 1147 1320 894 
Q 1466 641 1731 641 
Q 1997 641 2142 895 
Q 2288 1150 2313 1928 
z
" transform="scale(0.015625)"/>
     </defs>
     <use xlink:href="#Arial-BoldMT-46"/>
     <use xlink:href="#Arial-BoldMT-72" transform="translate(61.083984 0)"/>
     <use xlink:href="#Arial-BoldMT-6f" transform="translate(100 0)"/>
     <use xlink:href="#Arial-BoldMT-7a" transform="translate(161.083984 0)"/>
     <use xlink:href="#Arial-BoldMT-65" transform="translate(211.083984 0)"/>
     <use xlink:href="#Arial-BoldMT-6e" transform="translate(266.699219 0)"/>
     <use xlink:href="#Arial-BoldMT-20" transform="translate(327.783203 0)"/>
     <use xlink:href="#Arial-BoldMT-3b8" transform="translate(355.566406 0)"/>
    </g>
   </g>
   <g id="patch_16">
    <path d="M 125.258959 107.151275 
Q 154.514299 109.486984 180.649074 111.57355 
" style="fill: none; stroke: #1e293b; stroke-width: 2.8; stroke-linecap: round"/>
    <path d="M 176.055305 108.799153 
L 180.649074 111.57355 
L 175.673295 113.583927 
z
" style="fill: #1e293b; stroke: #1e293b; stroke-width: 2.8; stroke-linecap: round"/>
   </g>
   <g id="patch_17">
    <path d="M 125.121639 136.188043 
Q 154.513701 124.454921 180.998363 113.882415 
" style="fill: none; stroke: #1e293b; stroke-width: 2.8; stroke-linecap: round"/>
    <path d="M 175.650649 113.433027 
L 180.998363 113.882415 
L 177.430224 117.890954 
z
" style="fill: #1e293b; stroke: #1e293b; stroke-width: 2.8; stroke-linecap: round"/>
   </g>
   <g id="patch_18">
    <path d="M 124.885143 68.240069 
Q 154.510733 89.52749 181.594071 108.988178 
" style="fill: none; stroke: #1e293b; stroke-width: 2.8; stroke-linecap: round"/>
    <path d="M 179.096492 104.23822 
L 181.594071 108.988178 
L 176.295557 108.136266 
z
" style="fill: #1e293b; stroke: #1e293b; stroke-width: 2.8; stroke-linecap: round"/>
   </g>
   <g id="text_5">
    <!-- Embedding (d-dim) -->
    <g style="fill: #1e293b" transform="translate(439.210438 109.83825) scale(0.11 -0.11)">
     <defs>
      <path id="Arial-BoldMT-45" d="M 466 0 
L 466 4581 
L 3863 4581 
L 3863 3806 
L 1391 3806 
L 1391 2791 
L 3691 2791 
L 3691 2019 
L 1391 2019 
L 1391 772 
L 3950 772 
L 3950 0 
L 466 0 
z
" transform="scale(0.015625)"/>
      <path id="Arial-BoldMT-6d" d="M 394 3319 
L 1203 3319 
L 1203 2866 
Q 1638 3394 2238 3394 
Q 2556 3394 2790 3262 
Q 3025 3131 3175 2866 
Q 3394 3131 3647 3262 
Q 3900 3394 4188 3394 
Q 4553 3394 4806 3245 
Q 5059 3097 5184 2809 
Q 5275 2597 5275 2122 
L 5275 0 
L 4397 0 
L 4397 1897 
Q 4397 2391 4306 2534 
Q 4184 2722 3931 2722 
Q 3747 2722 3584 2609 
Q 3422 2497 3350 2280 
Q 3278 2063 3278 1594 
L 3278 0 
L 2400 0 
L 2400 1819 
Q 2400 2303 2353 2443 
Q 2306 2584 2207 2653 
Q 2109 2722 1941 2722 
Q 1738 2722 1575 2612 
Q 1413 2503 1342 2297 
Q 1272 2091 1272 1613 
L 1272 0 
L 394 0 
L 394 3319 
z
" transform="scale(0.015625)"/>
      <path id="Arial-BoldMT-62" d="M 422 0 
L 422 4581 
L 1300 4581 
L 1300 2931 
Q 1706 3394 2263 3394 
Q 2869 3394 3266 2955 
Q 3663 2516 3663 1694 
Q 3663 844 3258 384 
Q 2853 -75 2275 -75 
Q 1991 -75 1714 67 
Q 1438 209 1238 488 
L 1238 0 
L 422 0 
z
M 1294 1731 
Q 1294 1216 1456 969 
Q 1684 619 2063 619 
Q 2353 619 2558 867 
Q 2763 1116 2763 1650 
Q 2763 2219 2556 2470 
Q 2350 2722 2028 2722 
Q 1713 2722 1503 2476 
Q 1294 2231 1294 1731 
z
" transform="scale(0.015625)"/>
      <path id="Arial-BoldMT-64" d="M 3503 0 
L 2688 0 
L 2688 488 
Q 2484 203 2207 64 
Q 1931 -75 1650 -75 
Q 1078 -75 670 386 
Q 263 847 263 1672 
Q 263 2516 659 2955 
Q 1056 3394 1663 3394 
Q 2219 3394 2625 2931 
L 2625 4581 
L 3503 4581 
L 3503 0 
z
M 1159 1731 
Q 1159 1200 1306 963 
Q 1519 619 1900 619 
Q 2203 619 2415 876 
Q 2628 1134 2628 1647 
Q 2628 2219 2422 2470 
Q 2216 2722 1894 2722 
Q 1581 2722 1370 2473 
Q 1159 2225 1159 1731 
z
" transform="scale(0.015625)"/>
      <path id="Arial-BoldMT-69" d="M 459 3769 
L 459 4581 
L 1338 4581 
L 1338 3769 
L 459 3769 
z
M 459 0 
L 459 3319 
L 1338 3319 
L 1338 0 
L 459 0 
z
" transform="scale(0.015625)"/>
      <path id="Arial-BoldMT-67" d="M 378 -219 
L 1381 -341 
Q 1406 -516 1497 -581 
Q 1622 -675 1891 -675 
Q 2234 -675 2406 -572 
Q 2522 -503 2581 -350 
Q 2622 -241 2622 53 
L 2622 538 
Q 2228 0 1628 0 
Q 959 0 569 566 
Q 263 1013 263 1678 
Q 263 2513 664 2953 
Q 1066 3394 1663 3394 
Q 2278 3394 2678 2853 
L 2678 3319 
L 3500 3319 
L 3500 341 
Q 3500 -247 3403 -537 
Q 3306 -828 3131 -993 
Q 2956 -1159 2664 -1253 
Q 2372 -1347 1925 -1347 
Q 1081 -1347 728 -1058 
Q 375 -769 375 -325 
Q 375 -281 378 -219 
z
M 1163 1728 
Q 1163 1200 1367 954 
Q 1572 709 1872 709 
Q 2194 709 2416 961 
Q 2638 1213 2638 1706 
Q 2638 2222 2425 2472 
Q 2213 2722 1888 2722 
Q 1572 2722 1367 2476 
Q 1163 2231 1163 1728 
z
" transform="scale(0.015625)"/>
      <path id="Arial-BoldMT-2d" d="M 359 1222 
L 359 2100 
L 2084 2100 
L 2084 1222 
L 359 1222 
z
" transform="scale(0.015625)"/>
     </defs>
     <use xlink:href="#Arial-BoldMT-45"/>
     <use xlink:href="#Arial-BoldMT-6d" transform="translate(66.699219 0)"/>
     <use xlink:href="#Arial-BoldMT-62" transform="translate(155.615234 0)"/>
     <use xlink:href="#Arial-BoldMT-65" transform="translate(216.699219 0)"/>
     <use xlink:href="#Arial-BoldMT-64" transform="translate(272.314453 0)"/>
     <use xlink:href="#Arial-BoldMT-64" transform="translate(333.398438 0)"/>
     <use xlink:href="#Arial-BoldMT-69" transform="translate(394.482422 0)"/>
     <use xlink:href="#Arial-BoldMT-6e" transform="translate(422.265625 0)"/>
     <use xlink:href="#Arial-BoldMT-67" transform="translate(483.349609 0)"/>
     <use xlink:href="#Arial-BoldMT-20" transform="translate(544.433594 0)"/>
     <use xlink:href="#Arial-BoldMT-28" transform="translate(572.216797 0)"/>
     <use xlink:href="#Arial-BoldMT-64" transform="translate(605.517578 0)"/>
     <use xlink:href="#Arial-BoldMT-2d" transform="translate(666.601562 0)"/>
     <use xlink:href="#Arial-BoldMT-64" transform="translate(699.902344 0)"/>
     <use xlink:href="#Arial-BoldMT-69" transform="translate(760.986328 0)"/>
     <use xlink:href="#Arial-BoldMT-6d" transform="translate(788.769531 0)"/>
     <use xlink:href="#Arial-BoldMT-29" transform="translate(877.685547 0)"/>
    </g>
   </g>
   <g id="patch_19">
    <path d="M 348.461684 111.9816 
Q 373.247478 111.9816 394.902777 111.9816 
" style="fill: none; stroke: #1e293b; stroke-width: 2.8; stroke-linecap: round"/>
    <path d="M 390.102777 109.5816 
L 394.902777 111.9816 
L 390.102777 114.3816 
z
" style="fill: #1e293b; stroke: #1e293b; stroke-width: 2.8; stroke-linecap: round"/>
   </g>
   <g id="text_6">
    <!-- Episodic Memory (support) -->
    <g style="fill: #1e293b" transform="translate(293.125078 229.58865) scale(0.11 -0.11)">
     <defs>
      <path id="Arial-BoldMT-79" d="M 44 3319 
L 978 3319 
L 1772 963 
L 2547 3319 
L 3456 3319 
L 2284 125 
L 2075 -453 
Q 1959 -744 1854 -897 
Q 1750 -1050 1614 -1145 
Q 1478 -1241 1279 -1294 
Q 1081 -1347 831 -1347 
Q 578 -1347 334 -1294 
L 256 -606 
Q 463 -647 628 -647 
Q 934 -647 1081 -467 
Q 1228 -288 1306 -9 
L 44 3319 
z
" transform="scale(0.015625)"/>
      <path id="Arial-BoldMT-75" d="M 2644 0 
L 2644 497 
Q 2463 231 2167 78 
Q 1872 -75 1544 -75 
Q 1209 -75 943 72 
Q 678 219 559 484 
Q 441 750 441 1219 
L 441 3319 
L 1319 3319 
L 1319 1794 
Q 1319 1094 1367 936 
Q 1416 778 1544 686 
Q 1672 594 1869 594 
Q 2094 594 2272 717 
Q 2450 841 2515 1023 
Q 2581 1206 2581 1919 
L 2581 3319 
L 3459 3319 
L 3459 0 
L 2644 0 
z
" transform="scale(0.015625)"/>
     </defs>
     <use xlink:href="#Arial-BoldMT-45"/>
     <use xlink:href="#Arial-BoldMT-70" transform="translate(66.699219 0)"/>
     <use xlink:href="#Arial-BoldMT-69" transform="translate(127.783203 0)"/>
     <use xlink:href="#Arial-BoldMT-73" transform="translate(155.566406 0)"/>
     <use xlink:href="#Arial-BoldMT-6f" transform="translate(211.181641 0)"/>
     <use xlink:href="#Arial-BoldMT-64" transform="translate(272.265625 0)"/>
     <use xlink:href="#Arial-BoldMT-69" transform="translate(333.349609 0)"/>
     <use xlink:href="#Arial-BoldMT-63" transform="translate(361.132812 0)"/>
     <use xlink:href="#Arial-BoldMT-20" transform="translate(416.748047 0)"/>
     <use xlink:href="#Arial-BoldMT-4d" transform="translate(444.53125 0)"/>
     <use xlink:href="#Arial-BoldMT-65" transform="translate(527.832031 0)"/>
     <use xlink:href="#Arial-BoldMT-6d" transform="translate(583.447266 0)"/>
     <use xlink:href="#Arial-BoldMT-6f" transform="translate(672.363281 0)"/>
     <use xlink:href="#Arial-BoldMT-72" transform="translate(733.447266 0)"/>
     <use xlink:href="#Arial-BoldMT-79" transform="translate(772.363281 0)"/>
     <use xlink:href="#Arial-BoldMT-20" transform="translate(827.978516 0)"/>
     <use xlink:href="#Arial-BoldMT-28" transform="translate(855.761719 0)"/>
     <use xlink:href="#Arial-BoldMT-73" transform="translate(889.0625 0)"/>
     <use xlink:href="#Arial-BoldMT-75" transform="translate(944.677734 0)"/>
     <use xlink:href="#Arial-BoldMT-70" transform="translate(1005.761719 0)"/>
     <use xlink:href="#Arial-BoldMT-70" transform="translate(1066.845703 0)"/>
     <use xlink:href="#Arial-BoldMT-6f" transform="translate(1127.929688 0)"/>
     <use xlink:href="#Arial-BoldMT-72" transform="translate(1189.013672 0)"/>
     <use xlink:href="#Arial-BoldMT-74" transform="translate(1227.929688 0)"/>
     <use xlink:href="#Arial-BoldMT-29" transform="translate(1261.230469 0)"/>
    </g>
   </g>
   <g id="PathCollection_2">
    <defs>
     <path id="m839a36edf8" d="M 0 7.071068 
C 1.875269 7.071068 3.673985 6.326016 5 5 
C 6.326016 3.673985 7.071068 1.875269 7.071068 0 
C 7.071068 -1.875269 6.326016 -3.673985 5 -5 
C 3.673985 -6.326016 1.875269 -7.071068 0 -7.071068 
C -1.875269 -7.071068 -3.673985 -6.326016 -5 -5 
C -6.326016 -3.673985 -7.071068 -1.875269 -7.071068 0 
C -7.071068 1.875269 -6.326016 3.673985 -5 5 
C -3.673985 6.326016 -1.875269 7.071068 0 7.071068 
z
" style="stroke: #1e293b; stroke-width: 1.2"/>
    </defs>
    <g clip-path="url(#p0587187471)">
     <use xlink:href="#m839a36edf8" x="507.168" y="214.2684" style="fill: #7e57c2; stroke: #1e293b; stroke-width: 1.2"/>
    </g>
   </g>
   <g id="text_7">
    <!-- Prototype: Cat -->
    <g style="fill: #1e293b" transform="translate(520.56 208.28088) scale(0.1 -0.1)">
     <defs>
      <path id="ArialMT-50" d="M 494 0 
L 494 4581 
L 2222 4581 
Q 2678 4581 2919 4538 
Q 3256 4481 3484 4323 
Q 3713 4166 3852 3881 
Q 3991 3597 3991 3256 
Q 3991 2672 3619 2267 
Q 3247 1863 2275 1863 
L 1100 1863 
L 1100 0 
L 494 0 
z
M 1100 2403 
L 2284 2403 
Q 2872 2403 3119 2622 
Q 3366 2841 3366 3238 
Q 3366 3525 3220 3729 
Q 3075 3934 2838 4000 
Q 2684 4041 2272 4041 
L 1100 4041 
L 1100 2403 
z
" transform="scale(0.015625)"/>
      <path id="ArialMT-72" d="M 416 0 
L 416 3319 
L 922 3319 
L 922 2816 
Q 1116 3169 1280 3281 
Q 1444 3394 1641 3394 
Q 1925 3394 2219 3213 
L 2025 2691 
Q 1819 2813 1613 2813 
Q 1428 2813 1281 2702 
Q 1134 2591 1072 2394 
Q 978 2094 978 1738 
L 978 0 
L 416 0 
z
" transform="scale(0.015625)"/>
      <path id="ArialMT-6f" d="M 213 1659 
Q 213 2581 725 3025 
Q 1153 3394 1769 3394 
Q 2453 3394 2887 2945 
Q 3322 2497 3322 1706 
Q 3322 1066 3130 698 
Q 2938 331 2570 128 
Q 2203 -75 1769 -75 
Q 1072 -75 642 372 
Q 213 819 213 1659 
z
M 791 1659 
Q 791 1022 1069 705 
Q 1347 388 1769 388 
Q 2188 388 2466 706 
Q 2744 1025 2744 1678 
Q 2744 2294 2464 2611 
Q 2184 2928 1769 2928 
Q 1347 2928 1069 2612 
Q 791 2297 791 1659 
z
" transform="scale(0.015625)"/>
      <path id="ArialMT-74" d="M 1650 503 
L 1731 6 
Q 1494 -44 1306 -44 
Q 1000 -44 831 53 
Q 663 150 594 308 
Q 525 466 525 972 
L 525 2881 
L 113 2881 
L 113 3319 
L 525 3319 
L 525 4141 
L 1084 4478 
L 1084 3319 
L 1650 3319 
L 1650 2881 
L 1084 2881 
L 1084 941 
Q 1084 700 1114 631 
Q 1144 563 1211 522 
Q 1278 481 1403 481 
Q 1497 481 1650 503 
z
" transform="scale(0.015625)"/>
      <path id="ArialMT-79" d="M 397 -1278 
L 334 -750 
Q 519 -800 656 -800 
Q 844 -800 956 -737 
Q 1069 -675 1141 -563 
Q 1194 -478 1313 -144 
Q 1328 -97 1363 -6 
L 103 3319 
L 709 3319 
L 1400 1397 
Q 1534 1031 1641 628 
Q 1738 1016 1872 1384 
L 2581 3319 
L 3144 3319 
L 1881 -56 
Q 1678 -603 1566 -809 
Q 1416 -1088 1222 -1217 
Q 1028 -1347 759 -1347 
Q 597 -1347 397 -1278 
z
" transform="scale(0.015625)"/>
      <path id="ArialMT-70" d="M 422 -1272 
L 422 3319 
L 934 3319 
L 934 2888 
Q 1116 3141 1344 3267 
Q 1572 3394 1897 3394 
Q 2322 3394 2647 3175 
Q 2972 2956 3137 2557 
Q 3303 2159 3303 1684 
Q 3303 1175 3120 767 
Q 2938 359 2589 142 
Q 2241 -75 1856 -75 
Q 1575 -75 1351 44 
Q 1128 163 984 344 
L 984 -1272 
L 422 -1272 
z
M 931 1641 
Q 931 1000 1190 694 
Q 1450 388 1819 388 
Q 2194 388 2461 705 
Q 2728 1022 2728 1688 
Q 2728 2322 2467 2637 
Q 2206 2953 1844 2953 
Q 1484 2953 1207 2617 
Q 931 2281 931 1641 
z
" transform="scale(0.015625)"/>
      <path id="ArialMT-65" d="M 2694 1069 
L 3275 997 
Q 3138 488 2766 206 
Q 2394 -75 1816 -75 
Q 1088 -75 661 373 
Q 234 822 234 1631 
Q 234 2469 665 2931 
Q 1097 3394 1784 3394 
Q 2450 3394 2872 2941 
Q 3294 2488 3294 1666 
Q 3294 1616 3291 1516 
L 816 1516 
Q 847 969 1125 678 
Q 1403 388 1819 388 
Q 2128 388 2347 550 
Q 2566 713 2694 1069 
z
M 847 1978 
L 2700 1978 
Q 2663 2397 2488 2606 
Q 2219 2931 1791 2931 
Q 1403 2931 1139 2672 
Q 875 2413 847 1978 
z
" transform="scale(0.015625)"/>
      <path id="ArialMT-3a" d="M 578 2678 
L 578 3319 
L 1219 3319 
L 1219 2678 
L 578 2678 
z
M 578 0 
L 578 641 
L 1219 641 
L 1219 0 
L 578 0 
z
" transform="scale(0.015625)"/>
      <path id="ArialMT-20" transform="scale(0.015625)"/>
      <path id="ArialMT-43" d="M 3763 1606 
L 4369 1453 
Q 4178 706 3683 314 
Q 3188 -78 2472 -78 
Q 1731 -78 1267 223 
Q 803 525 561 1097 
Q 319 1669 319 2325 
Q 319 3041 592 3573 
Q 866 4106 1370 4382 
Q 1875 4659 2481 4659 
Q 3169 4659 3637 4309 
Q 4106 3959 4291 3325 
L 3694 3184 
Q 3534 3684 3231 3912 
Q 2928 4141 2469 4141 
Q 1941 4141 1586 3887 
Q 1231 3634 1087 3207 
Q 944 2781 944 2328 
Q 944 1744 1114 1308 
Q 1284 872 1643 656 
Q 2003 441 2422 441 
Q 2931 441 3284 734 
Q 3638 1028 3763 1606 
z
" transform="scale(0.015625)"/>
      <path id="ArialMT-61" d="M 2588 409 
Q 2275 144 1986 34 
Q 1697 -75 1366 -75 
Q 819 -75 525 192 
Q 231 459 231 875 
Q 231 1119 342 1320 
Q 453 1522 633 1644 
Q 813 1766 1038 1828 
Q 1203 1872 1538 1913 
Q 2219 1994 2541 2106 
Q 2544 2222 2544 2253 
Q 2544 2597 2384 2738 
Q 2169 2928 1744 2928 
Q 1347 2928 1158 2789 
Q 969 2650 878 2297 
L 328 2372 
Q 403 2725 575 2942 
Q 747 3159 1072 3276 
Q 1397 3394 1825 3394 
Q 2250 3394 2515 3294 
Q 2781 3194 2906 3042 
Q 3031 2891 3081 2659 
Q 3109 2516 3109 2141 
L 3109 1391 
Q 3109 606 3145 398 
Q 3181 191 3288 0 
L 2700 0 
Q 2613 175 2588 409 
z
M 2541 1666 
Q 2234 1541 1622 1453 
Q 1275 1403 1131 1340 
Q 988 1278 909 1158 
Q 831 1038 831 891 
Q 831 666 1001 516 
Q 1172 366 1500 366 
Q 1825 366 2078 508 
Q 2331 650 2450 897 
Q 2541 1088 2541 1459 
L 2541 1666 
z
" transform="scale(0.015625)"/>
     </defs>
     <use xlink:href="#ArialMT-50"/>
     <use xlink:href="#ArialMT-72" transform="translate(66.699219 0)"/>
     <use xlink:href="#ArialMT-6f" transform="translate(100 0)"/>
     <use xlink:href="#ArialMT-74" transform="translate(155.615234 0)"/>
     <use xlink:href="#ArialMT-6f" transform="translate(183.398438 0)"/>
     <use xlink:href="#ArialMT-74" transform="translate(239.013672 0)"/>
     <use xlink:href="#ArialMT-79" transform="translate(266.796875 0)"/>
     <use xlink:href="#ArialMT-70" transform="translate(316.796875 0)"/>
     <use xlink:href="#ArialMT-65" transform="translate(372.412109 0)"/>
     <use xlink:href="#ArialMT-3a" transform="translate(428.027344 0)"/>
     <use xlink:href="#ArialMT-20" transform="translate(455.810547 0)"/>
     <use xlink:href="#ArialMT-43" transform="translate(483.59375 0)"/>
     <use xlink:href="#ArialMT-61" transform="translate(555.810547 0)"/>
     <use xlink:href="#ArialMT-74" transform="translate(611.425781 0)"/>
    </g>
   </g>
   <g id="PathCollection_3">
    <defs>
     <path id="m0ee2e79536" d="M 0 6.324555 
C 1.677292 6.324555 3.286112 5.65816 4.472136 4.472136 
C 5.65816 3.286112 6.324555 1.677292 6.324555 0 
C 6.324555 -1.677292 5.65816 -3.286112 4.472136 -4.472136 
C 3.286112 -5.65816 1.677292 -6.324555 0 -6.324555 
C -1.677292 -6.324555 -3.286112 -5.65816 -4.472136 -4.472136 
C -5.65816 -3.286112 -6.324555 -1.677292 -6.324555 0 
C -6.324555 1.677292 -5.65816 3.286112 -4.472136 4.472136 
C -3.286112 5.65816 -1.677292 6.324555 0 6.324555 
z
" style="stroke: #1e293b"/>
    </defs>
    <g clip-path="url(#p0587187471)">
     <use xlink:href="#m0ee2e79536" x="328.608" y="234.2268" style="fill: #b39ddb; stroke: #1e293b"/>
    </g>
   </g>
   <g id="text_8">
    <!-- Prototype: Dog -->
    <g style="fill: #1e293b" transform="translate(257.184 251.6904) scale(0.09 -0.09)">
     <defs>
      <path id="ArialMT-44" d="M 494 0 
L 494 4581 
L 2072 4581 
Q 2606 4581 2888 4516 
Q 3281 4425 3559 4188 
Q 3922 3881 4101 3404 
Q 4281 2928 4281 2316 
Q 4281 1794 4159 1391 
Q 4038 988 3847 723 
Q 3656 459 3429 307 
Q 3203 156 2883 78 
Q 2563 0 2147 0 
L 494 0 
z
M 1100 541 
L 2078 541 
Q 2531 541 2789 625 
Q 3047 709 3200 863 
Q 3416 1078 3536 1442 
Q 3656 1806 3656 2325 
Q 3656 3044 3420 3430 
Q 3184 3816 2847 3947 
Q 2603 4041 2063 4041 
L 1100 4041 
L 1100 541 
z
" transform="scale(0.015625)"/>
      <path id="ArialMT-67" d="M 319 -275 
L 866 -356 
Q 900 -609 1056 -725 
Q 1266 -881 1628 -881 
Q 2019 -881 2231 -725 
Q 2444 -569 2519 -288 
Q 2563 -116 2559 434 
Q 2191 0 1641 0 
Q 956 0 581 494 
Q 206 988 206 1678 
Q 206 2153 378 2554 
Q 550 2956 876 3175 
Q 1203 3394 1644 3394 
Q 2231 3394 2613 2919 
L 2613 3319 
L 3131 3319 
L 3131 450 
Q 3131 -325 2973 -648 
Q 2816 -972 2473 -1159 
Q 2131 -1347 1631 -1347 
Q 1038 -1347 672 -1080 
Q 306 -813 319 -275 
z
M 784 1719 
Q 784 1066 1043 766 
Q 1303 466 1694 466 
Q 2081 466 2343 764 
Q 2606 1063 2606 1700 
Q 2606 2309 2336 2618 
Q 2066 2928 1684 2928 
Q 1309 2928 1046 2623 
Q 784 2319 784 1719 
z
" transform="scale(0.015625)"/>
     </defs>
     <use xlink:href="#ArialMT-50"/>
     <use xlink:href="#ArialMT-72" transform="translate(66.699219 0)"/>
     <use xlink:href="#ArialMT-6f" transform="translate(100 0)"/>
     <use xlink:href="#ArialMT-74" transform="translate(155.615234 0)"/>
     <use xlink:href="#ArialMT-6f" transform="translate(183.398438 0)"/>
     <use xlink:href="#ArialMT-74" transform="translate(239.013672 0)"/>
     <use xlink:href="#ArialMT-79" transform="translate(266.796875 0)"/>
     <use xlink:href="#ArialMT-70" transform="translate(316.796875 0)"/>
     <use xlink:href="#ArialMT-65" transform="translate(372.412109 0)"/>
     <use xlink:href="#ArialMT-3a" transform="translate(428.027344 0)"/>
     <use xlink:href="#ArialMT-20" transform="translate(455.810547 0)"/>
     <use xlink:href="#ArialMT-44" transform="translate(483.59375 0)"/>
     <use xlink:href="#ArialMT-6f" transform="translate(555.810547 0)"/>
     <use xlink:href="#ArialMT-67" transform="translate(611.425781 0)"/>
    </g>
   </g>
   <g id="PathCollection_4">
    <g clip-path="url(#p0587187471)">
     <use xlink:href="#m0ee2e79536" x="239.328" y="224.2476" style="fill: #b39ddb; stroke: #1e293b"/>
    </g>
   </g>
   <g id="text_9">
    <!-- Prototype: Car -->
    <g style="fill: #1e293b" transform="translate(176.832 213.27048) scale(0.09 -0.09)">
     <use xlink:href="#ArialMT-50"/>
     <use xlink:href="#ArialMT-72" transform="translate(66.699219 0)"/>
     <use xlink:href="#ArialMT-6f" transform="translate(100 0)"/>
     <use xlink:href="#ArialMT-74" transform="translate(155.615234 0)"/>
     <use xlink:href="#ArialMT-6f" transform="translate(183.398438 0)"/>
     <use xlink:href="#ArialMT-74" transform="translate(239.013672 0)"/>
     <use xlink:href="#ArialMT-79" transform="translate(266.796875 0)"/>
     <use xlink:href="#ArialMT-70" transform="translate(316.796875 0)"/>
     <use xlink:href="#ArialMT-65" transform="translate(372.412109 0)"/>
     <use xlink:href="#ArialMT-3a" transform="translate(428.027344 0)"/>
     <use xlink:href="#ArialMT-20" transform="translate(455.810547 0)"/>
     <use xlink:href="#ArialMT-43" transform="translate(483.59375 0)"/>
     <use xlink:href="#ArialMT-61" transform="translate(555.810547 0)"/>
     <use xlink:href="#ArialMT-72" transform="translate(611.425781 0)"/>
    </g>
   </g>
   <g id="patch_20">
    <path d="M 489.790441 138.868156 
Q 498.240046 173.104386 505.885963 204.084225 
" style="fill: none; stroke: #7e57c2; stroke-width: 3; stroke-linecap: round"/>
    <path d="M 507.065904 198.848984 
L 505.885963 204.084225 
L 502.405735 199.999128 
z
" style="fill: #7e57c2; stroke: #7e57c2; stroke-width: 3; stroke-linecap: round"/>
   </g>
   <g id="text_10">
    <!-- cosine ↑ -->
    <g style="fill: #7e57c2" transform="translate(502.704 168.1146) scale(0.09 -0.09)">
     <defs>
      <path id="ArialMT-63" d="M 2588 1216 
L 3141 1144 
Q 3050 572 2676 248 
Q 2303 -75 1759 -75 
Q 1078 -75 664 370 
Q 250 816 250 1647 
Q 250 2184 428 2587 
Q 606 2991 970 3192 
Q 1334 3394 1763 3394 
Q 2303 3394 2647 3120 
Q 2991 2847 3088 2344 
L 2541 2259 
Q 2463 2594 2264 2762 
Q 2066 2931 1784 2931 
Q 1359 2931 1093 2626 
Q 828 2322 828 1663 
Q 828 994 1084 691 
Q 1341 388 1753 388 
Q 2084 388 2306 591 
Q 2528 794 2588 1216 
z
" transform="scale(0.015625)"/>
      <path id="ArialMT-73" d="M 197 991 
L 753 1078 
Q 800 744 1014 566 
Q 1228 388 1613 388 
Q 2000 388 2187 545 
Q 2375 703 2375 916 
Q 2375 1106 2209 1216 
Q 2094 1291 1634 1406 
Q 1016 1563 777 1677 
Q 538 1791 414 1992 
Q 291 2194 291 2438 
Q 291 2659 392 2848 
Q 494 3038 669 3163 
Q 800 3259 1026 3326 
Q 1253 3394 1513 3394 
Q 1903 3394 2198 3281 
Q 2494 3169 2634 2976 
Q 2775 2784 2828 2463 
L 2278 2388 
Q 2241 2644 2061 2787 
Q 1881 2931 1553 2931 
Q 1166 2931 1000 2803 
Q 834 2675 834 2503 
Q 834 2394 903 2306 
Q 972 2216 1119 2156 
Q 1203 2125 1616 2013 
Q 2213 1853 2448 1751 
Q 2684 1650 2818 1456 
Q 2953 1263 2953 975 
Q 2953 694 2789 445 
Q 2625 197 2315 61 
Q 2006 -75 1616 -75 
Q 969 -75 630 194 
Q 291 463 197 991 
z
" transform="scale(0.015625)"/>
      <path id="ArialMT-69" d="M 425 3934 
L 425 4581 
L 988 4581 
L 988 3934 
L 425 3934 
z
M 425 0 
L 425 3319 
L 988 3319 
L 988 0 
L 425 0 
z
" transform="scale(0.015625)"/>
      <path id="ArialMT-6e" d="M 422 0 
L 422 3319 
L 928 3319 
L 928 2847 
Q 1294 3394 1984 3394 
Q 2284 3394 2536 3286 
Q 2788 3178 2913 3003 
Q 3038 2828 3088 2588 
Q 3119 2431 3119 2041 
L 3119 0 
L 2556 0 
L 2556 2019 
Q 2556 2363 2490 2533 
Q 2425 2703 2258 2804 
Q 2091 2906 1866 2906 
Q 1506 2906 1245 2678 
Q 984 2450 984 1813 
L 984 0 
L 422 0 
z
" transform="scale(0.015625)"/>
      <path id="ArialMT-2191" d="M 478 2894 
Q 931 3309 1167 3612 
Q 1403 3916 1519 4184 
L 1663 4184 
Q 1809 3875 2042 3584 
Q 2275 3294 2725 2891 
L 2725 2650 
Q 2097 2944 1759 3266 
L 1759 -1341 
L 1444 -1341 
L 1444 3266 
Q 1144 3028 995 2934 
Q 847 2841 478 2656 
L 478 2894 
z
" transform="scale(0.015625)"/>
     </defs>
     <use xlink:href="#ArialMT-63"/>
     <use xlink:href="#ArialMT-6f" transform="translate(50 0)"/>
     <use xlink:href="#ArialMT-73" transform="translate(105.615234 0)"/>
     <use xlink:href="#ArialMT-69" transform="translate(155.615234 0)"/>
     <use xlink:href="#ArialMT-6e" transform="translate(177.832031 0)"/>
     <use xlink:href="#ArialMT-65" transform="translate(233.447266 0)"/>
     <use xlink:href="#ArialMT-20" transform="translate(289.0625 0)"/>
     <use xlink:href="#ArialMT-2191" transform="translate(316.845703 0)"/>
    </g>
   </g>
   <g id="patch_21">
    <path d="M 487.602648 137.966791 
Q 411.192081 184.330751 336.310855 229.766747 
" style="fill: none; stroke-dasharray: 5.92,2.56; stroke-dashoffset: 0; stroke: #94a3b8; stroke-width: 1.6; stroke-linecap: round"/>
    <path d="M 341.6595 229.328583 
L 336.310855 229.766747 
L 339.169511 225.224932 
z
" style="fill: #94a3b8; stroke-dasharray: 5.92,2.56; stroke-dashoffset: 0; stroke: #94a3b8; stroke-width: 1.6; stroke-linecap: round"/>
   </g>
   <g id="patch_22">
    <path d="M 487.420099 137.583221 
Q 366.552146 179.34115 247.374984 220.514937 
" style="fill: none; stroke-dasharray: 5.92,2.56; stroke-dashoffset: 0; stroke: #94a3b8; stroke-width: 1.6; stroke-linecap: round"/>
    <path d="M 252.695564 221.215957 
L 247.374984 220.514937 
L 251.128148 216.679085 
z
" style="fill: #94a3b8; stroke-dasharray: 5.92,2.56; stroke-dashoffset: 0; stroke: #94a3b8; stroke-width: 1.6; stroke-linecap: round"/>
   </g>
   <g id="text_11">
    <!-- Readiness Agent -->
    <g style="fill: #1e293b" transform="translate(275.266641 378.237047) scale(0.11 -0.11)">
     <defs>
      <path id="Arial-BoldMT-52" d="M 469 0 
L 469 4581 
L 2416 4581 
Q 3150 4581 3483 4457 
Q 3816 4334 4016 4018 
Q 4216 3703 4216 3297 
Q 4216 2781 3912 2445 
Q 3609 2109 3006 2022 
Q 3306 1847 3501 1637 
Q 3697 1428 4028 894 
L 4588 0 
L 3481 0 
L 2813 997 
Q 2456 1531 2325 1670 
Q 2194 1809 2047 1861 
Q 1900 1913 1581 1913 
L 1394 1913 
L 1394 0 
L 469 0 
z
M 1394 2644 
L 2078 2644 
Q 2744 2644 2909 2700 
Q 3075 2756 3169 2893 
Q 3263 3031 3263 3238 
Q 3263 3469 3139 3611 
Q 3016 3753 2791 3791 
Q 2678 3806 2116 3806 
L 1394 3806 
L 1394 2644 
z
" transform="scale(0.015625)"/>
      <path id="Arial-BoldMT-41" d="M 4597 0 
L 3591 0 
L 3191 1041 
L 1359 1041 
L 981 0 
L 0 0 
L 1784 4581 
L 2763 4581 
L 4597 0 
z
M 2894 1813 
L 2263 3513 
L 1644 1813 
L 2894 1813 
z
" transform="scale(0.015625)"/>
     </defs>
     <use xlink:href="#Arial-BoldMT-52"/>
     <use xlink:href="#Arial-BoldMT-65" transform="translate(72.216797 0)"/>
     <use xlink:href="#Arial-BoldMT-61" transform="translate(127.832031 0)"/>
     <use xlink:href="#Arial-BoldMT-64" transform="translate(183.447266 0)"/>
     <use xlink:href="#Arial-BoldMT-69" transform="translate(244.53125 0)"/>
     <use xlink:href="#Arial-BoldMT-6e" transform="translate(272.314453 0)"/>
     <use xlink:href="#Arial-BoldMT-65" transform="translate(333.398438 0)"/>
     <use xlink:href="#Arial-BoldMT-73" transform="translate(389.013672 0)"/>
     <use xlink:href="#Arial-BoldMT-73" transform="translate(444.628906 0)"/>
     <use xlink:href="#Arial-BoldMT-20" transform="translate(500.244141 0)"/>
     <use xlink:href="#Arial-BoldMT-41" transform="translate(524.277344 0)"/>
     <use xlink:href="#Arial-BoldMT-67" transform="translate(596.494141 0)"/>
     <use xlink:href="#Arial-BoldMT-65" transform="translate(657.578125 0)"/>
     <use xlink:href="#Arial-BoldMT-6e" transform="translate(713.193359 0)"/>
     <use xlink:href="#Arial-BoldMT-74" transform="translate(774.277344 0)"/>
    </g>
    <!-- q = max softmax(cos/T) -->
    <g style="fill: #1e293b" transform="translate(258.402266 390.161391) scale(0.11 -0.11)">
     <defs>
      <path id="Arial-BoldMT-71" d="M 2628 -1263 
L 2628 406 
Q 2456 184 2200 54 
Q 1944 -75 1647 -75 
Q 1081 -75 716 350 
Q 284 847 284 1697 
Q 284 2497 689 2945 
Q 1094 3394 1694 3394 
Q 2025 3394 2267 3253 
Q 2509 3113 2697 2828 
L 2697 3319 
L 3506 3319 
L 3506 -1263 
L 2628 -1263 
z
M 2656 1700 
Q 2656 2209 2448 2457 
Q 2241 2706 1928 2706 
Q 1609 2706 1395 2453 
Q 1181 2200 1181 1650 
Q 1181 1103 1387 861 
Q 1594 619 1897 619 
Q 2200 619 2428 891 
Q 2656 1163 2656 1700 
z
" transform="scale(0.015625)"/>
      <path id="Arial-BoldMT-3d" d="M 266 2550 
L 266 3356 
L 3469 3356 
L 3469 2550 
L 266 2550 
z
M 266 1163 
L 266 1972 
L 3469 1972 
L 3469 1163 
L 266 1163 
z
" transform="scale(0.015625)"/>
      <path id="Arial-BoldMT-78" d="M 38 0 
L 1234 1709 
L 88 3319 
L 1159 3319 
L 1747 2406 
L 2366 3319 
L 3397 3319 
L 2272 1747 
L 3500 0 
L 2422 0 
L 1747 1028 
L 1066 0 
L 38 0 
z
" transform="scale(0.015625)"/>
      <path id="Arial-BoldMT-66" d="M 75 3319 
L 563 3319 
L 563 3569 
Q 563 3988 652 4194 
Q 741 4400 980 4529 
Q 1219 4659 1584 4659 
Q 1959 4659 2319 4547 
L 2200 3934 
Q 1991 3984 1797 3984 
Q 1606 3984 1523 3895 
Q 1441 3806 1441 3553 
L 1441 3319 
L 2097 3319 
L 2097 2628 
L 1441 2628 
L 1441 0 
L 563 0 
L 563 2628 
L 75 2628 
L 75 3319 
z
" transform="scale(0.015625)"/>
      <path id="Arial-BoldMT-2f" d="M -9 -78 
L 1125 4659 
L 1784 4659 
L 638 -78 
L -9 -78 
z
" transform="scale(0.015625)"/>
      <path id="Arial-BoldMT-54" d="M 1497 0 
L 1497 3806 
L 138 3806 
L 138 4581 
L 3778 4581 
L 3778 3806 
L 2422 3806 
L 2422 0 
L 1497 0 
z
" transform="scale(0.015625)"/>
     </defs>
     <use xlink:href="#Arial-BoldMT-71"/>
     <use xlink:href="#Arial-BoldMT-20" transform="translate(61.083984 0)"/>
     <use xlink:href="#Arial-BoldMT-3d" transform="translate(88.867188 0)"/>
     <use xlink:href="#Arial-BoldMT-20" transform="translate(147.265625 0)"/>
     <use xlink:href="#Arial-BoldMT-6d" transform="translate(175.048828 0)"/>
     <use xlink:href="#Arial-BoldMT-61" transform="translate(263.964844 0)"/>
     <use xlink:href="#Arial-BoldMT-78" transform="translate(319.580078 0)"/>
     <use xlink:href="#Arial-BoldMT-20" transform="translate(375.195312 0)"/>
     <use xlink:href="#Arial-BoldMT-73" transform="translate(402.978516 0)"/>
     <use xlink:href="#Arial-BoldMT-6f" transform="translate(458.59375 0)"/>
     <use xlink:href="#Arial-BoldMT-66" transform="translate(519.677734 0)"/>
     <use xlink:href="#Arial-BoldMT-74" transform="translate(552.978516 0)"/>
     <use xlink:href="#Arial-BoldMT-6d" transform="translate(586.279297 0)"/>
     <use xlink:href="#Arial-BoldMT-61" transform="translate(675.195312 0)"/>
     <use xlink:href="#Arial-BoldMT-78" transform="translate(730.810547 0)"/>
     <use xlink:href="#Arial-BoldMT-28" transform="translate(786.425781 0)"/>
     <use xlink:href="#Arial-BoldMT-63" transform="translate(819.726562 0)"/>
     <use xlink:href="#Arial-BoldMT-6f" transform="translate(875.341797 0)"/>
     <use xlink:href="#Arial-BoldMT-73" transform="translate(936.425781 0)"/>
     <use xlink:href="#Arial-BoldMT-2f" transform="translate(992.041016 0)"/>
     <use xlink:href="#Arial-BoldMT-54" transform="translate(1019.824219 0)"/>
     <use xlink:href="#Arial-BoldMT-29" transform="translate(1080.908203 0)"/>
    </g>
   </g>
   <g id="patch_23">
    <path d="M 363.343228 273.395647 
Q 341.999974 311.565647 322.184549 347.003297 
" style="fill: none; stroke: #1e293b; stroke-width: 2.8; stroke-linecap: round"/>
    <path d="M 326.621937 343.985088 
L 322.184549 347.003297 
L 322.432414 341.642461 
z
" style="fill: #1e293b; stroke: #1e293b; stroke-width: 2.8; stroke-linecap: round"/>
   </g>
   <g id="text_12">
    <!-- Deploy (q ≥ δ) ✓ -->
    <g style="fill: #1e293b" transform="translate(567.240844 349.0803) scale(0.1 -0.1)">
     <defs>
      <path id="Arial-BoldMT-44" d="M 463 4581 
L 2153 4581 
Q 2725 4581 3025 4494 
Q 3428 4375 3715 4072 
Q 4003 3769 4153 3330 
Q 4303 2891 4303 2247 
Q 4303 1681 4163 1272 
Q 3991 772 3672 463 
Q 3431 228 3022 97 
Q 2716 0 2203 0 
L 463 0 
L 463 4581 
z
M 1388 3806 
L 1388 772 
L 2078 772 
Q 2466 772 2638 816 
Q 2863 872 3011 1006 
Q 3159 1141 3253 1448 
Q 3347 1756 3347 2288 
Q 3347 2819 3253 3103 
Q 3159 3388 2990 3547 
Q 2822 3706 2563 3763 
Q 2369 3806 1803 3806 
L 1388 3806 
z
" transform="scale(0.015625)"/>
      <path id="Arial-BoldMT-2265" d="M 188 1056 
L 188 1938 
L 2381 2803 
L 188 3653 
L 188 4531 
L 3328 3175 
L 3328 2422 
L 188 1056 
z
M 188 0 
L 188 822 
L 3328 822 
L 3328 0 
L 188 0 
z
" transform="scale(0.015625)"/>
      <path id="Arial-BoldMT-3b4" d="M 553 4581 
L 3356 4581 
L 3356 3853 
L 1791 3853 
Q 2056 3606 2688 3184 
Q 3091 2913 3262 2720 
Q 3434 2528 3537 2239 
Q 3641 1950 3641 1634 
Q 3641 931 3209 428 
Q 2778 -75 1950 -75 
Q 1384 -75 1046 134 
Q 709 344 476 748 
Q 244 1153 244 1669 
Q 244 2269 587 2723 
Q 931 3178 1475 3269 
Q 1125 3516 1003 3613 
L 553 3963 
L 553 4581 
z
M 1091 1569 
Q 1091 1100 1336 848 
Q 1581 597 1934 597 
Q 2288 597 2541 861 
Q 2794 1125 2794 1600 
Q 2794 2078 2547 2340 
Q 2300 2603 1956 2603 
Q 1556 2603 1323 2314 
Q 1091 2025 1091 1569 
z
" transform="scale(0.015625)"/>
      <path id="Arial-BoldMT-2713" d="M 800 0 
L 800 4000 
L 4000 4000 
L 4000 0 
L 800 0 
z
M 900 100 
L 3900 100 
L 3900 3900 
L 900 3900 
L 900 100 
z
" transform="scale(0.015625)"/>
     </defs>
     <use xlink:href="#Arial-BoldMT-44"/>
     <use xlink:href="#Arial-BoldMT-65" transform="translate(72.216797 0)"/>
     <use xlink:href="#Arial-BoldMT-70" transform="translate(127.832031 0)"/>
     <use xlink:href="#Arial-BoldMT-6c" transform="translate(188.916016 0)"/>
     <use xlink:href="#Arial-BoldMT-6f" transform="translate(216.699219 0)"/>
     <use xlink:href="#Arial-BoldMT-79" transform="translate(277.783203 0)"/>
     <use xlink:href="#Arial-BoldMT-20" transform="translate(333.398438 0)"/>
     <use xlink:href="#Arial-BoldMT-28" transform="translate(361.181641 0)"/>
     <use xlink:href="#Arial-BoldMT-71" transform="translate(394.482422 0)"/>
     <use xlink:href="#Arial-BoldMT-20" transform="translate(455.566406 0)"/>
     <use xlink:href="#Arial-BoldMT-2265" transform="translate(483.349609 0)"/>
     <use xlink:href="#Arial-BoldMT-20" transform="translate(538.232422 0)"/>
     <use xlink:href="#Arial-BoldMT-3b4" transform="translate(566.015625 0)"/>
     <use xlink:href="#Arial-BoldMT-29" transform="translate(626.660156 0)"/>
     <use xlink:href="#Arial-BoldMT-20" transform="translate(659.960938 0)"/>
     <use xlink:href="#Arial-BoldMT-2713" transform="translate(687.744141 0)"/>
    </g>
   </g>
   <g id="text_13">
    <!-- Request Feedback (q &lt; δ) ? -->
    <g style="fill: #1e293b" transform="translate(558.107781 398.9763) scale(0.1 -0.1)">
     <defs>
      <path id="Arial-BoldMT-6b" d="M 428 0 
L 428 4581 
L 1306 4581 
L 1306 2150 
L 2334 3319 
L 3416 3319 
L 2281 2106 
L 3497 0 
L 2550 0 
L 1716 1491 
L 1306 1063 
L 1306 0 
L 428 0 
z
" transform="scale(0.015625)"/>
      <path id="Arial-BoldMT-3c" d="M 3438 522 
L 297 1888 
L 297 2644 
L 3438 4003 
L 3438 3113 
L 1247 2275 
L 3438 1406 
L 3438 522 
z
" transform="scale(0.015625)"/>
      <path id="Arial-BoldMT-3f" d="M 2347 1181 
L 1550 1181 
Q 1547 1353 1547 1391 
Q 1547 1778 1675 2028 
Q 1803 2278 2187 2590 
Q 2572 2903 2647 3000 
Q 2763 3153 2763 3338 
Q 2763 3594 2558 3776 
Q 2353 3959 2006 3959 
Q 1672 3959 1447 3768 
Q 1222 3578 1138 3188 
L 331 3288 
Q 366 3847 808 4237 
Q 1250 4628 1969 4628 
Q 2725 4628 3172 4233 
Q 3619 3838 3619 3313 
Q 3619 3022 3455 2762 
Q 3291 2503 2753 2056 
Q 2475 1825 2408 1684 
Q 2341 1544 2347 1181 
z
M 1550 0 
L 1550 878 
L 2428 878 
L 2428 0 
L 1550 0 
z
" transform="scale(0.015625)"/>
     </defs>
     <use xlink:href="#Arial-BoldMT-52"/>
     <use xlink:href="#Arial-BoldMT-65" transform="translate(72.216797 0)"/>
     <use xlink:href="#Arial-BoldMT-71" transform="translate(127.832031 0)"/>
     <use xlink:href="#Arial-BoldMT-75" transform="translate(188.916016 0)"/>
     <use xlink:href="#Arial-BoldMT-65" transform="translate(250 0)"/>
     <use xlink:href="#Arial-BoldMT-73" transform="translate(305.615234 0)"/>
     <use xlink:href="#Arial-BoldMT-74" transform="translate(361.230469 0)"/>
     <use xlink:href="#Arial-BoldMT-20" transform="translate(394.53125 0)"/>
     <use xlink:href="#Arial-BoldMT-46" transform="translate(422.314453 0)"/>
     <use xlink:href="#Arial-BoldMT-65" transform="translate(483.398438 0)"/>
     <use xlink:href="#Arial-BoldMT-65" transform="translate(539.013672 0)"/>
     <use xlink:href="#Arial-BoldMT-64" transform="translate(594.628906 0)"/>
     <use xlink:href="#Arial-BoldMT-62" transform="translate(655.712891 0)"/>
     <use xlink:href="#Arial-BoldMT-61" transform="translate(716.796875 0)"/>
     <use xlink:href="#Arial-BoldMT-63" transform="translate(772.412109 0)"/>
     <use xlink:href="#Arial-BoldMT-6b" transform="translate(828.027344 0)"/>
     <use xlink:href="#Arial-BoldMT-20" transform="translate(883.642578 0)"/>
     <use xlink:href="#Arial-BoldMT-28" transform="translate(911.425781 0)"/>
     <use xlink:href="#Arial-BoldMT-71" transform="translate(944.726562 0)"/>
     <use xlink:href="#Arial-BoldMT-20" transform="translate(1005.810547 0)"/>
     <use xlink:href="#Arial-BoldMT-3c" transform="translate(1033.59375 0)"/>
     <use xlink:href="#Arial-BoldMT-20" transform="translate(1091.992188 0)"/>
     <use xlink:href="#Arial-BoldMT-3b4" transform="translate(1119.775391 0)"/>
     <use xlink:href="#Arial-BoldMT-29" transform="translate(1180.419922 0)"/>
     <use xlink:href="#Arial-BoldMT-20" transform="translate(1213.720703 0)"/>
     <use xlink:href="#Arial-BoldMT-3f" transform="translate(1241.503906 0)"/>
    </g>
   </g>
   <g id="patch_24">
    <path d="M 419.787598 380.800716 
Q 471.453571 363.957192 519.718031 348.222589 
" style="fill: none; stroke: #2e7d32; stroke-width: 3.2; stroke-linecap: round"/>
    <path d="M 514.410535 347.428557 
L 519.718031 348.222589 
L 515.898309 351.992167 
z
" style="fill: #2e7d32; stroke: #2e7d32; stroke-width: 3.2; stroke-linecap: round"/>
   </g>
   <g id="patch_25">
    <path d="M 419.885684 391.492237 
Q 471.455373 393.893971 519.451228 396.129262 
" style="fill: none; stroke: #f9a825; stroke-width: 3.2; stroke-linecap: round"/>
    <path d="M 514.768078 393.508554 
L 519.451228 396.129262 
L 514.544772 398.303357 
z
" style="fill: #f9a825; stroke: #f9a825; stroke-width: 3.2; stroke-linecap: round"/>
   </g>
   <g id="text_14">
    <!-- Human (labeling) -->
    <g style="fill: #1e293b" transform="translate(774.630094 411.4503) scale(0.1 -0.1)">
     <defs>
      <path id="Arial-BoldMT-48" d="M 469 0 
L 469 4581 
L 1394 4581 
L 1394 2778 
L 3206 2778 
L 3206 4581 
L 4131 4581 
L 4131 0 
L 3206 0 
L 3206 2003 
L 1394 2003 
L 1394 0 
L 469 0 
z
" transform="scale(0.015625)"/>
     </defs>
     <use xlink:href="#Arial-BoldMT-48"/>
     <use xlink:href="#Arial-BoldMT-75" transform="translate(72.216797 0)"/>
     <use xlink:href="#Arial-BoldMT-6d" transform="translate(133.300781 0)"/>
     <use xlink:href="#Arial-BoldMT-61" transform="translate(222.216797 0)"/>
     <use xlink:href="#Arial-BoldMT-6e" transform="translate(277.832031 0)"/>
     <use xlink:href="#Arial-BoldMT-20" transform="translate(338.916016 0)"/>
     <use xlink:href="#Arial-BoldMT-28" transform="translate(366.699219 0)"/>
     <use xlink:href="#Arial-BoldMT-6c" transform="translate(400 0)"/>
     <use xlink:href="#Arial-BoldMT-61" transform="translate(427.783203 0)"/>
     <use xlink:href="#Arial-BoldMT-62" transform="translate(483.398438 0)"/>
     <use xlink:href="#Arial-BoldMT-65" transform="translate(544.482422 0)"/>
     <use xlink:href="#Arial-BoldMT-6c" transform="translate(600.097656 0)"/>
     <use xlink:href="#Arial-BoldMT-69" transform="translate(627.880859 0)"/>
     <use xlink:href="#Arial-BoldMT-6e" transform="translate(655.664062 0)"/>
     <use xlink:href="#Arial-BoldMT-67" transform="translate(716.748047 0)"/>
     <use xlink:href="#Arial-BoldMT-29" transform="translate(777.832031 0)"/>
    </g>
   </g>
   <g id="patch_26">
    <path d="M 723.18266 397.362722 
Q 734.830612 403.872425 743.941067 408.963993 
" style="fill: none; stroke-dasharray: 9.62,4.16; stroke-dashoffset: 0; stroke: #f9a825; stroke-width: 2.6; stroke-linecap: round"/>
    <path d="M 740.92187 404.527277 
L 743.941067 408.963993 
L 738.580176 408.717321 
z
" style="fill: #f9a825; stroke-dasharray: 9.62,4.16; stroke-dashoffset: 0; stroke: #f9a825; stroke-width: 2.6; stroke-linecap: round"/>
   </g>
   <g id="text_15">
    <!-- Human correction → Memory update (Δcₖ) -->
    <g style="fill: #7e57c2" transform="translate(623.232 321.5448) scale(0.1 -0.1)">
     <defs>
      <path id="ArialMT-48" d="M 513 0 
L 513 4581 
L 1119 4581 
L 1119 2700 
L 3500 2700 
L 3500 4581 
L 4106 4581 
L 4106 0 
L 3500 0 
L 3500 2159 
L 1119 2159 
L 1119 0 
L 513 0 
z
" transform="scale(0.015625)"/>
      <path id="ArialMT-75" d="M 2597 0 
L 2597 488 
Q 2209 -75 1544 -75 
Q 1250 -75 995 37 
Q 741 150 617 320 
Q 494 491 444 738 
Q 409 903 409 1263 
L 409 3319 
L 972 3319 
L 972 1478 
Q 972 1038 1006 884 
Q 1059 663 1231 536 
Q 1403 409 1656 409 
Q 1909 409 2131 539 
Q 2353 669 2445 892 
Q 2538 1116 2538 1541 
L 2538 3319 
L 3100 3319 
L 3100 0 
L 2597 0 
z
" transform="scale(0.015625)"/>
      <path id="ArialMT-6d" d="M 422 0 
L 422 3319 
L 925 3319 
L 925 2853 
Q 1081 3097 1340 3245 
Q 1600 3394 1931 3394 
Q 2300 3394 2536 3241 
Q 2772 3088 2869 2813 
Q 3263 3394 3894 3394 
Q 4388 3394 4653 3120 
Q 4919 2847 4919 2278 
L 4919 0 
L 4359 0 
L 4359 2091 
Q 4359 2428 4304 2576 
Q 4250 2725 4106 2815 
Q 3963 2906 3769 2906 
Q 3419 2906 3187 2673 
Q 2956 2441 2956 1928 
L 2956 0 
L 2394 0 
L 2394 2156 
Q 2394 2531 2256 2718 
Q 2119 2906 1806 2906 
Q 1569 2906 1367 2781 
Q 1166 2656 1075 2415 
Q 984 2175 984 1722 
L 984 0 
L 422 0 
z
" transform="scale(0.015625)"/>
      <path id="ArialMT-2192" d="M 4859 2738 
Q 5275 2284 5578 2048 
Q 5881 1813 6150 1697 
L 6150 1556 
Q 5841 1406 5550 1173 
Q 5259 941 4856 491 
L 4616 491 
Q 4909 1119 5231 1456 
L 247 1456 
L 247 1772 
L 5231 1772 
Q 4994 2075 4900 2222 
Q 4806 2369 4622 2738 
L 4859 2738 
z
" transform="scale(0.015625)"/>
      <path id="ArialMT-4d" d="M 475 0 
L 475 4581 
L 1388 4581 
L 2472 1338 
Q 2622 884 2691 659 
Q 2769 909 2934 1394 
L 4031 4581 
L 4847 4581 
L 4847 0 
L 4263 0 
L 4263 3834 
L 2931 0 
L 2384 0 
L 1059 3900 
L 1059 0 
L 475 0 
z
" transform="scale(0.015625)"/>
      <path id="ArialMT-64" d="M 2575 0 
L 2575 419 
Q 2259 -75 1647 -75 
Q 1250 -75 917 144 
Q 584 363 401 755 
Q 219 1147 219 1656 
Q 219 2153 384 2558 
Q 550 2963 881 3178 
Q 1213 3394 1622 3394 
Q 1922 3394 2156 3267 
Q 2391 3141 2538 2938 
L 2538 4581 
L 3097 4581 
L 3097 0 
L 2575 0 
z
M 797 1656 
Q 797 1019 1065 703 
Q 1334 388 1700 388 
Q 2069 388 2326 689 
Q 2584 991 2584 1609 
Q 2584 2291 2321 2609 
Q 2059 2928 1675 2928 
Q 1300 2928 1048 2622 
Q 797 2316 797 1656 
z
" transform="scale(0.015625)"/>
      <path id="ArialMT-28" d="M 1497 -1347 
Q 1031 -759 709 28 
Q 388 816 388 1659 
Q 388 2403 628 3084 
Q 909 3875 1497 4659 
L 1900 4659 
Q 1522 4009 1400 3731 
Q 1209 3300 1100 2831 
Q 966 2247 966 1656 
Q 966 153 1900 -1347 
L 1497 -1347 
z
" transform="scale(0.015625)"/>
      <path id="ArialMT-394" d="M -6 0 
L 1753 4581 
L 2406 4581 
L 4281 0 
L -6 0 
z
M 834 541 
L 3381 541 
L 2391 3150 
Q 2169 3738 2066 4100 
Q 1981 3675 1819 3225 
L 834 541 
z
" transform="scale(0.015625)"/>
      <path id="ArialMT-2096" d="M 800 0 
L 800 4000 
L 4000 4000 
L 4000 0 
L 800 0 
z
M 900 100 
L 3900 100 
L 3900 3900 
L 900 3900 
L 900 100 
z
" transform="scale(0.015625)"/>
      <path id="ArialMT-29" d="M 791 -1347 
L 388 -1347 
Q 1322 153 1322 1656 
Q 1322 2244 1188 2822 
Q 1081 3291 891 3722 
Q 769 4003 388 4659 
L 791 4659 
Q 1378 3875 1659 3084 
Q 1900 2403 1900 1659 
Q 1900 816 1576 28 
Q 1253 -759 791 -1347 
z
" transform="scale(0.015625)"/>
     </defs>
     <use xlink:href="#ArialMT-48"/>
     <use xlink:href="#ArialMT-75" transform="translate(72.216797 0)"/>
     <use xlink:href="#ArialMT-6d" transform="translate(127.832031 0)"/>
     <use xlink:href="#ArialMT-61" transform="translate(211.132812 0)"/>
     <use xlink:href="#ArialMT-6e" transform="translate(266.748047 0)"/>
     <use xlink:href="#ArialMT-20" transform="translate(322.363281 0)"/>
     <use xlink:href="#ArialMT-63" transform="translate(350.146484 0)"/>
     <use xlink:href="#ArialMT-6f" transform="translate(400.146484 0)"/>
     <use xlink:href="#ArialMT-72" transform="translate(455.761719 0)"/>
     <use xlink:href="#ArialMT-72" transform="translate(489.0625 0)"/>
     <use xlink:href="#ArialMT-65" transform="translate(522.363281 0)"/>
     <use xlink:href="#ArialMT-63" transform="translate(577.978516 0)"/>
     <use xlink:href="#ArialMT-74" transform="translate(627.978516 0)"/>
     <use xlink:href="#ArialMT-69" transform="translate(655.761719 0)"/>
     <use xlink:href="#ArialMT-6f" transform="translate(677.978516 0)"/>
     <use xlink:href="#ArialMT-6e" transform="translate(733.59375 0)"/>
     <use xlink:href="#ArialMT-20" transform="translate(789.208984 0)"/>
     <use xlink:href="#ArialMT-2192" transform="translate(816.992188 0)"/>
     <use xlink:href="#ArialMT-20" transform="translate(916.992188 0)"/>
     <use xlink:href="#ArialMT-4d" transform="translate(944.775391 0)"/>
     <use xlink:href="#ArialMT-65" transform="translate(1028.076172 0)"/>
     <use xlink:href="#ArialMT-6d" transform="translate(1083.691406 0)"/>
     <use xlink:href="#ArialMT-6f" transform="translate(1166.992188 0)"/>
     <use xlink:href="#ArialMT-72" transform="translate(1222.607422 0)"/>
     <use xlink:href="#ArialMT-79" transform="translate(1255.908203 0)"/>
     <use xlink:href="#ArialMT-20" transform="translate(1305.908203 0)"/>
     <use xlink:href="#ArialMT-75" transform="translate(1333.691406 0)"/>
     <use xlink:href="#ArialMT-70" transform="translate(1389.306641 0)"/>
     <use xlink:href="#ArialMT-64" transform="translate(1444.921875 0)"/>
     <use xlink:href="#ArialMT-61" transform="translate(1500.537109 0)"/>
     <use xlink:href="#ArialMT-74" transform="translate(1556.152344 0)"/>
     <use xlink:href="#ArialMT-65" transform="translate(1583.935547 0)"/>
     <use xlink:href="#ArialMT-20" transform="translate(1639.550781 0)"/>
     <use xlink:href="#ArialMT-28" transform="translate(1667.333984 0)"/>
     <use xlink:href="#ArialMT-394" transform="translate(1700.634766 0)"/>
     <use xlink:href="#ArialMT-63" transform="translate(1767.431641 0)"/>
     <use xlink:href="#ArialMT-2096" transform="translate(1817.431641 0)"/>
     <use xlink:href="#ArialMT-29" transform="translate(1892.431641 0)"/>
    </g>
   </g>
   <g id="text_16">
    <!-- CALM Ecosystem: Perception • Memory • Readiness -->
    <g style="fill: #1e293b" transform="translate(42.912 42.1272) scale(0.16 -0.16)">
     <defs>
      <path id="Arial-BoldMT-3a" d="M 628 2441 
L 628 3319 
L 1506 3319 
L 1506 2441 
L 628 2441 
z
M 628 0 
L 628 878 
L 1506 878 
L 1506 0 
L 628 0 
z
" transform="scale(0.015625)"/>
      <path id="Arial-BoldMT-2022" d="M 2053 2263 
Q 2053 1878 1783 1608 
Q 1513 1338 1131 1338 
Q 747 1338 476 1609 
Q 206 1881 206 2263 
Q 206 2644 476 2914 
Q 747 3184 1131 3184 
Q 1513 3184 1783 2915 
Q 2053 2647 2053 2263 
z
" transform="scale(0.015625)"/>
     </defs>
     <use xlink:href="#Arial-BoldMT-43"/>
     <use xlink:href="#Arial-BoldMT-41" transform="translate(72.216797 0)"/>
     <use xlink:href="#Arial-BoldMT-4c" transform="translate(144.433594 0)"/>
     <use xlink:href="#Arial-BoldMT-4d" transform="translate(205.517578 0)"/>
     <use xlink:href="#Arial-BoldMT-20" transform="translate(288.818359 0)"/>
     <use xlink:href="#Arial-BoldMT-45" transform="translate(316.601562 0)"/>
     <use xlink:href="#Arial-BoldMT-63" transform="translate(383.300781 0)"/>
     <use xlink:href="#Arial-BoldMT-6f" transform="translate(438.916016 0)"/>
     <use xlink:href="#Arial-BoldMT-73" transform="translate(500 0)"/>
     <use xlink:href="#Arial-BoldMT-79" transform="translate(555.615234 0)"/>
     <use xlink:href="#Arial-BoldMT-73" transform="translate(611.230469 0)"/>
     <use xlink:href="#Arial-BoldMT-74" transform="translate(666.845703 0)"/>
     <use xlink:href="#Arial-BoldMT-65" transform="translate(700.146484 0)"/>
     <use xlink:href="#Arial-BoldMT-6d" transform="translate(755.761719 0)"/>
     <use xlink:href="#Arial-BoldMT-3a" transform="translate(844.677734 0)"/>
     <use xlink:href="#Arial-BoldMT-20" transform="translate(877.978516 0)"/>
     <use xlink:href="#Arial-BoldMT-50" transform="translate(905.761719 0)"/>
     <use xlink:href="#Arial-BoldMT-65" transform="translate(972.460938 0)"/>
     <use xlink:href="#Arial-BoldMT-72" transform="translate(1028.076172 0)"/>
     <use xlink:href="#Arial-BoldMT-63" transform="translate(1066.992188 0)"/>
     <use xlink:href="#Arial-BoldMT-65" transform="translate(1122.607422 0)"/>
     <use xlink:href="#Arial-BoldMT-70" transform="translate(1178.222656 0)"/>
     <use xlink:href="#Arial-BoldMT-74" transform="translate(1239.306641 0)"/>
     <use xlink:href="#Arial-BoldMT-69" transform="translate(1272.607422 0)"/>
     <use xlink:href="#Arial-BoldMT-6f" transform="translate(1300.390625 0)"/>
     <use xlink:href="#Arial-BoldMT-6e" transform="translate(1361.474609 0)"/>
     <use xlink:href="#Arial-BoldMT-20" transform="translate(1422.558594 0)"/>
     <use xlink:href="#Arial-BoldMT-2022" transform="translate(1450.341797 0)"/>
     <use xlink:href="#Arial-BoldMT-20" transform="translate(1485.351562 0)"/>
     <use xlink:href="#Arial-BoldMT-4d" transform="translate(1513.134766 0)"/>
     <use xlink:href="#Arial-BoldMT-65" transform="translate(1596.435547 0)"/>
     <use xlink:href="#Arial-BoldMT-6d" transform="translate(1652.050781 0)"/>
     <use xlink:href="#Arial-BoldMT-6f" transform="translate(1740.966797 0)"/>
     <use xlink:href="#Arial-BoldMT-72" transform="translate(1802.050781 0)"/>
     <use xlink:href="#Arial-BoldMT-79" transform="translate(1840.966797 0)"/>
     <use xlink:href="#Arial-BoldMT-20" transform="translate(1896.582031 0)"/>
     <use xlink:href="#Arial-BoldMT-2022" transform="translate(1924.365234 0)"/>
     <use xlink:href="#Arial-BoldMT-20" transform="translate(1959.375 0)"/>
     <use xlink:href="#Arial-BoldMT-52" transform="translate(1987.158203 0)"/>
     <use xlink:href="#Arial-BoldMT-65" transform="translate(2059.375 0)"/>
     <use xlink:href="#Arial-BoldMT-61" transform="translate(2114.990234 0)"/>
     <use xlink:href="#Arial-BoldMT-64" transform="translate(2170.605469 0)"/>
     <use xlink:href="#Arial-BoldMT-69" transform="translate(2231.689453 0)"/>
     <use xlink:href="#Arial-BoldMT-6e" transform="translate(2259.472656 0)"/>
     <use xlink:href="#Arial-BoldMT-65" transform="translate(2320.556641 0)"/>
     <use xlink:href="#Arial-BoldMT-73" transform="translate(2376.171875 0)"/>
     <use xlink:href="#Arial-BoldMT-73" transform="translate(2431.787109 0)"/>
    </g>
   </g>
  </g>
 </g>
 <defs>
  <clipPath id="p0587187471">
   <rect x="7.2" y="7.2" width="892.8" height="498.96"/>
  </clipPath>
 </defs>
</svg>
