<?xml version="1.0" encoding="utf-8" standalone="no"?>
<!DOCTYPE svg PUBLIC "-//W3C//DTD SVG 1.1//EN"
  "http://www.w3.org/Graphics/SVG/1.1/DTD/svg11.dtd">
<svg xmlns:xlink="http://www.w3.org/1999/xlink" width="907.2pt" height="513.36pt" viewBox="0 0 907.2 513.36" xmlns="http://www.w3.org/2000/svg" version="1.1">
 <metadata>
  <rdf:RDF xmlns:dc="http://purl.org/dc/elements/1.1/" xmlns:cc="http://creativecommons.org/ns#" xmlns:rdf="http://www.w3.org/1999/02/22-rdf-syntax-ns#">
   <cc:Work>
    <dc:type rdf:resource="http://purl.org/dc/dcmitype/StillImage"/>
    <dc:date>2025-08-26T09:03:34.863837</dc:date>
    <dc:format>image/svg+xml</dc:format>
    <dc:creator>
     <cc:Agent>
      <dc:title>Matplotlib v3.10.1, https://matplotlib.org/</dc:title>
     </cc:Agent>
    </dc:creator>
   </cc:Work>
  </rdf:RDF>
 </metadata>
 <defs>
  <style type="text/css">*{stroke-linejoin: round; stroke-linecap: butt}</style>
 </defs>
 <g id="figure_1">
  <g id="patch_1">
   <path d="M 0 513.36 
L 907.2 513.36 
L 907.2 -0 
L 0 -0 
z
" style="fill: #ffffff"/>
  </g>
  <g id="axes_1">
   <g id="patch_2">
    <path d="M 27.7344 272.64672 
L 129.5136 272.64672 
Q 156.2976 272.64672 156.2976 257.67792 
L 156.2976 205.78608 
Q 156.2976 190.81728 129.5136 190.81728 
L 27.7344 190.81728 
Q 0.9504 190.81728 0.9504 205.78608 
L 0.9504 257.67792 
Q 0.9504 272.64672 27.7344 272.64672 
z
" clip-path="url(#p1a5ecc01d5)" style="fill: #e3f2fd; stroke: #1e293b; stroke-width: 1.8; stroke-linejoin: miter"/>
   </g>
   <g id="patch_3">
    <path d="M 179.5104 272.64672 
L 281.2896 272.64672 
Q 308.0736 272.64672 308.0736 257.67792 
L 308.0736 205.78608 
Q 308.0736 190.81728 281.2896 190.81728 
L 179.5104 190.81728 
Q 152.7264 190.81728 152.7264 205.78608 
L 152.7264 257.67792 
Q 152.7264 272.64672 179.5104 272.64672 
z
" clip-path="url(#p1a5ecc01d5)" style="fill: #e0f7fa; stroke: #1e293b; stroke-width: 1.8; stroke-linejoin: miter"/>
   </g>
   <g id="patch_4">
    <path d="M 331.2864 272.64672 
L 433.0656 272.64672 
Q 459.8496 272.64672 459.8496 257.67792 
L 459.8496 205.78608 
Q 459.8496 190.81728 433.0656 190.81728 
L 331.2864 190.81728 
Q 304.5024 190.81728 304.5024 205.78608 
L 304.5024 257.67792 
Q 304.5024 272.64672 331.2864 272.64672 
z
" clip-path="url(#p1a5ecc01d5)" style="fill: #ede7f6; stroke: #1e293b; stroke-width: 1.8; stroke-linejoin: miter"/>
   </g>
   <g id="patch_5">
    <path d="M 483.0624 272.64672 
L 584.8416 272.64672 
Q 611.6256 272.64672 611.6256 257.67792 
L 611.6256 205.78608 
Q 611.6256 190.81728 584.8416 190.81728 
L 483.0624 190.81728 
Q 456.2784 190.81728 456.2784 205.78608 
L 456.2784 257.67792 
Q 456.2784 272.64672 483.0624 272.64672 
z
" clip-path="url(#p1a5ecc01d5)" style="fill: #f3e5f5; stroke: #1e293b; stroke-width: 1.8; stroke-linejoin: miter"/>
   </g>
   <g id="patch_6">
    <path d="M 634.8384 272.64672 
L 736.6176 272.64672 
Q 763.4016 272.64672 763.4016 257.67792 
L 763.4016 205.78608 
Q 763.4016 190.81728 736.6176 190.81728 
L 634.8384 190.81728 
Q 608.0544 190.81728 608.0544 205.78608 
L 608.0544 257.67792 
Q 608.0544 272.64672 634.8384 272.64672 
z
" clip-path="url(#p1a5ecc01d5)" style="fill: #fff3e0; stroke: #1e293b; stroke-width: 1.8; stroke-linejoin: miter"/>
   </g>
   <g id="patch_7">
    <path d="M 750.9024 272.64672 
L 852.6816 272.64672 
Q 879.4656 272.64672 879.4656 257.67792 
L 879.4656 205.78608 
Q 879.4656 190.81728 852.6816 190.81728 
L 750.9024 190.81728 
Q 724.1184 190.81728 724.1184 205.78608 
L 724.1184 257.67792 
Q 724.1184 272.64672 750.9024 272.64672 
z
" clip-path="url(#p1a5ecc01d5)" style="fill: #e8f5e9; stroke: #1e293b; stroke-width: 1.8; stroke-linejoin: miter"/>
   </g>
   <g id="patch_8">
    <path d="M 757.152 166.8672 
L 864.288 166.8672 
Q 882.144 166.8672 882.144 156.888 
L 882.144 126.9504 
Q 882.144 116.9712 864.288 116.9712 
L 757.152 116.9712 
Q 739.296 116.9712 739.296 126.9504 
L 739.296 156.888 
Q 739.296 166.8672 757.152 166.8672 
z
" clip-path="url(#p1a5ecc01d5)" style="fill: #c8e6c9; stroke: #2e7d32; stroke-width: 2; stroke-linejoin: miter"/>
   </g>
   <g id="patch_9">
    <path d="M 757.152 351.4824 
L 908.928 351.4824 
Q 926.784 351.4824 926.784 341.5032 
L 926.784 311.5656 
Q 926.784 301.5864 908.928 301.5864 
L 757.152 301.5864 
Q 739.296 301.5864 739.296 311.5656 
L 739.296 341.5032 
Q 739.296 351.4824 757.152 351.4824 
z
" clip-path="url(#p1a5ecc01d5)" style="fill: #ffe082; stroke: #f9a825; stroke-width: 2; stroke-linejoin: miter"/>
   </g>
   <g id="patch_10">
    <path d="M 658.944 426.3264 
L 783.936 426.3264 
Q 801.792 426.3264 801.792 416.3472 
L 801.792 386.4096 
Q 801.792 376.4304 783.936 376.4304 
L 658.944 376.4304 
Q 641.088 376.4304 641.088 386.4096 
L 641.088 416.3472 
Q 641.088 426.3264 658.944 426.3264 
z
" clip-path="url(#p1a5ecc01d5)" style="fill: #fff9c4; stroke: #f9a825; stroke-width: 2; stroke-linejoin: miter"/>
   </g>
   <g id="patch_11">
    <path d="M 721.44 386.4096 
Q 637.62552 237.726 469.786323 241.645938 
" style="fill: none; stroke-dasharray: 9.25,4; stroke-dashoffset: 0; stroke: #7e57c2; stroke-width: 2.5; stroke-linecap: round"/>
    <path d="M 473.83193 243.551997 
L 469.786323 241.645938 
L 473.738535 239.553087 
z
" style="fill: #7e57c2; stroke-dasharray: 9.25,4; stroke-dashoffset: 0; stroke: #7e57c2; stroke-width: 2.5; stroke-linecap: round"/>
   </g>
   <g id="text_1">
    <!-- Input Image(s) -->
    <g style="fill: #1e293b" transform="translate(41.042672 234.57825) scale(0.11 -0.11)">
     <defs>
      <path id="Arial-BoldMT-49" d="M 438 0 
L 438 4581 
L 1363 4581 
L 1363 0 
L 438 0 
z
" transform="scale(0.015625)"/>
      <path id="Arial-BoldMT-6e" d="M 3478 0 
L 2600 0 
L 2600 1694 
Q 2600 2231 2544 2389 
Q 2488 2547 2361 2634 
Q 2234 2722 2056 2722 
Q 1828 2722 1647 2597 
Q 1466 2472 1398 2265 
Q 1331 2059 1331 1503 
L 1331 0 
L 453 0 
L 453 3319 
L 1269 3319 
L 1269 2831 
Q 1703 3394 2363 3394 
Q 2653 3394 2893 3289 
Q 3134 3184 3257 3021 
Q 3381 2859 3429 2653 
Q 3478 2447 3478 2063 
L 3478 0 
z
" transform="scale(0.015625)"/>
      <path id="Arial-BoldMT-70" d="M 434 3319 
L 1253 3319 
L 1253 2831 
Q 1413 3081 1684 3237 
Q 1956 3394 2288 3394 
Q 2866 3394 3269 2941 
Q 3672 2488 3672 1678 
Q 3672 847 3265 386 
Q 2859 -75 2281 -75 
Q 2006 -75 1782 34 
Q 1559 144 1313 409 
L 1313 -1263 
L 434 -1263 
L 434 3319 
z
M 1303 1716 
Q 1303 1156 1525 889 
Q 1747 622 2066 622 
Q 2372 622 2575 867 
Q 2778 1113 2778 1672 
Q 2778 2194 2568 2447 
Q 2359 2700 2050 2700 
Q 1728 2700 1515 2451 
Q 1303 2203 1303 1716 
z
" transform="scale(0.015625)"/>
      <path id="Arial-BoldMT-75" d="M 2644 0 
L 2644 497 
Q 2463 231 2167 78 
Q 1872 -75 1544 -75 
Q 1209 -75 943 72 
Q 678 219 559 484 
Q 441 750 441 1219 
L 441 3319 
L 1319 3319 
L 1319 1794 
Q 1319 1094 1367 936 
Q 1416 778 1544 686 
Q 1672 594 1869 594 
Q 2094 594 2272 717 
Q 2450 841 2515 1023 
Q 2581 1206 2581 1919 
L 2581 3319 
L 3459 3319 
L 3459 0 
L 2644 0 
z
" transform="scale(0.015625)"/>
      <path id="Arial-BoldMT-74" d="M 1981 3319 
L 1981 2619 
L 1381 2619 
L 1381 1281 
Q 1381 875 1398 808 
Q 1416 741 1477 697 
Q 1538 653 1625 653 
Q 1747 653 1978 738 
L 2053 56 
Q 1747 -75 1359 -75 
Q 1122 -75 931 4 
Q 741 84 652 211 
Q 563 338 528 553 
Q 500 706 500 1172 
L 500 2619 
L 97 2619 
L 97 3319 
L 500 3319 
L 500 3978 
L 1381 4491 
L 1381 3319 
L 1981 3319 
z
" transform="scale(0.015625)"/>
      <path id="Arial-BoldMT-20" transform="scale(0.015625)"/>
      <path id="Arial-BoldMT-6d" d="M 394 3319 
L 1203 3319 
L 1203 2866 
Q 1638 3394 2238 3394 
Q 2556 3394 2790 3262 
Q 3025 3131 3175 2866 
Q 3394 3131 3647 3262 
Q 3900 3394 4188 3394 
Q 4553 3394 4806 3245 
Q 5059 3097 5184 2809 
Q 5275 2597 5275 2122 
L 5275 0 
L 4397 0 
L 4397 1897 
Q 4397 2391 4306 2534 
Q 4184 2722 3931 2722 
Q 3747 2722 3584 2609 
Q 3422 2497 3350 2280 
Q 3278 2063 3278 1594 
L 3278 0 
L 2400 0 
L 2400 1819 
Q 2400 2303 2353 2443 
Q 2306 2584 2207 2653 
Q 2109 2722 1941 2722 
Q 1738 2722 1575 2612 
Q 1413 2503 1342 2297 
Q 1272 2091 1272 1613 
L 1272 0 
L 394 0 
L 394 3319 
z
" transform="scale(0.015625)"/>
      <path id="Arial-BoldMT-61" d="M 1116 2306 
L 319 2450 
Q 453 2931 781 3162 
Q 1109 3394 1756 3394 
Q 2344 3394 2631 3255 
Q 2919 3116 3036 2902 
Q 3153 2688 3153 2116 
L 3144 1091 
Q 3144 653 3186 445 
Q 3228 238 3344 0 
L 2475 0 
Q 2441 88 2391 259 
Q 2369 338 2359 363 
Q 2134 144 1878 34 
Q 1622 -75 1331 -75 
Q 819 -75 523 203 
Q 228 481 228 906 
Q 228 1188 362 1408 
Q 497 1628 739 1745 
Q 981 1863 1438 1950 
Q 2053 2066 2291 2166 
L 2291 2253 
Q 2291 2506 2166 2614 
Q 2041 2722 1694 2722 
Q 1459 2722 1328 2630 
Q 1197 2538 1116 2306 
z
M 2291 1594 
Q 2122 1538 1756 1459 
Q 1391 1381 1278 1306 
Q 1106 1184 1106 997 
Q 1106 813 1243 678 
Q 1381 544 1594 544 
Q 1831 544 2047 700 
Q 2206 819 2256 991 
Q 2291 1103 2291 1419 
L 2291 1594 
z
" transform="scale(0.015625)"/>
      <path id="Arial-BoldMT-67" d="M 378 -219 
L 1381 -341 
Q 1406 -516 1497 -581 
Q 1622 -675 1891 -675 
Q 2234 -675 2406 -572 
Q 2522 -503 2581 -350 
Q 2622 -241 2622 53 
L 2622 538 
Q 2228 0 1628 0 
Q 959 0 569 566 
Q 263 1013 263 1678 
Q 263 2513 664 2953 
Q 1066 3394 1663 3394 
Q 2278 3394 2678 2853 
L 2678 3319 
L 3500 3319 
L 3500 341 
Q 3500 -247 3403 -537 
Q 3306 -828 3131 -993 
Q 2956 -1159 2664 -1253 
Q 2372 -1347 1925 -1347 
Q 1081 -1347 728 -1058 
Q 375 -769 375 -325 
Q 375 -281 378 -219 
z
M 1163 1728 
Q 1163 1200 1367 954 
Q 1572 709 1872 709 
Q 2194 709 2416 961 
Q 2638 1213 2638 1706 
Q 2638 2222 2425 2472 
Q 2213 2722 1888 2722 
Q 1572 2722 1367 2476 
Q 1163 2231 1163 1728 
z
" transform="scale(0.015625)"/>
      <path id="Arial-BoldMT-65" d="M 2381 1056 
L 3256 909 
Q 3088 428 2723 176 
Q 2359 -75 1813 -75 
Q 947 -75 531 491 
Q 203 944 203 1634 
Q 203 2459 634 2926 
Q 1066 3394 1725 3394 
Q 2466 3394 2894 2905 
Q 3322 2416 3303 1406 
L 1103 1406 
Q 1113 1016 1316 798 
Q 1519 581 1822 581 
Q 2028 581 2168 693 
Q 2309 806 2381 1056 
z
M 2431 1944 
Q 2422 2325 2234 2523 
Q 2047 2722 1778 2722 
Q 1491 2722 1303 2513 
Q 1116 2303 1119 1944 
L 2431 1944 
z
" transform="scale(0.015625)"/>
      <path id="Arial-BoldMT-28" d="M 1916 -1347 
L 1313 -1347 
Q 834 -625 584 153 
Q 334 931 334 1659 
Q 334 2563 644 3369 
Q 913 4069 1325 4659 
L 1925 4659 
Q 1497 3713 1336 3048 
Q 1175 2384 1175 1641 
Q 1175 1128 1270 590 
Q 1366 53 1531 -431 
Q 1641 -750 1916 -1347 
z
" transform="scale(0.015625)"/>
      <path id="Arial-BoldMT-73" d="M 150 947 
L 1031 1081 
Q 1088 825 1259 692 
Q 1431 559 1741 559 
Q 2081 559 2253 684 
Q 2369 772 2369 919 
Q 2369 1019 2306 1084 
Q 2241 1147 2013 1200 
Q 950 1434 666 1628 
Q 272 1897 272 2375 
Q 272 2806 612 3100 
Q 953 3394 1669 3394 
Q 2350 3394 2681 3172 
Q 3013 2950 3138 2516 
L 2309 2363 
Q 2256 2556 2107 2659 
Q 1959 2763 1684 2763 
Q 1338 2763 1188 2666 
Q 1088 2597 1088 2488 
Q 1088 2394 1175 2328 
Q 1294 2241 1995 2081 
Q 2697 1922 2975 1691 
Q 3250 1456 3250 1038 
Q 3250 581 2869 253 
Q 2488 -75 1741 -75 
Q 1063 -75 667 200 
Q 272 475 150 947 
z
" transform="scale(0.015625)"/>
      <path id="Arial-BoldMT-29" d="M 216 -1347 
Q 475 -791 581 -494 
Q 688 -197 778 190 
Q 869 578 912 926 
Q 956 1275 956 1641 
Q 956 2384 797 3048 
Q 638 3713 209 4659 
L 806 4659 
Q 1278 3988 1539 3234 
Q 1800 2481 1800 1706 
Q 1800 1053 1594 306 
Q 1359 -531 822 -1347 
L 216 -1347 
z
" transform="scale(0.015625)"/>
     </defs>
     <use xlink:href="#Arial-BoldMT-49"/>
     <use xlink:href="#Arial-BoldMT-6e" transform="translate(27.783203 0)"/>
     <use xlink:href="#Arial-BoldMT-70" transform="translate(88.867188 0)"/>
     <use xlink:href="#Arial-BoldMT-75" transform="translate(149.951172 0)"/>
     <use xlink:href="#Arial-BoldMT-74" transform="translate(211.035156 0)"/>
     <use xlink:href="#Arial-BoldMT-20" transform="translate(244.335938 0)"/>
     <use xlink:href="#Arial-BoldMT-49" transform="translate(272.119141 0)"/>
     <use xlink:href="#Arial-BoldMT-6d" transform="translate(299.902344 0)"/>
     <use xlink:href="#Arial-BoldMT-61" transform="translate(388.818359 0)"/>
     <use xlink:href="#Arial-BoldMT-67" transform="translate(444.433594 0)"/>
     <use xlink:href="#Arial-BoldMT-65" transform="translate(505.517578 0)"/>
     <use xlink:href="#Arial-BoldMT-28" transform="translate(561.132812 0)"/>
     <use xlink:href="#Arial-BoldMT-73" transform="translate(594.433594 0)"/>
     <use xlink:href="#Arial-BoldMT-29" transform="translate(650.048828 0)"/>
    </g>
   </g>
   <g id="text_2">
    <!-- Frozen VLM -->
    <g style="fill: #1e293b" transform="translate(199.235625 222.811687) scale(0.11 -0.11)">
     <defs>
      <path id="Arial-BoldMT-46" d="M 472 0 
L 472 4581 
L 3613 4581 
L 3613 3806 
L 1397 3806 
L 1397 2722 
L 3309 2722 
L 3309 1947 
L 1397 1947 
L 1397 0 
L 472 0 
z
" transform="scale(0.015625)"/>
      <path id="Arial-BoldMT-72" d="M 1300 0 
L 422 0 
L 422 3319 
L 1238 3319 
L 1238 2847 
Q 1447 3181 1614 3287 
Q 1781 3394 1994 3394 
Q 2294 3394 2572 3228 
L 2300 2463 
Q 2078 2606 1888 2606 
Q 1703 2606 1575 2504 
Q 1447 2403 1373 2137 
Q 1300 1872 1300 1025 
L 1300 0 
z
" transform="scale(0.015625)"/>
      <path id="Arial-BoldMT-6f" d="M 256 1706 
Q 256 2144 472 2553 
Q 688 2963 1083 3178 
Q 1478 3394 1966 3394 
Q 2719 3394 3200 2905 
Q 3681 2416 3681 1669 
Q 3681 916 3195 420 
Q 2709 -75 1972 -75 
Q 1516 -75 1102 131 
Q 688 338 472 736 
Q 256 1134 256 1706 
z
M 1156 1659 
Q 1156 1166 1390 903 
Q 1625 641 1969 641 
Q 2313 641 2545 903 
Q 2778 1166 2778 1666 
Q 2778 2153 2545 2415 
Q 2313 2678 1969 2678 
Q 1625 2678 1390 2415 
Q 1156 2153 1156 1659 
z
" transform="scale(0.015625)"/>
      <path id="Arial-BoldMT-7a" d="M 106 0 
L 106 684 
L 1350 2113 
Q 1656 2463 1803 2609 
Q 1650 2600 1400 2597 
L 228 2591 
L 228 3319 
L 2972 3319 
L 2972 2697 
L 1703 1234 
L 1256 750 
Q 1622 772 1709 772 
L 3069 772 
L 3069 0 
L 106 0 
z
" transform="scale(0.015625)"/>
      <path id="Arial-BoldMT-56" d="M 1634 0 
L -3 4581 
L 1000 4581 
L 2159 1191 
L 3281 4581 
L 4263 4581 
L 2622 0 
L 1634 0 
z
" transform="scale(0.015625)"/>
      <path id="Arial-BoldMT-4c" d="M 491 0 
L 491 4544 
L 1416 4544 
L 1416 772 
L 3716 772 
L 3716 0 
L 491 0 
z
" transform="scale(0.015625)"/>
      <path id="Arial-BoldMT-4d" d="M 453 0 
L 453 4581 
L 1838 4581 
L 2669 1456 
L 3491 4581 
L 4878 4581 
L 4878 0 
L 4019 0 
L 4019 3606 
L 3109 0 
L 2219 0 
L 1313 3606 
L 1313 0 
L 453 0 
z
" transform="scale(0.015625)"/>
     </defs>
     <use xlink:href="#Arial-BoldMT-46"/>
     <use xlink:href="#Arial-BoldMT-72" transform="translate(61.083984 0)"/>
     <use xlink:href="#Arial-BoldMT-6f" transform="translate(100 0)"/>
     <use xlink:href="#Arial-BoldMT-7a" transform="translate(161.083984 0)"/>
     <use xlink:href="#Arial-BoldMT-65" transform="translate(211.083984 0)"/>
     <use xlink:href="#Arial-BoldMT-6e" transform="translate(266.699219 0)"/>
     <use xlink:href="#Arial-BoldMT-20" transform="translate(327.783203 0)"/>
     <use xlink:href="#Arial-BoldMT-56" transform="translate(355.566406 0)"/>
     <use xlink:href="#Arial-BoldMT-4c" transform="translate(422.265625 0)"/>
     <use xlink:href="#Arial-BoldMT-4d" transform="translate(483.349609 0)"/>
    </g>
    <!-- (CLIP) -->
    <g style="fill: #1e293b" transform="translate(214.209375 234.591656) scale(0.11 -0.11)">
     <defs>
      <path id="Arial-BoldMT-43" d="M 3397 1684 
L 4294 1400 
Q 4088 650 3608 286 
Q 3128 -78 2391 -78 
Q 1478 -78 890 545 
Q 303 1169 303 2250 
Q 303 3394 893 4026 
Q 1484 4659 2447 4659 
Q 3288 4659 3813 4163 
Q 4125 3869 4281 3319 
L 3366 3100 
Q 3284 3456 3026 3662 
Q 2769 3869 2400 3869 
Q 1891 3869 1573 3503 
Q 1256 3138 1256 2319 
Q 1256 1450 1568 1081 
Q 1881 713 2381 713 
Q 2750 713 3015 947 
Q 3281 1181 3397 1684 
z
" transform="scale(0.015625)"/>
      <path id="Arial-BoldMT-50" d="M 466 0 
L 466 4581 
L 1950 4581 
Q 2794 4581 3050 4513 
Q 3444 4409 3709 4064 
Q 3975 3719 3975 3172 
Q 3975 2750 3822 2462 
Q 3669 2175 3433 2011 
Q 3197 1847 2953 1794 
Q 2622 1728 1994 1728 
L 1391 1728 
L 1391 0 
L 466 0 
z
M 1391 3806 
L 1391 2506 
L 1897 2506 
Q 2444 2506 2628 2578 
Q 2813 2650 2917 2803 
Q 3022 2956 3022 3159 
Q 3022 3409 2875 3571 
Q 2728 3734 2503 3775 
Q 2338 3806 1838 3806 
L 1391 3806 
z
" transform="scale(0.015625)"/>
     </defs>
     <use xlink:href="#Arial-BoldMT-28"/>
     <use xlink:href="#Arial-BoldMT-43" transform="translate(33.300781 0)"/>
     <use xlink:href="#Arial-BoldMT-4c" transform="translate(105.517578 0)"/>
     <use xlink:href="#Arial-BoldMT-49" transform="translate(166.601562 0)"/>
     <use xlink:href="#Arial-BoldMT-50" transform="translate(194.384766 0)"/>
     <use xlink:href="#Arial-BoldMT-29" transform="translate(261.083984 0)"/>
    </g>
    <!-- Frozen θ -->
    <g style="fill: #1e293b" transform="translate(207.872344 246.355125) scale(0.11 -0.11)">
     <defs>
      <path id="Arial-BoldMT-3b8" d="M 1731 4659 
Q 3219 4659 3219 2291 
Q 3219 -75 1731 -75 
Q 1041 -75 642 461 
Q 244 997 244 2303 
Q 244 4659 1731 4659 
z
M 2313 2656 
Q 2288 3438 2142 3691 
Q 1997 3944 1731 3944 
Q 1469 3944 1322 3689 
Q 1175 3434 1153 2656 
L 2313 2656 
z
M 2313 1928 
L 1153 1928 
Q 1175 1147 1320 894 
Q 1466 641 1731 641 
Q 1997 641 2142 895 
Q 2288 1150 2313 1928 
z
" transform="scale(0.015625)"/>
     </defs>
     <use xlink:href="#Arial-BoldMT-46"/>
     <use xlink:href="#Arial-BoldMT-72" transform="translate(61.083984 0)"/>
     <use xlink:href="#Arial-BoldMT-6f" transform="translate(100 0)"/>
     <use xlink:href="#Arial-BoldMT-7a" transform="translate(161.083984 0)"/>
     <use xlink:href="#Arial-BoldMT-65" transform="translate(211.083984 0)"/>
     <use xlink:href="#Arial-BoldMT-6e" transform="translate(266.699219 0)"/>
     <use xlink:href="#Arial-BoldMT-20" transform="translate(327.783203 0)"/>
     <use xlink:href="#Arial-BoldMT-3b8" transform="translate(355.566406 0)"/>
    </g>
   </g>
   <g id="text_3">
    <!-- Embedding -->
    <g style="fill: #1e293b" transform="translate(352.233656 228.549047) scale(0.11 -0.11)">
     <defs>
      <path id="Arial-BoldMT-45" d="M 466 0 
L 466 4581 
L 3863 4581 
L 3863 3806 
L 1391 3806 
L 1391 2791 
L 3691 2791 
L 3691 2019 
L 1391 2019 
L 1391 772 
L 3950 772 
L 3950 0 
L 466 0 
z
" transform="scale(0.015625)"/>
      <path id="Arial-BoldMT-62" d="M 422 0 
L 422 4581 
L 1300 4581 
L 1300 2931 
Q 1706 3394 2263 3394 
Q 2869 3394 3266 2955 
Q 3663 2516 3663 1694 
Q 3663 844 3258 384 
Q 2853 -75 2275 -75 
Q 1991 -75 1714 67 
Q 1438 209 1238 488 
L 1238 0 
L 422 0 
z
M 1294 1731 
Q 1294 1216 1456 969 
Q 1684 619 2063 619 
Q 2353 619 2558 867 
Q 2763 1116 2763 1650 
Q 2763 2219 2556 2470 
Q 2350 2722 2028 2722 
Q 1713 2722 1503 2476 
Q 1294 2231 1294 1731 
z
" transform="scale(0.015625)"/>
      <path id="Arial-BoldMT-64" d="M 3503 0 
L 2688 0 
L 2688 488 
Q 2484 203 2207 64 
Q 1931 -75 1650 -75 
Q 1078 -75 670 386 
Q 263 847 263 1672 
Q 263 2516 659 2955 
Q 1056 3394 1663 3394 
Q 2219 3394 2625 2931 
L 2625 4581 
L 3503 4581 
L 3503 0 
z
M 1159 1731 
Q 1159 1200 1306 963 
Q 1519 619 1900 619 
Q 2203 619 2415 876 
Q 2628 1134 2628 1647 
Q 2628 2219 2422 2470 
Q 2216 2722 1894 2722 
Q 1581 2722 1370 2473 
Q 1159 2225 1159 1731 
z
" transform="scale(0.015625)"/>
      <path id="Arial-BoldMT-69" d="M 459 3769 
L 459 4581 
L 1338 4581 
L 1338 3769 
L 459 3769 
z
M 459 0 
L 459 3319 
L 1338 3319 
L 1338 0 
L 459 0 
z
" transform="scale(0.015625)"/>
     </defs>
     <use xlink:href="#Arial-BoldMT-45"/>
     <use xlink:href="#Arial-BoldMT-6d" transform="translate(66.699219 0)"/>
     <use xlink:href="#Arial-BoldMT-62" transform="translate(155.615234 0)"/>
     <use xlink:href="#Arial-BoldMT-65" transform="translate(216.699219 0)"/>
     <use xlink:href="#Arial-BoldMT-64" transform="translate(272.314453 0)"/>
     <use xlink:href="#Arial-BoldMT-64" transform="translate(333.398438 0)"/>
     <use xlink:href="#Arial-BoldMT-69" transform="translate(394.482422 0)"/>
     <use xlink:href="#Arial-BoldMT-6e" transform="translate(422.265625 0)"/>
     <use xlink:href="#Arial-BoldMT-67" transform="translate(483.349609 0)"/>
    </g>
    <!-- (d-dim) -->
    <g style="fill: #1e293b" transform="translate(363.54475 240.473391) scale(0.11 -0.11)">
     <defs>
      <path id="Arial-BoldMT-2d" d="M 359 1222 
L 359 2100 
L 2084 2100 
L 2084 1222 
L 359 1222 
z
" transform="scale(0.015625)"/>
     </defs>
     <use xlink:href="#Arial-BoldMT-28"/>
     <use xlink:href="#Arial-BoldMT-64" transform="translate(33.300781 0)"/>
     <use xlink:href="#Arial-BoldMT-2d" transform="translate(94.384766 0)"/>
     <use xlink:href="#Arial-BoldMT-64" transform="translate(127.685547 0)"/>
     <use xlink:href="#Arial-BoldMT-69" transform="translate(188.769531 0)"/>
     <use xlink:href="#Arial-BoldMT-6d" transform="translate(216.552734 0)"/>
     <use xlink:href="#Arial-BoldMT-29" transform="translate(305.46875 0)"/>
    </g>
   </g>
   <g id="text_4">
    <!-- Episodic Memory -->
    <g style="fill: #1e293b" transform="translate(488.415437 228.549047) scale(0.11 -0.11)">
     <defs>
      <path id="Arial-BoldMT-63" d="M 3353 2338 
L 2488 2181 
Q 2444 2441 2289 2572 
Q 2134 2703 1888 2703 
Q 1559 2703 1364 2476 
Q 1169 2250 1169 1719 
Q 1169 1128 1367 884 
Q 1566 641 1900 641 
Q 2150 641 2309 783 
Q 2469 925 2534 1272 
L 3397 1125 
Q 3263 531 2881 228 
Q 2500 -75 1859 -75 
Q 1131 -75 698 384 
Q 266 844 266 1656 
Q 266 2478 700 2936 
Q 1134 3394 1875 3394 
Q 2481 3394 2839 3133 
Q 3197 2872 3353 2338 
z
" transform="scale(0.015625)"/>
      <path id="Arial-BoldMT-79" d="M 44 3319 
L 978 3319 
L 1772 963 
L 2547 3319 
L 3456 3319 
L 2284 125 
L 2075 -453 
Q 1959 -744 1854 -897 
Q 1750 -1050 1614 -1145 
Q 1478 -1241 1279 -1294 
Q 1081 -1347 831 -1347 
Q 578 -1347 334 -1294 
L 256 -606 
Q 463 -647 628 -647 
Q 934 -647 1081 -467 
Q 1228 -288 1306 -9 
L 44 3319 
z
" transform="scale(0.015625)"/>
     </defs>
     <use xlink:href="#Arial-BoldMT-45"/>
     <use xlink:href="#Arial-BoldMT-70" transform="translate(66.699219 0)"/>
     <use xlink:href="#Arial-BoldMT-69" transform="translate(127.783203 0)"/>
     <use xlink:href="#Arial-BoldMT-73" transform="translate(155.566406 0)"/>
     <use xlink:href="#Arial-BoldMT-6f" transform="translate(211.181641 0)"/>
     <use xlink:href="#Arial-BoldMT-64" transform="translate(272.265625 0)"/>
     <use xlink:href="#Arial-BoldMT-69" transform="translate(333.349609 0)"/>
     <use xlink:href="#Arial-BoldMT-63" transform="translate(361.132812 0)"/>
     <use xlink:href="#Arial-BoldMT-20" transform="translate(416.748047 0)"/>
     <use xlink:href="#Arial-BoldMT-4d" transform="translate(444.53125 0)"/>
     <use xlink:href="#Arial-BoldMT-65" transform="translate(527.832031 0)"/>
     <use xlink:href="#Arial-BoldMT-6d" transform="translate(583.447266 0)"/>
     <use xlink:href="#Arial-BoldMT-6f" transform="translate(672.363281 0)"/>
     <use xlink:href="#Arial-BoldMT-72" transform="translate(733.447266 0)"/>
     <use xlink:href="#Arial-BoldMT-79" transform="translate(772.363281 0)"/>
    </g>
    <!-- (support) -->
    <g style="fill: #1e293b" transform="translate(509.821609 240.473391) scale(0.11 -0.11)">
     <use xlink:href="#Arial-BoldMT-28"/>
     <use xlink:href="#Arial-BoldMT-73" transform="translate(33.300781 0)"/>
     <use xlink:href="#Arial-BoldMT-75" transform="translate(88.916016 0)"/>
     <use xlink:href="#Arial-BoldMT-70" transform="translate(150 0)"/>
     <use xlink:href="#Arial-BoldMT-70" transform="translate(211.083984 0)"/>
     <use xlink:href="#Arial-BoldMT-6f" transform="translate(272.167969 0)"/>
     <use xlink:href="#Arial-BoldMT-72" transform="translate(333.251953 0)"/>
     <use xlink:href="#Arial-BoldMT-74" transform="translate(372.167969 0)"/>
     <use xlink:href="#Arial-BoldMT-29" transform="translate(405.46875 0)"/>
    </g>
   </g>
   <g id="text_5">
    <!-- Prototypical -->
    <g style="fill: #1e293b" transform="translate(653.946594 228.701672) scale(0.11 -0.11)">
     <defs>
      <path id="Arial-BoldMT-6c" d="M 459 0 
L 459 4581 
L 1338 4581 
L 1338 0 
L 459 0 
z
" transform="scale(0.015625)"/>
     </defs>
     <use xlink:href="#Arial-BoldMT-50"/>
     <use xlink:href="#Arial-BoldMT-72" transform="translate(66.699219 0)"/>
     <use xlink:href="#Arial-BoldMT-6f" transform="translate(105.615234 0)"/>
     <use xlink:href="#Arial-BoldMT-74" transform="translate(166.699219 0)"/>
     <use xlink:href="#Arial-BoldMT-6f" transform="translate(200 0)"/>
     <use xlink:href="#Arial-BoldMT-74" transform="translate(261.083984 0)"/>
     <use xlink:href="#Arial-BoldMT-79" transform="translate(294.384766 0)"/>
     <use xlink:href="#Arial-BoldMT-70" transform="translate(350 0)"/>
     <use xlink:href="#Arial-BoldMT-69" transform="translate(411.083984 0)"/>
     <use xlink:href="#Arial-BoldMT-63" transform="translate(438.867188 0)"/>
     <use xlink:href="#Arial-BoldMT-61" transform="translate(494.482422 0)"/>
     <use xlink:href="#Arial-BoldMT-6c" transform="translate(550.097656 0)"/>
    </g>
    <!-- Classifier -->
    <g style="fill: #1e293b" transform="translate(660.965969 240.465141) scale(0.11 -0.11)">
     <defs>
      <path id="Arial-BoldMT-66" d="M 75 3319 
L 563 3319 
L 563 3569 
Q 563 3988 652 4194 
Q 741 4400 980 4529 
Q 1219 4659 1584 4659 
Q 1959 4659 2319 4547 
L 2200 3934 
Q 1991 3984 1797 3984 
Q 1606 3984 1523 3895 
Q 1441 3806 1441 3553 
L 1441 3319 
L 2097 3319 
L 2097 2628 
L 1441 2628 
L 1441 0 
L 563 0 
L 563 2628 
L 75 2628 
L 75 3319 
z
" transform="scale(0.015625)"/>
     </defs>
     <use xlink:href="#Arial-BoldMT-43"/>
     <use xlink:href="#Arial-BoldMT-6c" transform="translate(72.216797 0)"/>
     <use xlink:href="#Arial-BoldMT-61" transform="translate(100 0)"/>
     <use xlink:href="#Arial-BoldMT-73" transform="translate(155.615234 0)"/>
     <use xlink:href="#Arial-BoldMT-73" transform="translate(211.230469 0)"/>
     <use xlink:href="#Arial-BoldMT-69" transform="translate(266.845703 0)"/>
     <use xlink:href="#Arial-BoldMT-66" transform="translate(294.628906 0)"/>
     <use xlink:href="#Arial-BoldMT-69" transform="translate(327.929688 0)"/>
     <use xlink:href="#Arial-BoldMT-65" transform="translate(355.712891 0)"/>
     <use xlink:href="#Arial-BoldMT-72" transform="translate(411.328125 0)"/>
    </g>
   </g>
   <g id="text_6">
    <!-- Readiness Agent -->
    <g style="fill: #1e293b" transform="translate(757.378641 228.549047) scale(0.11 -0.11)">
     <defs>
      <path id="Arial-BoldMT-52" d="M 469 0 
L 469 4581 
L 2416 4581 
Q 3150 4581 3483 4457 
Q 3816 4334 4016 4018 
Q 4216 3703 4216 3297 
Q 4216 2781 3912 2445 
Q 3609 2109 3006 2022 
Q 3306 1847 3501 1637 
Q 3697 1428 4028 894 
L 4588 0 
L 3481 0 
L 2813 997 
Q 2456 1531 2325 1670 
Q 2194 1809 2047 1861 
Q 1900 1913 1581 1913 
L 1394 1913 
L 1394 0 
L 469 0 
z
M 1394 2644 
L 2078 2644 
Q 2744 2644 2909 2700 
Q 3075 2756 3169 2893 
Q 3263 3031 3263 3238 
Q 3263 3469 3139 3611 
Q 3016 3753 2791 3791 
Q 2678 3806 2116 3806 
L 1394 3806 
L 1394 2644 
z
" transform="scale(0.015625)"/>
      <path id="Arial-BoldMT-41" d="M 4597 0 
L 3591 0 
L 3191 1041 
L 1359 1041 
L 981 0 
L 0 0 
L 1784 4581 
L 2763 4581 
L 4597 0 
z
M 2894 1813 
L 2263 3513 
L 1644 1813 
L 2894 1813 
z
" transform="scale(0.015625)"/>
     </defs>
     <use xlink:href="#Arial-BoldMT-52"/>
     <use xlink:href="#Arial-BoldMT-65" transform="translate(72.216797 0)"/>
     <use xlink:href="#Arial-BoldMT-61" transform="translate(127.832031 0)"/>
     <use xlink:href="#Arial-BoldMT-64" transform="translate(183.447266 0)"/>
     <use xlink:href="#Arial-BoldMT-69" transform="translate(244.53125 0)"/>
     <use xlink:href="#Arial-BoldMT-6e" transform="translate(272.314453 0)"/>
     <use xlink:href="#Arial-BoldMT-65" transform="translate(333.398438 0)"/>
     <use xlink:href="#Arial-BoldMT-73" transform="translate(389.013672 0)"/>
     <use xlink:href="#Arial-BoldMT-73" transform="translate(444.628906 0)"/>
     <use xlink:href="#Arial-BoldMT-20" transform="translate(500.244141 0)"/>
     <use xlink:href="#Arial-BoldMT-41" transform="translate(524.277344 0)"/>
     <use xlink:href="#Arial-BoldMT-67" transform="translate(596.494141 0)"/>
     <use xlink:href="#Arial-BoldMT-65" transform="translate(657.578125 0)"/>
     <use xlink:href="#Arial-BoldMT-6e" transform="translate(713.193359 0)"/>
     <use xlink:href="#Arial-BoldMT-74" transform="translate(774.277344 0)"/>
    </g>
    <!-- q = max softmax(cos/T) -->
    <g style="fill: #1e293b" transform="translate(740.514266 240.473391) scale(0.11 -0.11)">
     <defs>
      <path id="Arial-BoldMT-71" d="M 2628 -1263 
L 2628 406 
Q 2456 184 2200 54 
Q 1944 -75 1647 -75 
Q 1081 -75 716 350 
Q 284 847 284 1697 
Q 284 2497 689 2945 
Q 1094 3394 1694 3394 
Q 2025 3394 2267 3253 
Q 2509 3113 2697 2828 
L 2697 3319 
L 3506 3319 
L 3506 -1263 
L 2628 -1263 
z
M 2656 1700 
Q 2656 2209 2448 2457 
Q 2241 2706 1928 2706 
Q 1609 2706 1395 2453 
Q 1181 2200 1181 1650 
Q 1181 1103 1387 861 
Q 1594 619 1897 619 
Q 2200 619 2428 891 
Q 2656 1163 2656 1700 
z
" transform="scale(0.015625)"/>
      <path id="Arial-BoldMT-3d" d="M 266 2550 
L 266 3356 
L 3469 3356 
L 3469 2550 
L 266 2550 
z
M 266 1163 
L 266 1972 
L 3469 1972 
L 3469 1163 
L 266 1163 
z
" transform="scale(0.015625)"/>
      <path id="Arial-BoldMT-78" d="M 38 0 
L 1234 1709 
L 88 3319 
L 1159 3319 
L 1747 2406 
L 2366 3319 
L 3397 3319 
L 2272 1747 
L 3500 0 
L 2422 0 
L 1747 1028 
L 1066 0 
L 38 0 
z
" transform="scale(0.015625)"/>
      <path id="Arial-BoldMT-2f" d="M -9 -78 
L 1125 4659 
L 1784 4659 
L 638 -78 
L -9 -78 
z
" transform="scale(0.015625)"/>
      <path id="Arial-BoldMT-54" d="M 1497 0 
L 1497 3806 
L 138 3806 
L 138 4581 
L 3778 4581 
L 3778 3806 
L 2422 3806 
L 2422 0 
L 1497 0 
z
" transform="scale(0.015625)"/>
     </defs>
     <use xlink:href="#Arial-BoldMT-71"/>
     <use xlink:href="#Arial-BoldMT-20" transform="translate(61.083984 0)"/>
     <use xlink:href="#Arial-BoldMT-3d" transform="translate(88.867188 0)"/>
     <use xlink:href="#Arial-BoldMT-20" transform="translate(147.265625 0)"/>
     <use xlink:href="#Arial-BoldMT-6d" transform="translate(175.048828 0)"/>
     <use xlink:href="#Arial-BoldMT-61" transform="translate(263.964844 0)"/>
     <use xlink:href="#Arial-BoldMT-78" transform="translate(319.580078 0)"/>
     <use xlink:href="#Arial-BoldMT-20" transform="translate(375.195312 0)"/>
     <use xlink:href="#Arial-BoldMT-73" transform="translate(402.978516 0)"/>
     <use xlink:href="#Arial-BoldMT-6f" transform="translate(458.59375 0)"/>
     <use xlink:href="#Arial-BoldMT-66" transform="translate(519.677734 0)"/>
     <use xlink:href="#Arial-BoldMT-74" transform="translate(552.978516 0)"/>
     <use xlink:href="#Arial-BoldMT-6d" transform="translate(586.279297 0)"/>
     <use xlink:href="#Arial-BoldMT-61" transform="translate(675.195312 0)"/>
     <use xlink:href="#Arial-BoldMT-78" transform="translate(730.810547 0)"/>
     <use xlink:href="#Arial-BoldMT-28" transform="translate(786.425781 0)"/>
     <use xlink:href="#Arial-BoldMT-63" transform="translate(819.726562 0)"/>
     <use xlink:href="#Arial-BoldMT-6f" transform="translate(875.341797 0)"/>
     <use xlink:href="#Arial-BoldMT-73" transform="translate(936.425781 0)"/>
     <use xlink:href="#Arial-BoldMT-2f" transform="translate(992.041016 0)"/>
     <use xlink:href="#Arial-BoldMT-54" transform="translate(1019.824219 0)"/>
     <use xlink:href="#Arial-BoldMT-29" transform="translate(1080.908203 0)"/>
    </g>
   </g>
   <g id="patch_12">
    <path d="M 124.150997 231.732 
Q 154.512364 231.732 181.519629 231.732 
" style="fill: none; stroke: #1e293b; stroke-width: 3; stroke-linecap: round"/>
    <path d="M 176.719629 229.332 
L 181.519629 231.732 
L 176.719629 234.132 
z
" style="fill: #1e293b; stroke: #1e293b; stroke-width: 3; stroke-linecap: round"/>
   </g>
   <g id="patch_13">
    <path d="M 275.926997 231.732 
Q 306.288364 231.732 333.295629 231.732 
" style="fill: none; stroke: #1e293b; stroke-width: 3; stroke-linecap: round"/>
    <path d="M 328.495629 229.332 
L 333.295629 231.732 
L 328.495629 234.132 
z
" style="fill: #1e293b; stroke: #1e293b; stroke-width: 3; stroke-linecap: round"/>
   </g>
   <g id="patch_14">
    <path d="M 427.702997 231.732 
Q 458.064364 231.732 485.071629 231.732 
" style="fill: none; stroke: #1e293b; stroke-width: 3; stroke-linecap: round"/>
    <path d="M 480.271629 229.332 
L 485.071629 231.732 
L 480.271629 234.132 
z
" style="fill: #1e293b; stroke: #1e293b; stroke-width: 3; stroke-linecap: round"/>
   </g>
   <g id="patch_15">
    <path d="M 579.478997 231.732 
Q 609.840364 231.732 636.847629 231.732 
" style="fill: none; stroke: #1e293b; stroke-width: 3; stroke-linecap: round"/>
    <path d="M 632.047629 229.332 
L 636.847629 231.732 
L 632.047629 234.132 
z
" style="fill: #1e293b; stroke: #1e293b; stroke-width: 3; stroke-linecap: round"/>
   </g>
   <g id="patch_16">
    <path d="M 731.253226 231.732 
Q 743.75976 231.732 752.912193 231.732 
" style="fill: none; stroke: #1e293b; stroke-width: 3; stroke-linecap: round"/>
    <path d="M 748.112193 229.332 
L 752.912193 231.732 
L 748.112193 234.132 
z
" style="fill: #1e293b; stroke: #1e293b; stroke-width: 3; stroke-linecap: round"/>
   </g>
   <g id="patch_17">
    <path d="M 430.822538 230.81655 
Q 458.063662 216.763374 483.814373 203.479075 
" style="fill: none; stroke-dasharray: 5.55,2.4; stroke-dashoffset: 0; stroke: #94a3b8; stroke-width: 1.5; stroke-linecap: round"/>
    <path d="M 478.448238 203.546819 
L 483.814373 203.479075 
L 480.648888 207.81263 
z
" style="fill: #94a3b8; stroke-dasharray: 5.55,2.4; stroke-dashoffset: 0; stroke: #94a3b8; stroke-width: 1.5; stroke-linecap: round"/>
   </g>
   <g id="patch_18">
    <path d="M 430.886294 232.522284 
Q 458.065678 244.206721 483.704351 255.228806 
" style="fill: none; stroke-dasharray: 5.55,2.4; stroke-dashoffset: 0; stroke: #94a3b8; stroke-width: 1.5; stroke-linecap: round"/>
    <path d="M 480.242462 251.128157 
L 483.704351 255.228806 
L 478.346698 255.537928 
z
" style="fill: #94a3b8; stroke-dasharray: 5.55,2.4; stroke-dashoffset: 0; stroke: #94a3b8; stroke-width: 1.5; stroke-linecap: round"/>
   </g>
   <g id="patch_19">
    <path d="M 431.049226 231.732 
Q 458.064308 231.732 481.948894 231.732 
" style="fill: none; stroke: #7e57c2; stroke-width: 2.8; stroke-linecap: round"/>
    <path d="M 477.148894 229.332 
L 481.948894 231.732 
L 477.148894 234.132 
z
" style="fill: #7e57c2; stroke: #7e57c2; stroke-width: 2.8; stroke-linecap: round"/>
   </g>
   <g id="text_7">
    <!-- Deploy (q ≥ δ) ✓ -->
    <g style="fill: #1e293b" transform="translate(772.584844 144.5067) scale(0.1 -0.1)">
     <defs>
      <path id="Arial-BoldMT-44" d="M 463 4581 
L 2153 4581 
Q 2725 4581 3025 4494 
Q 3428 4375 3715 4072 
Q 4003 3769 4153 3330 
Q 4303 2891 4303 2247 
Q 4303 1681 4163 1272 
Q 3991 772 3672 463 
Q 3431 228 3022 97 
Q 2716 0 2203 0 
L 463 0 
L 463 4581 
z
M 1388 3806 
L 1388 772 
L 2078 772 
Q 2466 772 2638 816 
Q 2863 872 3011 1006 
Q 3159 1141 3253 1448 
Q 3347 1756 3347 2288 
Q 3347 2819 3253 3103 
Q 3159 3388 2990 3547 
Q 2822 3706 2563 3763 
Q 2369 3806 1803 3806 
L 1388 3806 
z
" transform="scale(0.015625)"/>
      <path id="Arial-BoldMT-2265" d="M 188 1056 
L 188 1938 
L 2381 2803 
L 188 3653 
L 188 4531 
L 3328 3175 
L 3328 2422 
L 188 1056 
z
M 188 0 
L 188 822 
L 3328 822 
L 3328 0 
L 188 0 
z
" transform="scale(0.015625)"/>
      <path id="Arial-BoldMT-3b4" d="M 553 4581 
L 3356 4581 
L 3356 3853 
L 1791 3853 
Q 2056 3606 2688 3184 
Q 3091 2913 3262 2720 
Q 3434 2528 3537 2239 
Q 3641 1950 3641 1634 
Q 3641 931 3209 428 
Q 2778 -75 1950 -75 
Q 1384 -75 1046 134 
Q 709 344 476 748 
Q 244 1153 244 1669 
Q 244 2269 587 2723 
Q 931 3178 1475 3269 
Q 1125 3516 1003 3613 
L 553 3963 
L 553 4581 
z
M 1091 1569 
Q 1091 1100 1336 848 
Q 1581 597 1934 597 
Q 2288 597 2541 861 
Q 2794 1125 2794 1600 
Q 2794 2078 2547 2340 
Q 2300 2603 1956 2603 
Q 1556 2603 1323 2314 
Q 1091 2025 1091 1569 
z
" transform="scale(0.015625)"/>
      <path id="Arial-BoldMT-2713" d="M 800 0 
L 800 4000 
L 4000 4000 
L 4000 0 
L 800 0 
z
M 900 100 
L 3900 100 
L 3900 3900 
L 900 3900 
L 900 100 
z
" transform="scale(0.015625)"/>
     </defs>
     <use xlink:href="#Arial-BoldMT-44"/>
     <use xlink:href="#Arial-BoldMT-65" transform="translate(72.216797 0)"/>
     <use xlink:href="#Arial-BoldMT-70" transform="translate(127.832031 0)"/>
     <use xlink:href="#Arial-BoldMT-6c" transform="translate(188.916016 0)"/>
     <use xlink:href="#Arial-BoldMT-6f" transform="translate(216.699219 0)"/>
     <use xlink:href="#Arial-BoldMT-79" transform="translate(277.783203 0)"/>
     <use xlink:href="#Arial-BoldMT-20" transform="translate(333.398438 0)"/>
     <use xlink:href="#Arial-BoldMT-28" transform="translate(361.181641 0)"/>
     <use xlink:href="#Arial-BoldMT-71" transform="translate(394.482422 0)"/>
     <use xlink:href="#Arial-BoldMT-20" transform="translate(455.566406 0)"/>
     <use xlink:href="#Arial-BoldMT-2265" transform="translate(483.349609 0)"/>
     <use xlink:href="#Arial-BoldMT-20" transform="translate(538.232422 0)"/>
     <use xlink:href="#Arial-BoldMT-3b4" transform="translate(566.015625 0)"/>
     <use xlink:href="#Arial-BoldMT-29" transform="translate(626.660156 0)"/>
     <use xlink:href="#Arial-BoldMT-20" transform="translate(659.960938 0)"/>
     <use xlink:href="#Arial-BoldMT-2713" transform="translate(687.744141 0)"/>
    </g>
   </g>
   <g id="text_8">
    <!-- Request Feedback (q &lt; δ) ? -->
    <g style="fill: #1e293b" transform="translate(767.915781 329.1219) scale(0.1 -0.1)">
     <defs>
      <path id="Arial-BoldMT-6b" d="M 428 0 
L 428 4581 
L 1306 4581 
L 1306 2150 
L 2334 3319 
L 3416 3319 
L 2281 2106 
L 3497 0 
L 2550 0 
L 1716 1491 
L 1306 1063 
L 1306 0 
L 428 0 
z
" transform="scale(0.015625)"/>
      <path id="Arial-BoldMT-3c" d="M 3438 522 
L 297 1888 
L 297 2644 
L 3438 4003 
L 3438 3113 
L 1247 2275 
L 3438 1406 
L 3438 522 
z
" transform="scale(0.015625)"/>
      <path id="Arial-BoldMT-3f" d="M 2347 1181 
L 1550 1181 
Q 1547 1353 1547 1391 
Q 1547 1778 1675 2028 
Q 1803 2278 2187 2590 
Q 2572 2903 2647 3000 
Q 2763 3153 2763 3338 
Q 2763 3594 2558 3776 
Q 2353 3959 2006 3959 
Q 1672 3959 1447 3768 
Q 1222 3578 1138 3188 
L 331 3288 
Q 366 3847 808 4237 
Q 1250 4628 1969 4628 
Q 2725 4628 3172 4233 
Q 3619 3838 3619 3313 
Q 3619 3022 3455 2762 
Q 3291 2503 2753 2056 
Q 2475 1825 2408 1684 
Q 2341 1544 2347 1181 
z
M 1550 0 
L 1550 878 
L 2428 878 
L 2428 0 
L 1550 0 
z
" transform="scale(0.015625)"/>
     </defs>
     <use xlink:href="#Arial-BoldMT-52"/>
     <use xlink:href="#Arial-BoldMT-65" transform="translate(72.216797 0)"/>
     <use xlink:href="#Arial-BoldMT-71" transform="translate(127.832031 0)"/>
     <use xlink:href="#Arial-BoldMT-75" transform="translate(188.916016 0)"/>
     <use xlink:href="#Arial-BoldMT-65" transform="translate(250 0)"/>
     <use xlink:href="#Arial-BoldMT-73" transform="translate(305.615234 0)"/>
     <use xlink:href="#Arial-BoldMT-74" transform="translate(361.230469 0)"/>
     <use xlink:href="#Arial-BoldMT-20" transform="translate(394.53125 0)"/>
     <use xlink:href="#Arial-BoldMT-46" transform="translate(422.314453 0)"/>
     <use xlink:href="#Arial-BoldMT-65" transform="translate(483.398438 0)"/>
     <use xlink:href="#Arial-BoldMT-65" transform="translate(539.013672 0)"/>
     <use xlink:href="#Arial-BoldMT-64" transform="translate(594.628906 0)"/>
     <use xlink:href="#Arial-BoldMT-62" transform="translate(655.712891 0)"/>
     <use xlink:href="#Arial-BoldMT-61" transform="translate(716.796875 0)"/>
     <use xlink:href="#Arial-BoldMT-63" transform="translate(772.412109 0)"/>
     <use xlink:href="#Arial-BoldMT-6b" transform="translate(828.027344 0)"/>
     <use xlink:href="#Arial-BoldMT-20" transform="translate(883.642578 0)"/>
     <use xlink:href="#Arial-BoldMT-28" transform="translate(911.425781 0)"/>
     <use xlink:href="#Arial-BoldMT-71" transform="translate(944.726562 0)"/>
     <use xlink:href="#Arial-BoldMT-20" transform="translate(1005.810547 0)"/>
     <use xlink:href="#Arial-BoldMT-3c" transform="translate(1033.59375 0)"/>
     <use xlink:href="#Arial-BoldMT-20" transform="translate(1091.992188 0)"/>
     <use xlink:href="#Arial-BoldMT-3b4" transform="translate(1119.775391 0)"/>
     <use xlink:href="#Arial-BoldMT-29" transform="translate(1180.419922 0)"/>
     <use xlink:href="#Arial-BoldMT-20" transform="translate(1213.720703 0)"/>
     <use xlink:href="#Arial-BoldMT-3f" transform="translate(1241.503906 0)"/>
    </g>
   </g>
   <g id="patch_20">
    <path d="M 867.072959 213.179894 
Q 812.952787 178.09431 761.647037 144.833289 
" style="fill: none; stroke: #2e7d32; stroke-width: 3; stroke-linecap: round"/>
    <path d="M 764.36916 149.458227 
L 761.647037 144.833289 
L 766.980261 145.430554 
z
" style="fill: #2e7d32; stroke: #2e7d32; stroke-width: 3; stroke-linecap: round"/>
   </g>
   <g id="patch_21">
    <path d="M 867.107017 250.335573 
Q 812.949943 287.866425 761.549692 323.486799 
" style="fill: none; stroke: #f9a825; stroke-width: 3; stroke-linecap: round"/>
    <path d="M 766.861963 322.725367 
L 761.549692 323.486799 
L 764.127909 318.780123 
z
" style="fill: #f9a825; stroke: #f9a825; stroke-width: 3; stroke-linecap: round"/>
   </g>
   <g id="text_9">
    <!-- Human (labeling) -->
    <g style="fill: #1e293b" transform="translate(680.886094 403.9659) scale(0.1 -0.1)">
     <defs>
      <path id="Arial-BoldMT-48" d="M 469 0 
L 469 4581 
L 1394 4581 
L 1394 2778 
L 3206 2778 
L 3206 4581 
L 4131 4581 
L 4131 0 
L 3206 0 
L 3206 2003 
L 1394 2003 
L 1394 0 
L 469 0 
z
" transform="scale(0.015625)"/>
     </defs>
     <use xlink:href="#Arial-BoldMT-48"/>
     <use xlink:href="#Arial-BoldMT-75" transform="translate(72.216797 0)"/>
     <use xlink:href="#Arial-BoldMT-6d" transform="translate(133.300781 0)"/>
     <use xlink:href="#Arial-BoldMT-61" transform="translate(222.216797 0)"/>
     <use xlink:href="#Arial-BoldMT-6e" transform="translate(277.832031 0)"/>
     <use xlink:href="#Arial-BoldMT-20" transform="translate(338.916016 0)"/>
     <use xlink:href="#Arial-BoldMT-28" transform="translate(366.699219 0)"/>
     <use xlink:href="#Arial-BoldMT-6c" transform="translate(400 0)"/>
     <use xlink:href="#Arial-BoldMT-61" transform="translate(427.783203 0)"/>
     <use xlink:href="#Arial-BoldMT-62" transform="translate(483.398438 0)"/>
     <use xlink:href="#Arial-BoldMT-65" transform="translate(544.482422 0)"/>
     <use xlink:href="#Arial-BoldMT-6c" transform="translate(600.097656 0)"/>
     <use xlink:href="#Arial-BoldMT-69" transform="translate(627.880859 0)"/>
     <use xlink:href="#Arial-BoldMT-6e" transform="translate(655.664062 0)"/>
     <use xlink:href="#Arial-BoldMT-67" transform="translate(716.748047 0)"/>
     <use xlink:href="#Arial-BoldMT-29" transform="translate(777.832031 0)"/>
    </g>
   </g>
   <g id="patch_22">
    <path d="M 773.47459 342.788668 
Q 748.224284 363.956162 725.115974 383.328007 
" style="fill: none; stroke-dasharray: 9.25,4; stroke-dashoffset: 0; stroke: #f9a825; stroke-width: 2.5; stroke-linecap: round"/>
    <path d="M 730.336258 382.083564 
L 725.115974 383.328007 
L 727.25259 378.405114 
z
" style="fill: #f9a825; stroke-dasharray: 9.25,4; stroke-dashoffset: 0; stroke: #f9a825; stroke-width: 2.5; stroke-linecap: round"/>
   </g>
   <g id="text_10">
    <!-- Human correction → Memory update (Δcₖ) -->
    <g style="fill: #7e57c2" transform="translate(632.16 366.4512) scale(0.1 -0.1)">
     <defs>
      <path id="ArialMT-48" d="M 513 0 
L 513 4581 
L 1119 4581 
L 1119 2700 
L 3500 2700 
L 3500 4581 
L 4106 4581 
L 4106 0 
L 3500 0 
L 3500 2159 
L 1119 2159 
L 1119 0 
L 513 0 
z
" transform="scale(0.015625)"/>
      <path id="ArialMT-75" d="M 2597 0 
L 2597 488 
Q 2209 -75 1544 -75 
Q 1250 -75 995 37 
Q 741 150 617 320 
Q 494 491 444 738 
Q 409 903 409 1263 
L 409 3319 
L 972 3319 
L 972 1478 
Q 972 1038 1006 884 
Q 1059 663 1231 536 
Q 1403 409 1656 409 
Q 1909 409 2131 539 
Q 2353 669 2445 892 
Q 2538 1116 2538 1541 
L 2538 3319 
L 3100 3319 
L 3100 0 
L 2597 0 
z
" transform="scale(0.015625)"/>
      <path id="ArialMT-6d" d="M 422 0 
L 422 3319 
L 925 3319 
L 925 2853 
Q 1081 3097 1340 3245 
Q 1600 3394 1931 3394 
Q 2300 3394 2536 3241 
Q 2772 3088 2869 2813 
Q 3263 3394 3894 3394 
Q 4388 3394 4653 3120 
Q 4919 2847 4919 2278 
L 4919 0 
L 4359 0 
L 4359 2091 
Q 4359 2428 4304 2576 
Q 4250 2725 4106 2815 
Q 3963 2906 3769 2906 
Q 3419 2906 3187 2673 
Q 2956 2441 2956 1928 
L 2956 0 
L 2394 0 
L 2394 2156 
Q 2394 2531 2256 2718 
Q 2119 2906 1806 2906 
Q 1569 2906 1367 2781 
Q 1166 2656 1075 2415 
Q 984 2175 984 1722 
L 984 0 
L 422 0 
z
" transform="scale(0.015625)"/>
      <path id="ArialMT-61" d="M 2588 409 
Q 2275 144 1986 34 
Q 1697 -75 1366 -75 
Q 819 -75 525 192 
Q 231 459 231 875 
Q 231 1119 342 1320 
Q 453 1522 633 1644 
Q 813 1766 1038 1828 
Q 1203 1872 1538 1913 
Q 2219 1994 2541 2106 
Q 2544 2222 2544 2253 
Q 2544 2597 2384 2738 
Q 2169 2928 1744 2928 
Q 1347 2928 1158 2789 
Q 969 2650 878 2297 
L 328 2372 
Q 403 2725 575 2942 
Q 747 3159 1072 3276 
Q 1397 3394 1825 3394 
Q 2250 3394 2515 3294 
Q 2781 3194 2906 3042 
Q 3031 2891 3081 2659 
Q 3109 2516 3109 2141 
L 3109 1391 
Q 3109 606 3145 398 
Q 3181 191 3288 0 
L 2700 0 
Q 2613 175 2588 409 
z
M 2541 1666 
Q 2234 1541 1622 1453 
Q 1275 1403 1131 1340 
Q 988 1278 909 1158 
Q 831 1038 831 891 
Q 831 666 1001 516 
Q 1172 366 1500 366 
Q 1825 366 2078 508 
Q 2331 650 2450 897 
Q 2541 1088 2541 1459 
L 2541 1666 
z
" transform="scale(0.015625)"/>
      <path id="ArialMT-6e" d="M 422 0 
L 422 3319 
L 928 3319 
L 928 2847 
Q 1294 3394 1984 3394 
Q 2284 3394 2536 3286 
Q 2788 3178 2913 3003 
Q 3038 2828 3088 2588 
Q 3119 2431 3119 2041 
L 3119 0 
L 2556 0 
L 2556 2019 
Q 2556 2363 2490 2533 
Q 2425 2703 2258 2804 
Q 2091 2906 1866 2906 
Q 1506 2906 1245 2678 
Q 984 2450 984 1813 
L 984 0 
L 422 0 
z
" transform="scale(0.015625)"/>
      <path id="ArialMT-20" transform="scale(0.015625)"/>
      <path id="ArialMT-63" d="M 2588 1216 
L 3141 1144 
Q 3050 572 2676 248 
Q 2303 -75 1759 -75 
Q 1078 -75 664 370 
Q 250 816 250 1647 
Q 250 2184 428 2587 
Q 606 2991 970 3192 
Q 1334 3394 1763 3394 
Q 2303 3394 2647 3120 
Q 2991 2847 3088 2344 
L 2541 2259 
Q 2463 2594 2264 2762 
Q 2066 2931 1784 2931 
Q 1359 2931 1093 2626 
Q 828 2322 828 1663 
Q 828 994 1084 691 
Q 1341 388 1753 388 
Q 2084 388 2306 591 
Q 2528 794 2588 1216 
z
" transform="scale(0.015625)"/>
      <path id="ArialMT-6f" d="M 213 1659 
Q 213 2581 725 3025 
Q 1153 3394 1769 3394 
Q 2453 3394 2887 2945 
Q 3322 2497 3322 1706 
Q 3322 1066 3130 698 
Q 2938 331 2570 128 
Q 2203 -75 1769 -75 
Q 1072 -75 642 372 
Q 213 819 213 1659 
z
M 791 1659 
Q 791 1022 1069 705 
Q 1347 388 1769 388 
Q 2188 388 2466 706 
Q 2744 1025 2744 1678 
Q 2744 2294 2464 2611 
Q 2184 2928 1769 2928 
Q 1347 2928 1069 2612 
Q 791 2297 791 1659 
z
" transform="scale(0.015625)"/>
      <path id="ArialMT-72" d="M 416 0 
L 416 3319 
L 922 3319 
L 922 2816 
Q 1116 3169 1280 3281 
Q 1444 3394 1641 3394 
Q 1925 3394 2219 3213 
L 2025 2691 
Q 1819 2813 1613 2813 
Q 1428 2813 1281 2702 
Q 1134 2591 1072 2394 
Q 978 2094 978 1738 
L 978 0 
L 416 0 
z
" transform="scale(0.015625)"/>
      <path id="ArialMT-65" d="M 2694 1069 
L 3275 997 
Q 3138 488 2766 206 
Q 2394 -75 1816 -75 
Q 1088 -75 661 373 
Q 234 822 234 1631 
Q 234 2469 665 2931 
Q 1097 3394 1784 3394 
Q 2450 3394 2872 2941 
Q 3294 2488 3294 1666 
Q 3294 1616 3291 1516 
L 816 1516 
Q 847 969 1125 678 
Q 1403 388 1819 388 
Q 2128 388 2347 550 
Q 2566 713 2694 1069 
z
M 847 1978 
L 2700 1978 
Q 2663 2397 2488 2606 
Q 2219 2931 1791 2931 
Q 1403 2931 1139 2672 
Q 875 2413 847 1978 
z
" transform="scale(0.015625)"/>
      <path id="ArialMT-74" d="M 1650 503 
L 1731 6 
Q 1494 -44 1306 -44 
Q 1000 -44 831 53 
Q 663 150 594 308 
Q 525 466 525 972 
L 525 2881 
L 113 2881 
L 113 3319 
L 525 3319 
L 525 4141 
L 1084 4478 
L 1084 3319 
L 1650 3319 
L 1650 2881 
L 1084 2881 
L 1084 941 
Q 1084 700 1114 631 
Q 1144 563 1211 522 
Q 1278 481 1403 481 
Q 1497 481 1650 503 
z
" transform="scale(0.015625)"/>
      <path id="ArialMT-69" d="M 425 3934 
L 425 4581 
L 988 4581 
L 988 3934 
L 425 3934 
z
M 425 0 
L 425 3319 
L 988 3319 
L 988 0 
L 425 0 
z
" transform="scale(0.015625)"/>
      <path id="ArialMT-2192" d="M 4859 2738 
Q 5275 2284 5578 2048 
Q 5881 1813 6150 1697 
L 6150 1556 
Q 5841 1406 5550 1173 
Q 5259 941 4856 491 
L 4616 491 
Q 4909 1119 5231 1456 
L 247 1456 
L 247 1772 
L 5231 1772 
Q 4994 2075 4900 2222 
Q 4806 2369 4622 2738 
L 4859 2738 
z
" transform="scale(0.015625)"/>
      <path id="ArialMT-4d" d="M 475 0 
L 475 4581 
L 1388 4581 
L 2472 1338 
Q 2622 884 2691 659 
Q 2769 909 2934 1394 
L 4031 4581 
L 4847 4581 
L 4847 0 
L 4263 0 
L 4263 3834 
L 2931 0 
L 2384 0 
L 1059 3900 
L 1059 0 
L 475 0 
z
" transform="scale(0.015625)"/>
      <path id="ArialMT-79" d="M 397 -1278 
L 334 -750 
Q 519 -800 656 -800 
Q 844 -800 956 -737 
Q 1069 -675 1141 -563 
Q 1194 -478 1313 -144 
Q 1328 -97 1363 -6 
L 103 3319 
L 709 3319 
L 1400 1397 
Q 1534 1031 1641 628 
Q 1738 1016 1872 1384 
L 2581 3319 
L 3144 3319 
L 1881 -56 
Q 1678 -603 1566 -809 
Q 1416 -1088 1222 -1217 
Q 1028 -1347 759 -1347 
Q 597 -1347 397 -1278 
z
" transform="scale(0.015625)"/>
      <path id="ArialMT-70" d="M 422 -1272 
L 422 3319 
L 934 3319 
L 934 2888 
Q 1116 3141 1344 3267 
Q 1572 3394 1897 3394 
Q 2322 3394 2647 3175 
Q 2972 2956 3137 2557 
Q 3303 2159 3303 1684 
Q 3303 1175 3120 767 
Q 2938 359 2589 142 
Q 2241 -75 1856 -75 
Q 1575 -75 1351 44 
Q 1128 163 984 344 
L 984 -1272 
L 422 -1272 
z
M 931 1641 
Q 931 1000 1190 694 
Q 1450 388 1819 388 
Q 2194 388 2461 705 
Q 2728 1022 2728 1688 
Q 2728 2322 2467 2637 
Q 2206 2953 1844 2953 
Q 1484 2953 1207 2617 
Q 931 2281 931 1641 
z
" transform="scale(0.015625)"/>
      <path id="ArialMT-64" d="M 2575 0 
L 2575 419 
Q 2259 -75 1647 -75 
Q 1250 -75 917 144 
Q 584 363 401 755 
Q 219 1147 219 1656 
Q 219 2153 384 2558 
Q 550 2963 881 3178 
Q 1213 3394 1622 3394 
Q 1922 3394 2156 3267 
Q 2391 3141 2538 2938 
L 2538 4581 
L 3097 4581 
L 3097 0 
L 2575 0 
z
M 797 1656 
Q 797 1019 1065 703 
Q 1334 388 1700 388 
Q 2069 388 2326 689 
Q 2584 991 2584 1609 
Q 2584 2291 2321 2609 
Q 2059 2928 1675 2928 
Q 1300 2928 1048 2622 
Q 797 2316 797 1656 
z
" transform="scale(0.015625)"/>
      <path id="ArialMT-28" d="M 1497 -1347 
Q 1031 -759 709 28 
Q 388 816 388 1659 
Q 388 2403 628 3084 
Q 909 3875 1497 4659 
L 1900 4659 
Q 1522 4009 1400 3731 
Q 1209 3300 1100 2831 
Q 966 2247 966 1656 
Q 966 153 1900 -1347 
L 1497 -1347 
z
" transform="scale(0.015625)"/>
      <path id="ArialMT-394" d="M -6 0 
L 1753 4581 
L 2406 4581 
L 4281 0 
L -6 0 
z
M 834 541 
L 3381 541 
L 2391 3150 
Q 2169 3738 2066 4100 
Q 1981 3675 1819 3225 
L 834 541 
z
" transform="scale(0.015625)"/>
      <path id="ArialMT-2096" d="M 800 0 
L 800 4000 
L 4000 4000 
L 4000 0 
L 800 0 
z
M 900 100 
L 3900 100 
L 3900 3900 
L 900 3900 
L 900 100 
z
" transform="scale(0.015625)"/>
      <path id="ArialMT-29" d="M 791 -1347 
L 388 -1347 
Q 1322 153 1322 1656 
Q 1322 2244 1188 2822 
Q 1081 3291 891 3722 
Q 769 4003 388 4659 
L 791 4659 
Q 1378 3875 1659 3084 
Q 1900 2403 1900 1659 
Q 1900 816 1576 28 
Q 1253 -759 791 -1347 
z
" transform="scale(0.015625)"/>
     </defs>
     <use xlink:href="#ArialMT-48"/>
     <use xlink:href="#ArialMT-75" transform="translate(72.216797 0)"/>
     <use xlink:href="#ArialMT-6d" transform="translate(127.832031 0)"/>
     <use xlink:href="#ArialMT-61" transform="translate(211.132812 0)"/>
     <use xlink:href="#ArialMT-6e" transform="translate(266.748047 0)"/>
     <use xlink:href="#ArialMT-20" transform="translate(322.363281 0)"/>
     <use xlink:href="#ArialMT-63" transform="translate(350.146484 0)"/>
     <use xlink:href="#ArialMT-6f" transform="translate(400.146484 0)"/>
     <use xlink:href="#ArialMT-72" transform="translate(455.761719 0)"/>
     <use xlink:href="#ArialMT-72" transform="translate(489.0625 0)"/>
     <use xlink:href="#ArialMT-65" transform="translate(522.363281 0)"/>
     <use xlink:href="#ArialMT-63" transform="translate(577.978516 0)"/>
     <use xlink:href="#ArialMT-74" transform="translate(627.978516 0)"/>
     <use xlink:href="#ArialMT-69" transform="translate(655.761719 0)"/>
     <use xlink:href="#ArialMT-6f" transform="translate(677.978516 0)"/>
     <use xlink:href="#ArialMT-6e" transform="translate(733.59375 0)"/>
     <use xlink:href="#ArialMT-20" transform="translate(789.208984 0)"/>
     <use xlink:href="#ArialMT-2192" transform="translate(816.992188 0)"/>
     <use xlink:href="#ArialMT-20" transform="translate(916.992188 0)"/>
     <use xlink:href="#ArialMT-4d" transform="translate(944.775391 0)"/>
     <use xlink:href="#ArialMT-65" transform="translate(1028.076172 0)"/>
     <use xlink:href="#ArialMT-6d" transform="translate(1083.691406 0)"/>
     <use xlink:href="#ArialMT-6f" transform="translate(1166.992188 0)"/>
     <use xlink:href="#ArialMT-72" transform="translate(1222.607422 0)"/>
     <use xlink:href="#ArialMT-79" transform="translate(1255.908203 0)"/>
     <use xlink:href="#ArialMT-20" transform="translate(1305.908203 0)"/>
     <use xlink:href="#ArialMT-75" transform="translate(1333.691406 0)"/>
     <use xlink:href="#ArialMT-70" transform="translate(1389.306641 0)"/>
     <use xlink:href="#ArialMT-64" transform="translate(1444.921875 0)"/>
     <use xlink:href="#ArialMT-61" transform="translate(1500.537109 0)"/>
     <use xlink:href="#ArialMT-74" transform="translate(1556.152344 0)"/>
     <use xlink:href="#ArialMT-65" transform="translate(1583.935547 0)"/>
     <use xlink:href="#ArialMT-20" transform="translate(1639.550781 0)"/>
     <use xlink:href="#ArialMT-28" transform="translate(1667.333984 0)"/>
     <use xlink:href="#ArialMT-394" transform="translate(1700.634766 0)"/>
     <use xlink:href="#ArialMT-63" transform="translate(1767.431641 0)"/>
     <use xlink:href="#ArialMT-2096" transform="translate(1817.431641 0)"/>
     <use xlink:href="#ArialMT-29" transform="translate(1892.431641 0)"/>
    </g>
   </g>
   <g id="text_11">
    <!-- CALM: Pipeline + Micro-Insets -->
    <g style="fill: #1e293b" transform="translate(25.056 32.148) scale(0.16 -0.16)">
     <defs>
      <path id="Arial-BoldMT-3a" d="M 628 2441 
L 628 3319 
L 1506 3319 
L 1506 2441 
L 628 2441 
z
M 628 0 
L 628 878 
L 1506 878 
L 1506 0 
L 628 0 
z
" transform="scale(0.015625)"/>
      <path id="Arial-BoldMT-2b" d="M 1466 659 
L 1466 1850 
L 266 1850 
L 266 2672 
L 1466 2672 
L 1466 3863 
L 2266 3863 
L 2266 2672 
L 3469 2672 
L 3469 1850 
L 2266 1850 
L 2266 659 
L 1466 659 
z
" transform="scale(0.015625)"/>
     </defs>
     <use xlink:href="#Arial-BoldMT-43"/>
     <use xlink:href="#Arial-BoldMT-41" transform="translate(72.216797 0)"/>
     <use xlink:href="#Arial-BoldMT-4c" transform="translate(144.433594 0)"/>
     <use xlink:href="#Arial-BoldMT-4d" transform="translate(205.517578 0)"/>
     <use xlink:href="#Arial-BoldMT-3a" transform="translate(288.818359 0)"/>
     <use xlink:href="#Arial-BoldMT-20" transform="translate(322.119141 0)"/>
     <use xlink:href="#Arial-BoldMT-50" transform="translate(349.902344 0)"/>
     <use xlink:href="#Arial-BoldMT-69" transform="translate(416.601562 0)"/>
     <use xlink:href="#Arial-BoldMT-70" transform="translate(444.384766 0)"/>
     <use xlink:href="#Arial-BoldMT-65" transform="translate(505.46875 0)"/>
     <use xlink:href="#Arial-BoldMT-6c" transform="translate(561.083984 0)"/>
     <use xlink:href="#Arial-BoldMT-69" transform="translate(588.867188 0)"/>
     <use xlink:href="#Arial-BoldMT-6e" transform="translate(616.650391 0)"/>
     <use xlink:href="#Arial-BoldMT-65" transform="translate(677.734375 0)"/>
     <use xlink:href="#Arial-BoldMT-20" transform="translate(733.349609 0)"/>
     <use xlink:href="#Arial-BoldMT-2b" transform="translate(761.132812 0)"/>
     <use xlink:href="#Arial-BoldMT-20" transform="translate(819.53125 0)"/>
     <use xlink:href="#Arial-BoldMT-4d" transform="translate(847.314453 0)"/>
     <use xlink:href="#Arial-BoldMT-69" transform="translate(930.615234 0)"/>
     <use xlink:href="#Arial-BoldMT-63" transform="translate(958.398438 0)"/>
     <use xlink:href="#Arial-BoldMT-72" transform="translate(1014.013672 0)"/>
     <use xlink:href="#Arial-BoldMT-6f" transform="translate(1052.929688 0)"/>
     <use xlink:href="#Arial-BoldMT-2d" transform="translate(1114.013672 0)"/>
     <use xlink:href="#Arial-BoldMT-49" transform="translate(1147.314453 0)"/>
     <use xlink:href="#Arial-BoldMT-6e" transform="translate(1175.097656 0)"/>
     <use xlink:href="#Arial-BoldMT-73" transform="translate(1236.181641 0)"/>
     <use xlink:href="#Arial-BoldMT-65" transform="translate(1291.796875 0)"/>
     <use xlink:href="#Arial-BoldMT-74" transform="translate(1347.412109 0)"/>
     <use xlink:href="#Arial-BoldMT-73" transform="translate(1380.712891 0)"/>
    </g>
   </g>
   <g id="axes_2">
    <g id="patch_23">
     <path d="M 641.088 116.9712 
L 819.648 116.9712 
L 819.648 32.148 
L 641.088 32.148 
z
" style="fill: #ffffff"/>
    </g>
    <g id="matplotlib.axis_1"/>
    <g id="matplotlib.axis_2"/>
    <g id="PathCollection_1">
     <defs>
      <path id="C0_0_d4635b441c" d="M 0 1.581139 
C 0.419323 1.581139 0.821528 1.41454 1.118034 1.118034 
C 1.41454 0.821528 1.581139 0.419323 1.581139 -0 
C 1.581139 -0.419323 1.41454 -0.821528 1.118034 -1.118034 
C 0.821528 -1.41454 0.419323 -1.581139 0 -1.581139 
C -0.419323 -1.581139 -0.821528 -1.41454 -1.118034 -1.118034 
C -1.41454 -0.821528 -1.581139 -0.419323 -1.581139 0 
C -1.581139 0.419323 -1.41454 0.821528 -1.118034 1.118034 
C -0.821528 1.41454 -0.419323 1.581139 0 1.581139 
z
"/>
     </defs>
     <g clip-path="url(#p6315a37dd9)">
      <use xlink:href="#C0_0_d4635b441c" x="696.060356" y="65.530487" style="fill: #cfd8dc; fill-opacity: 0.8"/>
     </g>
     <g clip-path="url(#p6315a37dd9)">
      <use xlink:href="#C0_0_d4635b441c" x="656.136869" y="44.200271" style="fill: #cfd8dc; fill-opacity: 0.8"/>
     </g>
     <g clip-path="url(#p6315a37dd9)">
      <use xlink:href="#C0_0_d4635b441c" x="664.095395" y="75.40617" style="fill: #cfd8dc; fill-opacity: 0.8"/>
     </g>
     <g clip-path="url(#p6315a37dd9)">
      <use xlink:href="#C0_0_d4635b441c" x="717.41338" y="80.479804" style="fill: #cfd8dc; fill-opacity: 0.8"/>
     </g>
     <g clip-path="url(#p6315a37dd9)">
      <use xlink:href="#C0_0_d4635b441c" x="681.17252" y="76.251819" style="fill: #cfd8dc; fill-opacity: 0.8"/>
     </g>
     <g clip-path="url(#p6315a37dd9)">
      <use xlink:href="#C0_0_d4635b441c" x="718.541183" y="36.0036" style="fill: #cfd8dc; fill-opacity: 0.8"/>
     </g>
     <g clip-path="url(#p6315a37dd9)">
      <use xlink:href="#C0_0_d4635b441c" x="706.70152" y="78.8785" style="fill: #cfd8dc; fill-opacity: 0.8"/>
     </g>
     <g clip-path="url(#p6315a37dd9)">
      <use xlink:href="#C0_0_d4635b441c" x="718.253368" y="72.318447" style="fill: #cfd8dc; fill-opacity: 0.8"/>
     </g>
     <g clip-path="url(#p6315a37dd9)">
      <use xlink:href="#C0_0_d4635b441c" x="705.292831" y="50.050009" style="fill: #cfd8dc; fill-opacity: 0.8"/>
     </g>
     <g clip-path="url(#p6315a37dd9)">
      <use xlink:href="#C0_0_d4635b441c" x="688.37227" y="64.709583" style="fill: #cfd8dc; fill-opacity: 0.8"/>
     </g>
     <g clip-path="url(#p6315a37dd9)">
      <use xlink:href="#C0_0_d4635b441c" x="685.348309" y="66.78987" style="fill: #cfd8dc; fill-opacity: 0.8"/>
     </g>
     <g clip-path="url(#p6315a37dd9)">
      <use xlink:href="#C0_0_d4635b441c" x="711.694307" y="77.254769" style="fill: #cfd8dc; fill-opacity: 0.8"/>
     </g>
     <g clip-path="url(#p6315a37dd9)">
      <use xlink:href="#C0_0_d4635b441c" x="697.869942" y="67.792548" style="fill: #cfd8dc; fill-opacity: 0.8"/>
     </g>
     <g clip-path="url(#p6315a37dd9)">
      <use xlink:href="#C0_0_d4635b441c" x="690.931364" y="79.754658" style="fill: #cfd8dc; fill-opacity: 0.8"/>
     </g>
     <g clip-path="url(#p6315a37dd9)">
      <use xlink:href="#C0_0_d4635b441c" x="672.737901" y="66.752919" style="fill: #cfd8dc; fill-opacity: 0.8"/>
     </g>
     <g clip-path="url(#p6315a37dd9)">
      <use xlink:href="#C0_0_d4635b441c" x="699.48981" y="36.768544" style="fill: #cfd8dc; fill-opacity: 0.8"/>
     </g>
     <g clip-path="url(#p6315a37dd9)">
      <use xlink:href="#C0_0_d4635b441c" x="649.204364" y="63.405768" style="fill: #cfd8dc; fill-opacity: 0.8"/>
     </g>
     <g clip-path="url(#p6315a37dd9)">
      <use xlink:href="#C0_0_d4635b441c" x="714.338339" y="47.728661" style="fill: #cfd8dc; fill-opacity: 0.8"/>
     </g>
     <g clip-path="url(#p6315a37dd9)">
      <use xlink:href="#C0_0_d4635b441c" x="717.389599" y="75.437179" style="fill: #cfd8dc; fill-opacity: 0.8"/>
     </g>
     <g clip-path="url(#p6315a37dd9)">
      <use xlink:href="#C0_0_d4635b441c" x="705.737247" y="58.004169" style="fill: #cfd8dc; fill-opacity: 0.8"/>
     </g>
     <g clip-path="url(#p6315a37dd9)">
      <use xlink:href="#C0_0_d4635b441c" x="777.067297" y="46.267586" style="fill: #cfd8dc; fill-opacity: 0.8"/>
     </g>
     <g clip-path="url(#p6315a37dd9)">
      <use xlink:href="#C0_0_d4635b441c" x="746.987535" y="36.207541" style="fill: #cfd8dc; fill-opacity: 0.8"/>
     </g>
     <g clip-path="url(#p6315a37dd9)">
      <use xlink:href="#C0_0_d4635b441c" x="811.531636" y="57.86273" style="fill: #cfd8dc; fill-opacity: 0.8"/>
     </g>
     <g clip-path="url(#p6315a37dd9)">
      <use xlink:href="#C0_0_d4635b441c" x="794.962287" y="53.843125" style="fill: #cfd8dc; fill-opacity: 0.8"/>
     </g>
     <g clip-path="url(#p6315a37dd9)">
      <use xlink:href="#C0_0_d4635b441c" x="767.09038" y="53.42676" style="fill: #cfd8dc; fill-opacity: 0.8"/>
     </g>
     <g clip-path="url(#p6315a37dd9)">
      <use xlink:href="#C0_0_d4635b441c" x="802.48957" y="58.338559" style="fill: #cfd8dc; fill-opacity: 0.8"/>
     </g>
     <g clip-path="url(#p6315a37dd9)">
      <use xlink:href="#C0_0_d4635b441c" x="775.864533" y="55.125983" style="fill: #cfd8dc; fill-opacity: 0.8"/>
     </g>
     <g clip-path="url(#p6315a37dd9)">
      <use xlink:href="#C0_0_d4635b441c" x="791.521158" y="40.951731" style="fill: #cfd8dc; fill-opacity: 0.8"/>
     </g>
     <g clip-path="url(#p6315a37dd9)">
      <use xlink:href="#C0_0_d4635b441c" x="770.852927" y="49.019095" style="fill: #cfd8dc; fill-opacity: 0.8"/>
     </g>
     <g clip-path="url(#p6315a37dd9)">
      <use xlink:href="#C0_0_d4635b441c" x="787.315045" y="73.819018" style="fill: #cfd8dc; fill-opacity: 0.8"/>
     </g>
     <g clip-path="url(#p6315a37dd9)">
      <use xlink:href="#C0_0_d4635b441c" x="775.020002" y="55.732182" style="fill: #cfd8dc; fill-opacity: 0.8"/>
     </g>
     <g clip-path="url(#p6315a37dd9)">
      <use xlink:href="#C0_0_d4635b441c" x="782.367748" y="50.930084" style="fill: #cfd8dc; fill-opacity: 0.8"/>
     </g>
     <g clip-path="url(#p6315a37dd9)">
      <use xlink:href="#C0_0_d4635b441c" x="743.654994" y="53.861094" style="fill: #cfd8dc; fill-opacity: 0.8"/>
     </g>
     <g clip-path="url(#p6315a37dd9)">
      <use xlink:href="#C0_0_d4635b441c" x="770.020988" y="69.427202" style="fill: #cfd8dc; fill-opacity: 0.8"/>
     </g>
     <g clip-path="url(#p6315a37dd9)">
      <use xlink:href="#C0_0_d4635b441c" x="793.278057" y="46.641964" style="fill: #cfd8dc; fill-opacity: 0.8"/>
     </g>
     <g clip-path="url(#p6315a37dd9)">
      <use xlink:href="#C0_0_d4635b441c" x="770.493596" y="45.519039" style="fill: #cfd8dc; fill-opacity: 0.8"/>
     </g>
     <g clip-path="url(#p6315a37dd9)">
      <use xlink:href="#C0_0_d4635b441c" x="775.751398" y="53.649101" style="fill: #cfd8dc; fill-opacity: 0.8"/>
     </g>
     <g clip-path="url(#p6315a37dd9)">
      <use xlink:href="#C0_0_d4635b441c" x="761.873793" y="37.744539" style="fill: #cfd8dc; fill-opacity: 0.8"/>
     </g>
     <g clip-path="url(#p6315a37dd9)">
      <use xlink:href="#C0_0_d4635b441c" x="731.675459" y="55.303907" style="fill: #cfd8dc; fill-opacity: 0.8"/>
     </g>
     <g clip-path="url(#p6315a37dd9)">
      <use xlink:href="#C0_0_d4635b441c" x="796.583331" y="75.651022" style="fill: #cfd8dc; fill-opacity: 0.8"/>
     </g>
     <g clip-path="url(#p6315a37dd9)">
      <use xlink:href="#C0_0_d4635b441c" x="750.810302" y="91.744513" style="fill: #cfd8dc; fill-opacity: 0.8"/>
     </g>
     <g clip-path="url(#p6315a37dd9)">
      <use xlink:href="#C0_0_d4635b441c" x="768.471286" y="79.246231" style="fill: #cfd8dc; fill-opacity: 0.8"/>
     </g>
     <g clip-path="url(#p6315a37dd9)">
      <use xlink:href="#C0_0_d4635b441c" x="747.076301" y="104.071822" style="fill: #cfd8dc; fill-opacity: 0.8"/>
     </g>
     <g clip-path="url(#p6315a37dd9)">
      <use xlink:href="#C0_0_d4635b441c" x="777.919045" y="79.532205" style="fill: #cfd8dc; fill-opacity: 0.8"/>
     </g>
     <g clip-path="url(#p6315a37dd9)">
      <use xlink:href="#C0_0_d4635b441c" x="746.064309" y="87.707637" style="fill: #cfd8dc; fill-opacity: 0.8"/>
     </g>
     <g clip-path="url(#p6315a37dd9)">
      <use xlink:href="#C0_0_d4635b441c" x="760.759644" y="85.676625" style="fill: #cfd8dc; fill-opacity: 0.8"/>
     </g>
     <g clip-path="url(#p6315a37dd9)">
      <use xlink:href="#C0_0_d4635b441c" x="757.665871" y="77.751798" style="fill: #cfd8dc; fill-opacity: 0.8"/>
     </g>
     <g clip-path="url(#p6315a37dd9)">
      <use xlink:href="#C0_0_d4635b441c" x="723.844607" y="81.201825" style="fill: #cfd8dc; fill-opacity: 0.8"/>
     </g>
     <g clip-path="url(#p6315a37dd9)">
      <use xlink:href="#C0_0_d4635b441c" x="760.735364" y="93.06387" style="fill: #cfd8dc; fill-opacity: 0.8"/>
     </g>
     <g clip-path="url(#p6315a37dd9)">
      <use xlink:href="#C0_0_d4635b441c" x="774.54585" y="113.1156" style="fill: #cfd8dc; fill-opacity: 0.8"/>
     </g>
     <g clip-path="url(#p6315a37dd9)">
      <use xlink:href="#C0_0_d4635b441c" x="774.336705" y="87.375813" style="fill: #cfd8dc; fill-opacity: 0.8"/>
     </g>
     <g clip-path="url(#p6315a37dd9)">
      <use xlink:href="#C0_0_d4635b441c" x="734.377163" y="86.932486" style="fill: #cfd8dc; fill-opacity: 0.8"/>
     </g>
     <g clip-path="url(#p6315a37dd9)">
      <use xlink:href="#C0_0_d4635b441c" x="748.814338" y="66.638091" style="fill: #cfd8dc; fill-opacity: 0.8"/>
     </g>
     <g clip-path="url(#p6315a37dd9)">
      <use xlink:href="#C0_0_d4635b441c" x="786.070578" y="86.860846" style="fill: #cfd8dc; fill-opacity: 0.8"/>
     </g>
     <g clip-path="url(#p6315a37dd9)">
      <use xlink:href="#C0_0_d4635b441c" x="741.584536" y="96.517736" style="fill: #cfd8dc; fill-opacity: 0.8"/>
     </g>
     <g clip-path="url(#p6315a37dd9)">
      <use xlink:href="#C0_0_d4635b441c" x="748.449281" y="96.299157" style="fill: #cfd8dc; fill-opacity: 0.8"/>
     </g>
     <g clip-path="url(#p6315a37dd9)">
      <use xlink:href="#C0_0_d4635b441c" x="738.397876" y="96.589002" style="fill: #cfd8dc; fill-opacity: 0.8"/>
     </g>
     <g clip-path="url(#p6315a37dd9)">
      <use xlink:href="#C0_0_d4635b441c" x="749.300315" y="95.890378" style="fill: #cfd8dc; fill-opacity: 0.8"/>
     </g>
     <g clip-path="url(#p6315a37dd9)">
      <use xlink:href="#C0_0_d4635b441c" x="741.944381" y="99.775447" style="fill: #cfd8dc; fill-opacity: 0.8"/>
     </g>
     <g clip-path="url(#p6315a37dd9)">
      <use xlink:href="#C0_0_d4635b441c" x="798.523558" y="104.907799" style="fill: #cfd8dc; fill-opacity: 0.8"/>
     </g>
    </g>
    <g id="PathCollection_2">
     <path d="M 756.044665 60.91333 
C 757.230689 60.91333 758.368296 60.442117 759.206942 59.603471 
C 760.045588 58.764826 760.516801 57.627218 760.516801 56.441194 
C 760.516801 55.255169 760.045588 54.117562 759.206942 53.278916 
C 758.368296 52.44027 757.230689 51.969058 756.044665 51.969058 
C 754.85864 51.969058 753.721033 52.44027 752.882387 53.278916 
C 752.043741 54.117562 751.572529 55.255169 751.572529 56.441194 
C 751.572529 57.627218 752.043741 58.764826 752.882387 59.603471 
C 753.721033 60.442117 754.85864 60.91333 756.044665 60.91333 
L 756.044665 60.91333 
z
" clip-path="url(#p6315a37dd9)" style="fill: none; stroke: #1e293b; stroke-width: 1.4"/>
    </g>
    <g id="patch_24">
     <path d="M 641.088 116.9712 
L 641.088 32.148 
" style="fill: none; stroke: #cccccc; stroke-linejoin: miter; stroke-linecap: square"/>
    </g>
    <g id="patch_25">
     <path d="M 819.648 116.9712 
L 819.648 32.148 
" style="fill: none; stroke: #cccccc; stroke-linejoin: miter; stroke-linecap: square"/>
    </g>
    <g id="patch_26">
     <path d="M 641.088 116.9712 
L 819.648 116.9712 
" style="fill: none; stroke: #cccccc; stroke-linejoin: miter; stroke-linecap: square"/>
    </g>
    <g id="patch_27">
     <path d="M 641.088 32.148 
L 819.648 32.148 
" style="fill: none; stroke: #cccccc; stroke-linejoin: miter; stroke-linecap: square"/>
    </g>
    <g id="PathCollection_3">
     <defs>
      <path id="m31ab304e83" d="M 0 5.477226 
C 1.452577 5.477226 2.845856 4.900111 3.872983 3.872983 
C 4.900111 2.845856 5.477226 1.452577 5.477226 0 
C 5.477226 -1.452577 4.900111 -2.845856 3.872983 -3.872983 
C 2.845856 -4.900111 1.452577 -5.477226 0 -5.477226 
C -1.452577 -5.477226 -2.845856 -4.900111 -3.872983 -3.872983 
C -4.900111 -2.845856 -5.477226 -1.452577 -5.477226 0 
C -5.477226 1.452577 -4.900111 2.845856 -3.872983 3.872983 
C -2.845856 4.900111 -1.452577 5.477226 0 5.477226 
z
" style="stroke: #1e293b; stroke-width: 1.2"/>
     </defs>
     <g clip-path="url(#p6315a37dd9)">
      <use xlink:href="#m31ab304e83" x="787.003215" y="52.250263" style="fill: #7e57c2; stroke: #1e293b; stroke-width: 1.2"/>
     </g>
    </g>
    <g id="text_12">
     <!-- Prototype: Cat -->
     <g style="fill: #1e293b" transform="translate(790.873034 50.154798) scale(0.08 -0.08)">
      <defs>
       <path id="ArialMT-50" d="M 494 0 
L 494 4581 
L 2222 4581 
Q 2678 4581 2919 4538 
Q 3256 4481 3484 4323 
Q 3713 4166 3852 3881 
Q 3991 3597 3991 3256 
Q 3991 2672 3619 2267 
Q 3247 1863 2275 1863 
L 1100 1863 
L 1100 0 
L 494 0 
z
M 1100 2403 
L 2284 2403 
Q 2872 2403 3119 2622 
Q 3366 2841 3366 3238 
Q 3366 3525 3220 3729 
Q 3075 3934 2838 4000 
Q 2684 4041 2272 4041 
L 1100 4041 
L 1100 2403 
z
" transform="scale(0.015625)"/>
       <path id="ArialMT-3a" d="M 578 2678 
L 578 3319 
L 1219 3319 
L 1219 2678 
L 578 2678 
z
M 578 0 
L 578 641 
L 1219 641 
L 1219 0 
L 578 0 
z
" transform="scale(0.015625)"/>
       <path id="ArialMT-43" d="M 3763 1606 
L 4369 1453 
Q 4178 706 3683 314 
Q 3188 -78 2472 -78 
Q 1731 -78 1267 223 
Q 803 525 561 1097 
Q 319 1669 319 2325 
Q 319 3041 592 3573 
Q 866 4106 1370 4382 
Q 1875 4659 2481 4659 
Q 3169 4659 3637 4309 
Q 4106 3959 4291 3325 
L 3694 3184 
Q 3534 3684 3231 3912 
Q 2928 4141 2469 4141 
Q 1941 4141 1586 3887 
Q 1231 3634 1087 3207 
Q 944 2781 944 2328 
Q 944 1744 1114 1308 
Q 1284 872 1643 656 
Q 2003 441 2422 441 
Q 2931 441 3284 734 
Q 3638 1028 3763 1606 
z
" transform="scale(0.015625)"/>
      </defs>
      <use xlink:href="#ArialMT-50"/>
      <use xlink:href="#ArialMT-72" transform="translate(66.699219 0)"/>
      <use xlink:href="#ArialMT-6f" transform="translate(100 0)"/>
      <use xlink:href="#ArialMT-74" transform="translate(155.615234 0)"/>
      <use xlink:href="#ArialMT-6f" transform="translate(183.398438 0)"/>
      <use xlink:href="#ArialMT-74" transform="translate(239.013672 0)"/>
      <use xlink:href="#ArialMT-79" transform="translate(266.796875 0)"/>
      <use xlink:href="#ArialMT-70" transform="translate(316.796875 0)"/>
      <use xlink:href="#ArialMT-65" transform="translate(372.412109 0)"/>
      <use xlink:href="#ArialMT-3a" transform="translate(428.027344 0)"/>
      <use xlink:href="#ArialMT-20" transform="translate(455.810547 0)"/>
      <use xlink:href="#ArialMT-43" transform="translate(483.59375 0)"/>
      <use xlink:href="#ArialMT-61" transform="translate(555.810547 0)"/>
      <use xlink:href="#ArialMT-74" transform="translate(611.425781 0)"/>
     </g>
    </g>
    <g id="patch_28">
     <path d="M 758.028703 56.17261 
Q 771.523851 54.345741 782.249178 52.893828 
" style="fill: none; stroke: #7e57c2; stroke-width: 2.5; stroke-linecap: round"/>
     <path d="M 777.170607 51.159435 
L 782.249178 52.893828 
L 777.814521 55.916049 
z
" style="fill: #7e57c2; stroke: #7e57c2; stroke-width: 2.5; stroke-linecap: round"/>
    </g>
    <g id="text_13">
     <!-- Prototype match (cosine) -->
     <g style="fill: #262626" transform="translate(680.3505 30.148) scale(0.09 -0.09)">
      <defs>
       <path id="ArialMT-68" d="M 422 0 
L 422 4581 
L 984 4581 
L 984 2938 
Q 1378 3394 1978 3394 
Q 2347 3394 2619 3248 
Q 2891 3103 3008 2847 
Q 3125 2591 3125 2103 
L 3125 0 
L 2563 0 
L 2563 2103 
Q 2563 2525 2380 2717 
Q 2197 2909 1863 2909 
Q 1613 2909 1392 2779 
Q 1172 2650 1078 2428 
Q 984 2206 984 1816 
L 984 0 
L 422 0 
z
" transform="scale(0.015625)"/>
       <path id="ArialMT-73" d="M 197 991 
L 753 1078 
Q 800 744 1014 566 
Q 1228 388 1613 388 
Q 2000 388 2187 545 
Q 2375 703 2375 916 
Q 2375 1106 2209 1216 
Q 2094 1291 1634 1406 
Q 1016 1563 777 1677 
Q 538 1791 414 1992 
Q 291 2194 291 2438 
Q 291 2659 392 2848 
Q 494 3038 669 3163 
Q 800 3259 1026 3326 
Q 1253 3394 1513 3394 
Q 1903 3394 2198 3281 
Q 2494 3169 2634 2976 
Q 2775 2784 2828 2463 
L 2278 2388 
Q 2241 2644 2061 2787 
Q 1881 2931 1553 2931 
Q 1166 2931 1000 2803 
Q 834 2675 834 2503 
Q 834 2394 903 2306 
Q 972 2216 1119 2156 
Q 1203 2125 1616 2013 
Q 2213 1853 2448 1751 
Q 2684 1650 2818 1456 
Q 2953 1263 2953 975 
Q 2953 694 2789 445 
Q 2625 197 2315 61 
Q 2006 -75 1616 -75 
Q 969 -75 630 194 
Q 291 463 197 991 
z
" transform="scale(0.015625)"/>
      </defs>
      <use xlink:href="#ArialMT-50"/>
      <use xlink:href="#ArialMT-72" transform="translate(66.699219 0)"/>
      <use xlink:href="#ArialMT-6f" transform="translate(100 0)"/>
      <use xlink:href="#ArialMT-74" transform="translate(155.615234 0)"/>
      <use xlink:href="#ArialMT-6f" transform="translate(183.398438 0)"/>
      <use xlink:href="#ArialMT-74" transform="translate(239.013672 0)"/>
      <use xlink:href="#ArialMT-79" transform="translate(266.796875 0)"/>
      <use xlink:href="#ArialMT-70" transform="translate(316.796875 0)"/>
      <use xlink:href="#ArialMT-65" transform="translate(372.412109 0)"/>
      <use xlink:href="#ArialMT-20" transform="translate(428.027344 0)"/>
      <use xlink:href="#ArialMT-6d" transform="translate(455.810547 0)"/>
      <use xlink:href="#ArialMT-61" transform="translate(539.111328 0)"/>
      <use xlink:href="#ArialMT-74" transform="translate(594.726562 0)"/>
      <use xlink:href="#ArialMT-63" transform="translate(622.509766 0)"/>
      <use xlink:href="#ArialMT-68" transform="translate(672.509766 0)"/>
      <use xlink:href="#ArialMT-20" transform="translate(728.125 0)"/>
      <use xlink:href="#ArialMT-28" transform="translate(755.908203 0)"/>
      <use xlink:href="#ArialMT-63" transform="translate(789.208984 0)"/>
      <use xlink:href="#ArialMT-6f" transform="translate(839.208984 0)"/>
      <use xlink:href="#ArialMT-73" transform="translate(894.824219 0)"/>
      <use xlink:href="#ArialMT-69" transform="translate(944.824219 0)"/>
      <use xlink:href="#ArialMT-6e" transform="translate(967.041016 0)"/>
      <use xlink:href="#ArialMT-65" transform="translate(1022.65625 0)"/>
      <use xlink:href="#ArialMT-29" transform="translate(1078.271484 0)"/>
     </g>
    </g>
   </g>
   <g id="axes_3">
    <g id="patch_29">
     <path d="M 775.008 116.9712 
L 882.144 116.9712 
L 882.144 32.148 
L 775.008 32.148 
z
" style="fill: #ffffff"/>
    </g>
    <g id="matplotlib.axis_3"/>
    <g id="matplotlib.axis_4"/>
    <g id="line2d_1">
     <path d="M 775.008 116.9712 
L 882.144 32.148 
" clip-path="url(#p813889330c)" style="fill: none; stroke: #94a3b8; stroke-width: 1.2; stroke-linecap: round"/>
    </g>
    <g id="line2d_2">
     <path d="M 777.15072 115.806197 
L 779.787914 112.467304 
L 782.425108 109.49852 
L 785.062302 106.738339 
L 787.699495 104.121008 
L 790.336689 101.611061 
L 792.973883 99.186468 
L 795.611077 96.832296 
L 798.248271 94.537804 
L 800.885465 92.29492 
L 803.522658 90.097374 
L 806.159852 87.940165 
L 808.797046 85.81922 
L 811.43424 83.731163 
L 814.071434 81.67315 
L 816.708628 79.642761 
L 819.345822 77.63791 
L 821.983015 75.656782 
L 824.620209 73.697787 
L 827.257403 71.759518 
L 829.894597 69.840727 
L 832.531791 67.940294 
L 835.168985 66.057213 
L 837.806178 64.190574 
L 840.443372 62.339553 
L 843.080566 60.503397 
L 845.71776 58.681416 
L 848.354954 56.872979 
L 850.992148 55.077502 
L 853.629342 53.294448 
L 856.266535 51.523319 
L 858.903729 49.763651 
L 861.540923 48.015012 
L 864.178117 46.277002 
L 866.815311 44.549243 
L 869.452505 42.831383 
L 872.089698 41.123091 
L 874.726892 39.424057 
L 877.364086 37.733986 
L 880.00128 36.052603 
" clip-path="url(#p813889330c)" style="fill: none; stroke-dasharray: 7.4,3.2; stroke-dashoffset: 0; stroke: #f9a825; stroke-width: 2"/>
    </g>
    <g id="line2d_3">
     <path d="M 777.15072 115.588571 
L 779.787914 113.114695 
L 782.425108 110.74009 
L 785.062302 108.425185 
L 787.699495 106.152905 
L 790.336689 103.913683 
L 792.973883 101.701405 
L 795.611077 99.511827 
L 798.248271 97.341834 
L 800.885465 95.189049 
L 803.522658 93.051594 
L 806.159852 90.927952 
L 808.797046 88.816873 
L 811.43424 86.717308 
L 814.071434 84.628367 
L 816.708628 82.549281 
L 819.345822 80.479386 
L 821.983015 78.418096 
L 824.620209 76.364895 
L 827.257403 74.319323 
L 829.894597 72.280969 
L 832.531791 70.249462 
L 835.168985 68.224466 
L 837.806178 66.205677 
L 840.443372 64.192815 
L 843.080566 62.185625 
L 845.71776 60.183873 
L 848.354954 58.187341 
L 850.992148 56.195828 
L 853.629342 54.20915 
L 856.266535 52.227131 
L 858.903729 50.249611 
L 861.540923 48.276438 
L 864.178117 46.307471 
L 866.815311 44.342576 
L 869.452505 42.381629 
L 872.089698 40.424512 
L 874.726892 38.471113 
L 877.364086 36.521328 
L 880.00128 34.575056 
" clip-path="url(#p813889330c)" style="fill: none; stroke: #1e293b; stroke-width: 2.5; stroke-linecap: round"/>
    </g>
    <g id="patch_30">
     <path d="M 775.008 116.9712 
L 775.008 32.148 
" style="fill: none; stroke: #cccccc; stroke-linejoin: miter; stroke-linecap: square"/>
    </g>
    <g id="patch_31">
     <path d="M 882.144 116.9712 
L 882.144 32.148 
" style="fill: none; stroke: #cccccc; stroke-linejoin: miter; stroke-linecap: square"/>
    </g>
    <g id="patch_32">
     <path d="M 775.008 116.9712 
L 882.144 116.9712 
" style="fill: none; stroke: #cccccc; stroke-linejoin: miter; stroke-linecap: square"/>
    </g>
    <g id="patch_33">
     <path d="M 775.008 32.148 
L 882.144 32.148 
" style="fill: none; stroke: #cccccc; stroke-linejoin: miter; stroke-linecap: square"/>
    </g>
    <g id="text_14">
     <!-- Calibrated (T-scaled) -->
     <g style="fill: #1e293b" transform="translate(780.3648 40.63032) scale(0.09 -0.09)">
      <defs>
       <path id="ArialMT-6c" d="M 409 0 
L 409 4581 
L 972 4581 
L 972 0 
L 409 0 
z
" transform="scale(0.015625)"/>
       <path id="ArialMT-62" d="M 941 0 
L 419 0 
L 419 4581 
L 981 4581 
L 981 2947 
Q 1338 3394 1891 3394 
Q 2197 3394 2470 3270 
Q 2744 3147 2920 2923 
Q 3097 2700 3197 2384 
Q 3297 2069 3297 1709 
Q 3297 856 2875 390 
Q 2453 -75 1863 -75 
Q 1275 -75 941 416 
L 941 0 
z
M 934 1684 
Q 934 1088 1097 822 
Q 1363 388 1816 388 
Q 2184 388 2453 708 
Q 2722 1028 2722 1663 
Q 2722 2313 2464 2622 
Q 2206 2931 1841 2931 
Q 1472 2931 1203 2611 
Q 934 2291 934 1684 
z
" transform="scale(0.015625)"/>
       <path id="ArialMT-54" d="M 1659 0 
L 1659 4041 
L 150 4041 
L 150 4581 
L 3781 4581 
L 3781 4041 
L 2266 4041 
L 2266 0 
L 1659 0 
z
" transform="scale(0.015625)"/>
       <path id="ArialMT-2d" d="M 203 1375 
L 203 1941 
L 1931 1941 
L 1931 1375 
L 203 1375 
z
" transform="scale(0.015625)"/>
      </defs>
      <use xlink:href="#ArialMT-43"/>
      <use xlink:href="#ArialMT-61" transform="translate(72.216797 0)"/>
      <use xlink:href="#ArialMT-6c" transform="translate(127.832031 0)"/>
      <use xlink:href="#ArialMT-69" transform="translate(150.048828 0)"/>
      <use xlink:href="#ArialMT-62" transform="translate(172.265625 0)"/>
      <use xlink:href="#ArialMT-72" transform="translate(227.880859 0)"/>
      <use xlink:href="#ArialMT-61" transform="translate(261.181641 0)"/>
      <use xlink:href="#ArialMT-74" transform="translate(316.796875 0)"/>
      <use xlink:href="#ArialMT-65" transform="translate(344.580078 0)"/>
      <use xlink:href="#ArialMT-64" transform="translate(400.195312 0)"/>
      <use xlink:href="#ArialMT-20" transform="translate(455.810547 0)"/>
      <use xlink:href="#ArialMT-28" transform="translate(483.59375 0)"/>
      <use xlink:href="#ArialMT-54" transform="translate(516.894531 0)"/>
      <use xlink:href="#ArialMT-2d" transform="translate(572.478516 0)"/>
      <use xlink:href="#ArialMT-73" transform="translate(605.779297 0)"/>
      <use xlink:href="#ArialMT-63" transform="translate(655.779297 0)"/>
      <use xlink:href="#ArialMT-61" transform="translate(705.779297 0)"/>
      <use xlink:href="#ArialMT-6c" transform="translate(761.394531 0)"/>
      <use xlink:href="#ArialMT-65" transform="translate(783.611328 0)"/>
      <use xlink:href="#ArialMT-64" transform="translate(839.226562 0)"/>
      <use xlink:href="#ArialMT-29" transform="translate(894.841797 0)"/>
     </g>
    </g>
    <g id="legend_1">
     <g id="line2d_4">
      <path d="M 818.109312 96.928231 
L 825.109312 96.928231 
L 832.109312 96.928231 
" style="fill: none; stroke-dasharray: 7.4,3.2; stroke-dashoffset: 0; stroke: #f9a825; stroke-width: 2"/>
     </g>
     <g id="text_15">
      <!-- uncalibrated -->
      <g style="fill: #262626" transform="translate(837.709313 99.378231) scale(0.07 -0.07)">
       <use xlink:href="#ArialMT-75"/>
       <use xlink:href="#ArialMT-6e" transform="translate(55.615234 0)"/>
       <use xlink:href="#ArialMT-63" transform="translate(111.230469 0)"/>
       <use xlink:href="#ArialMT-61" transform="translate(161.230469 0)"/>
       <use xlink:href="#ArialMT-6c" transform="translate(216.845703 0)"/>
       <use xlink:href="#ArialMT-69" transform="translate(239.0625 0)"/>
       <use xlink:href="#ArialMT-62" transform="translate(261.279297 0)"/>
       <use xlink:href="#ArialMT-72" transform="translate(316.894531 0)"/>
       <use xlink:href="#ArialMT-61" transform="translate(350.195312 0)"/>
       <use xlink:href="#ArialMT-74" transform="translate(405.810547 0)"/>
       <use xlink:href="#ArialMT-65" transform="translate(433.59375 0)"/>
       <use xlink:href="#ArialMT-64" transform="translate(489.208984 0)"/>
      </g>
     </g>
     <g id="line2d_5">
      <path d="M 818.109312 106.82995 
L 825.109312 106.82995 
L 832.109312 106.82995 
" style="fill: none; stroke: #1e293b; stroke-width: 2.5; stroke-linecap: round"/>
     </g>
     <g id="text_16">
      <!-- T-scaled -->
      <g style="fill: #262626" transform="translate(837.709313 109.27995) scale(0.07 -0.07)">
       <use xlink:href="#ArialMT-54"/>
       <use xlink:href="#ArialMT-2d" transform="translate(55.583984 0)"/>
       <use xlink:href="#ArialMT-73" transform="translate(88.884766 0)"/>
       <use xlink:href="#ArialMT-63" transform="translate(138.884766 0)"/>
       <use xlink:href="#ArialMT-61" transform="translate(188.884766 0)"/>
       <use xlink:href="#ArialMT-6c" transform="translate(244.5 0)"/>
       <use xlink:href="#ArialMT-65" transform="translate(266.716797 0)"/>
       <use xlink:href="#ArialMT-64" transform="translate(322.332031 0)"/>
      </g>
     </g>
    </g>
   </g>
   <g id="axes_4">
    <g id="patch_34">
     <path d="M 525.024 116.9712 
L 703.584 116.9712 
L 703.584 32.148 
L 525.024 32.148 
z
" style="fill: #ffffff"/>
    </g>
    <g id="matplotlib.axis_5">
     <g id="xtick_1">
      <g id="line2d_6">
       <path d="M 556.329974 116.9712 
L 556.329974 32.148 
" clip-path="url(#pf542f3cb47)" style="fill: none; stroke: #cccccc; stroke-width: 0.8; stroke-linecap: round"/>
      </g>
      <g id="line2d_7"/>
      <g id="text_17">
       <!-- Fine-tuning -->
       <g style="fill: #262626" transform="translate(538.218033 139.539761) rotate(-20) scale(0.08 -0.08)">
        <defs>
         <path id="ArialMT-46" d="M 525 0 
L 525 4581 
L 3616 4581 
L 3616 4041 
L 1131 4041 
L 1131 2622 
L 3281 2622 
L 3281 2081 
L 1131 2081 
L 1131 0 
L 525 0 
z
" transform="scale(0.015625)"/>
         <path id="ArialMT-67" d="M 319 -275 
L 866 -356 
Q 900 -609 1056 -725 
Q 1266 -881 1628 -881 
Q 2019 -881 2231 -725 
Q 2444 -569 2519 -288 
Q 2563 -116 2559 434 
Q 2191 0 1641 0 
Q 956 0 581 494 
Q 206 988 206 1678 
Q 206 2153 378 2554 
Q 550 2956 876 3175 
Q 1203 3394 1644 3394 
Q 2231 3394 2613 2919 
L 2613 3319 
L 3131 3319 
L 3131 450 
Q 3131 -325 2973 -648 
Q 2816 -972 2473 -1159 
Q 2131 -1347 1631 -1347 
Q 1038 -1347 672 -1080 
Q 306 -813 319 -275 
z
M 784 1719 
Q 784 1066 1043 766 
Q 1303 466 1694 466 
Q 2081 466 2343 764 
Q 2606 1063 2606 1700 
Q 2606 2309 2336 2618 
Q 2066 2928 1684 2928 
Q 1309 2928 1046 2623 
Q 784 2319 784 1719 
z
" transform="scale(0.015625)"/>
        </defs>
        <use xlink:href="#ArialMT-46"/>
        <use xlink:href="#ArialMT-69" transform="translate(61.083984 0)"/>
        <use xlink:href="#ArialMT-6e" transform="translate(83.300781 0)"/>
        <use xlink:href="#ArialMT-65" transform="translate(138.916016 0)"/>
        <use xlink:href="#ArialMT-2d" transform="translate(194.53125 0)"/>
        <use xlink:href="#ArialMT-74" transform="translate(227.832031 0)"/>
        <use xlink:href="#ArialMT-75" transform="translate(255.615234 0)"/>
        <use xlink:href="#ArialMT-6e" transform="translate(311.230469 0)"/>
        <use xlink:href="#ArialMT-69" transform="translate(366.845703 0)"/>
        <use xlink:href="#ArialMT-6e" transform="translate(389.0625 0)"/>
        <use xlink:href="#ArialMT-67" transform="translate(444.677734 0)"/>
       </g>
      </g>
     </g>
     <g id="xtick_2">
      <g id="line2d_8">
       <path d="M 614.304 116.9712 
L 614.304 32.148 
" clip-path="url(#pf542f3cb47)" style="fill: none; stroke: #cccccc; stroke-width: 0.8; stroke-linecap: round"/>
      </g>
      <g id="line2d_9"/>
      <g id="text_18">
       <!-- iCaRL -->
       <g style="fill: #262626" transform="translate(604.566657 133.455223) rotate(-20) scale(0.08 -0.08)">
        <defs>
         <path id="ArialMT-52" d="M 503 0 
L 503 4581 
L 2534 4581 
Q 3147 4581 3465 4457 
Q 3784 4334 3975 4021 
Q 4166 3709 4166 3331 
Q 4166 2844 3850 2509 
Q 3534 2175 2875 2084 
Q 3116 1969 3241 1856 
Q 3506 1613 3744 1247 
L 4541 0 
L 3778 0 
L 3172 953 
Q 2906 1366 2734 1584 
Q 2563 1803 2427 1890 
Q 2291 1978 2150 2013 
Q 2047 2034 1813 2034 
L 1109 2034 
L 1109 0 
L 503 0 
z
M 1109 2559 
L 2413 2559 
Q 2828 2559 3062 2645 
Q 3297 2731 3419 2920 
Q 3541 3109 3541 3331 
Q 3541 3656 3305 3865 
Q 3069 4075 2559 4075 
L 1109 4075 
L 1109 2559 
z
" transform="scale(0.015625)"/>
         <path id="ArialMT-4c" d="M 469 0 
L 469 4581 
L 1075 4581 
L 1075 541 
L 3331 541 
L 3331 0 
L 469 0 
z
" transform="scale(0.015625)"/>
        </defs>
        <use xlink:href="#ArialMT-69"/>
        <use xlink:href="#ArialMT-43" transform="translate(22.216797 0)"/>
        <use xlink:href="#ArialMT-61" transform="translate(94.433594 0)"/>
        <use xlink:href="#ArialMT-52" transform="translate(150.048828 0)"/>
        <use xlink:href="#ArialMT-4c" transform="translate(222.265625 0)"/>
       </g>
      </g>
     </g>
     <g id="xtick_3">
      <g id="line2d_10">
       <path d="M 672.278026 116.9712 
L 672.278026 32.148 
" clip-path="url(#pf542f3cb47)" style="fill: none; stroke: #cccccc; stroke-width: 0.8; stroke-linecap: round"/>
      </g>
      <g id="line2d_11"/>
      <g id="text_19">
       <!-- CALM -->
       <g style="fill: #262626" transform="translate(662.542445 133.45394) rotate(-20) scale(0.08 -0.08)">
        <defs>
         <path id="ArialMT-41" d="M -9 0 
L 1750 4581 
L 2403 4581 
L 4278 0 
L 3588 0 
L 3053 1388 
L 1138 1388 
L 634 0 
L -9 0 
z
M 1313 1881 
L 2866 1881 
L 2388 3150 
Q 2169 3728 2063 4100 
Q 1975 3659 1816 3225 
L 1313 1881 
z
" transform="scale(0.015625)"/>
        </defs>
        <use xlink:href="#ArialMT-43"/>
        <use xlink:href="#ArialMT-41" transform="translate(72.216797 0)"/>
        <use xlink:href="#ArialMT-4c" transform="translate(138.916016 0)"/>
        <use xlink:href="#ArialMT-4d" transform="translate(194.53125 0)"/>
       </g>
      </g>
     </g>
    </g>
    <g id="matplotlib.axis_6"/>
    <g id="patch_35">
     <path d="M 533.140364 37.80288 
L 579.519584 37.80288 
L 579.519584 111.31632 
L 533.140364 111.31632 
z
" clip-path="url(#pf542f3cb47)" style="fill: #94a3b8; stroke: #1e293b; stroke-linejoin: miter"/>
    </g>
    <g id="patch_36">
     <path d="M 591.11439 37.80288 
L 637.49361 37.80288 
L 637.49361 50.243616 
L 591.11439 50.243616 
z
" clip-path="url(#pf542f3cb47)" style="fill: #94a3b8; stroke: #1e293b; stroke-linejoin: miter"/>
    </g>
    <g id="patch_37">
     <path d="M 649.088416 37.80288 
L 695.467636 37.80288 
L 695.467636 44.045868 
L 649.088416 44.045868 
z
" clip-path="url(#pf542f3cb47)" style="fill: #7e57c2; stroke: #1e293b; stroke-linejoin: miter"/>
    </g>
    <g id="line2d_12">
     <path d="M 525.024 37.80288 
L 703.584 37.80288 
" clip-path="url(#pf542f3cb47)" style="fill: none; stroke: #1e293b; stroke-linecap: round"/>
    </g>
    <g id="patch_38">
     <path d="M 525.024 116.9712 
L 525.024 32.148 
" style="fill: none; stroke: #cccccc; stroke-linejoin: miter; stroke-linecap: square"/>
    </g>
    <g id="patch_39">
     <path d="M 703.584 116.9712 
L 703.584 32.148 
" style="fill: none; stroke: #cccccc; stroke-linejoin: miter; stroke-linecap: square"/>
    </g>
    <g id="patch_40">
     <path d="M 525.024 116.9712 
L 703.584 116.9712 
" style="fill: none; stroke: #cccccc; stroke-linejoin: miter; stroke-linecap: square"/>
    </g>
    <g id="patch_41">
     <path d="M 525.024 32.148 
L 703.584 32.148 
" style="fill: none; stroke: #cccccc; stroke-linejoin: miter; stroke-linecap: square"/>
    </g>
    <g id="text_20">
     <!-- -65.00 -->
     <g style="fill: #262626" transform="translate(544.989349 120.435498) scale(0.08 -0.08)">
      <defs>
       <path id="ArialMT-36" d="M 3184 3459 
L 2625 3416 
Q 2550 3747 2413 3897 
Q 2184 4138 1850 4138 
Q 1581 4138 1378 3988 
Q 1113 3794 959 3422 
Q 806 3050 800 2363 
Q 1003 2672 1297 2822 
Q 1591 2972 1913 2972 
Q 2475 2972 2870 2558 
Q 3266 2144 3266 1488 
Q 3266 1056 3080 686 
Q 2894 316 2569 119 
Q 2244 -78 1831 -78 
Q 1128 -78 684 439 
Q 241 956 241 2144 
Q 241 3472 731 4075 
Q 1159 4600 1884 4600 
Q 2425 4600 2770 4297 
Q 3116 3994 3184 3459 
z
M 888 1484 
Q 888 1194 1011 928 
Q 1134 663 1356 523 
Q 1578 384 1822 384 
Q 2178 384 2434 671 
Q 2691 959 2691 1453 
Q 2691 1928 2437 2201 
Q 2184 2475 1800 2475 
Q 1419 2475 1153 2201 
Q 888 1928 888 1484 
z
" transform="scale(0.015625)"/>
       <path id="ArialMT-35" d="M 266 1200 
L 856 1250 
Q 922 819 1161 601 
Q 1400 384 1738 384 
Q 2144 384 2425 690 
Q 2706 997 2706 1503 
Q 2706 1984 2436 2262 
Q 2166 2541 1728 2541 
Q 1456 2541 1237 2417 
Q 1019 2294 894 2097 
L 366 2166 
L 809 4519 
L 3088 4519 
L 3088 3981 
L 1259 3981 
L 1013 2750 
Q 1425 3038 1878 3038 
Q 2478 3038 2890 2622 
Q 3303 2206 3303 1553 
Q 3303 931 2941 478 
Q 2500 -78 1738 -78 
Q 1113 -78 717 272 
Q 322 622 266 1200 
z
" transform="scale(0.015625)"/>
       <path id="ArialMT-2e" d="M 581 0 
L 581 641 
L 1222 641 
L 1222 0 
L 581 0 
z
" transform="scale(0.015625)"/>
       <path id="ArialMT-30" d="M 266 2259 
Q 266 3072 433 3567 
Q 600 4063 929 4331 
Q 1259 4600 1759 4600 
Q 2128 4600 2406 4451 
Q 2684 4303 2865 4023 
Q 3047 3744 3150 3342 
Q 3253 2941 3253 2259 
Q 3253 1453 3087 958 
Q 2922 463 2592 192 
Q 2263 -78 1759 -78 
Q 1097 -78 719 397 
Q 266 969 266 2259 
z
M 844 2259 
Q 844 1131 1108 757 
Q 1372 384 1759 384 
Q 2147 384 2411 759 
Q 2675 1134 2675 2259 
Q 2675 3391 2411 3762 
Q 2147 4134 1753 4134 
Q 1366 4134 1134 3806 
Q 844 3388 844 2259 
z
" transform="scale(0.015625)"/>
      </defs>
      <use xlink:href="#ArialMT-2d"/>
      <use xlink:href="#ArialMT-36" transform="translate(33.300781 0)"/>
      <use xlink:href="#ArialMT-35" transform="translate(88.916016 0)"/>
      <use xlink:href="#ArialMT-2e" transform="translate(144.53125 0)"/>
      <use xlink:href="#ArialMT-30" transform="translate(172.314453 0)"/>
      <use xlink:href="#ArialMT-30" transform="translate(227.929688 0)"/>
     </g>
    </g>
    <g id="text_21">
     <!-- -11.00 -->
     <g style="fill: #262626" transform="translate(603.258375 59.362794) scale(0.08 -0.08)">
      <defs>
       <path id="ArialMT-31" d="M 2384 0 
L 1822 0 
L 1822 3584 
Q 1619 3391 1289 3197 
Q 959 3003 697 2906 
L 697 3450 
Q 1169 3672 1522 3987 
Q 1875 4303 2022 4600 
L 2384 4600 
L 2384 0 
z
" transform="scale(0.015625)"/>
      </defs>
      <use xlink:href="#ArialMT-2d"/>
      <use xlink:href="#ArialMT-31" transform="translate(33.300781 0)"/>
      <use xlink:href="#ArialMT-31" transform="translate(81.541016 0)"/>
      <use xlink:href="#ArialMT-2e" transform="translate(137.15625 0)"/>
      <use xlink:href="#ArialMT-30" transform="translate(164.939453 0)"/>
      <use xlink:href="#ArialMT-30" transform="translate(220.554688 0)"/>
     </g>
    </g>
    <g id="text_22">
     <!-- -5.52 -->
     <g style="fill: #262626" transform="translate(663.161776 53.165046) scale(0.08 -0.08)">
      <defs>
       <path id="ArialMT-32" d="M 3222 541 
L 3222 0 
L 194 0 
Q 188 203 259 391 
Q 375 700 629 1000 
Q 884 1300 1366 1694 
Q 2113 2306 2375 2664 
Q 2638 3022 2638 3341 
Q 2638 3675 2398 3904 
Q 2159 4134 1775 4134 
Q 1369 4134 1125 3890 
Q 881 3647 878 3216 
L 300 3275 
Q 359 3922 746 4261 
Q 1134 4600 1788 4600 
Q 2447 4600 2831 4234 
Q 3216 3869 3216 3328 
Q 3216 3053 3103 2787 
Q 2991 2522 2730 2228 
Q 2469 1934 1863 1422 
Q 1356 997 1212 845 
Q 1069 694 975 541 
L 3222 541 
z
" transform="scale(0.015625)"/>
      </defs>
      <use xlink:href="#ArialMT-2d"/>
      <use xlink:href="#ArialMT-35" transform="translate(33.300781 0)"/>
      <use xlink:href="#ArialMT-2e" transform="translate(88.916016 0)"/>
      <use xlink:href="#ArialMT-35" transform="translate(116.699219 0)"/>
      <use xlink:href="#ArialMT-32" transform="translate(172.314453 0)"/>
     </g>
    </g>
    <g id="text_23">
     <!-- Forgetting (BWT, ↓ worse) -->
     <g style="fill: #262626" transform="translate(562.297359 30.148) scale(0.09 -0.09)">
      <defs>
       <path id="ArialMT-42" d="M 469 0 
L 469 4581 
L 2188 4581 
Q 2713 4581 3030 4442 
Q 3347 4303 3526 4014 
Q 3706 3725 3706 3409 
Q 3706 3116 3547 2856 
Q 3388 2597 3066 2438 
Q 3481 2316 3704 2022 
Q 3928 1728 3928 1328 
Q 3928 1006 3792 729 
Q 3656 453 3456 303 
Q 3256 153 2954 76 
Q 2653 0 2216 0 
L 469 0 
z
M 1075 2656 
L 2066 2656 
Q 2469 2656 2644 2709 
Q 2875 2778 2992 2937 
Q 3109 3097 3109 3338 
Q 3109 3566 3000 3739 
Q 2891 3913 2687 3977 
Q 2484 4041 1991 4041 
L 1075 4041 
L 1075 2656 
z
M 1075 541 
L 2216 541 
Q 2509 541 2628 563 
Q 2838 600 2978 687 
Q 3119 775 3209 942 
Q 3300 1109 3300 1328 
Q 3300 1584 3169 1773 
Q 3038 1963 2805 2039 
Q 2572 2116 2134 2116 
L 1075 2116 
L 1075 541 
z
" transform="scale(0.015625)"/>
       <path id="ArialMT-57" d="M 1294 0 
L 78 4581 
L 700 4581 
L 1397 1578 
Q 1509 1106 1591 641 
Q 1766 1375 1797 1488 
L 2669 4581 
L 3400 4581 
L 4056 2263 
Q 4303 1400 4413 641 
Q 4500 1075 4641 1638 
L 5359 4581 
L 5969 4581 
L 4713 0 
L 4128 0 
L 3163 3491 
Q 3041 3928 3019 4028 
Q 2947 3713 2884 3491 
L 1913 0 
L 1294 0 
z
" transform="scale(0.015625)"/>
       <path id="ArialMT-2c" d="M 569 0 
L 569 641 
L 1209 641 
L 1209 0 
Q 1209 -353 1084 -570 
Q 959 -788 688 -906 
L 531 -666 
Q 709 -588 793 -436 
Q 878 -284 888 0 
L 569 0 
z
" transform="scale(0.015625)"/>
       <path id="ArialMT-2193" d="M 478 -50 
L 478 188 
Q 850 3 997 -90 
Q 1144 -184 1444 -422 
L 1444 4184 
L 1759 4184 
L 1759 -422 
Q 2097 -100 2725 194 
L 2725 -47 
Q 2275 -450 2042 -740 
Q 1809 -1031 1663 -1341 
L 1519 -1341 
Q 1403 -1072 1167 -769 
Q 931 -466 478 -50 
z
" transform="scale(0.015625)"/>
       <path id="ArialMT-77" d="M 1034 0 
L 19 3319 
L 600 3319 
L 1128 1403 
L 1325 691 
Q 1338 744 1497 1375 
L 2025 3319 
L 2603 3319 
L 3100 1394 
L 3266 759 
L 3456 1400 
L 4025 3319 
L 4572 3319 
L 3534 0 
L 2950 0 
L 2422 1988 
L 2294 2553 
L 1622 0 
L 1034 0 
z
" transform="scale(0.015625)"/>
      </defs>
      <use xlink:href="#ArialMT-46"/>
      <use xlink:href="#ArialMT-6f" transform="translate(61.083984 0)"/>
      <use xlink:href="#ArialMT-72" transform="translate(116.699219 0)"/>
      <use xlink:href="#ArialMT-67" transform="translate(150 0)"/>
      <use xlink:href="#ArialMT-65" transform="translate(205.615234 0)"/>
      <use xlink:href="#ArialMT-74" transform="translate(261.230469 0)"/>
      <use xlink:href="#ArialMT-74" transform="translate(289.013672 0)"/>
      <use xlink:href="#ArialMT-69" transform="translate(316.796875 0)"/>
      <use xlink:href="#ArialMT-6e" transform="translate(339.013672 0)"/>
      <use xlink:href="#ArialMT-67" transform="translate(394.628906 0)"/>
      <use xlink:href="#ArialMT-20" transform="translate(450.244141 0)"/>
      <use xlink:href="#ArialMT-28" transform="translate(478.027344 0)"/>
      <use xlink:href="#ArialMT-42" transform="translate(511.328125 0)"/>
      <use xlink:href="#ArialMT-57" transform="translate(578.027344 0)"/>
      <use xlink:href="#ArialMT-54" transform="translate(672.412109 0)"/>
      <use xlink:href="#ArialMT-2c" transform="translate(722.371094 0)"/>
      <use xlink:href="#ArialMT-20" transform="translate(750.154297 0)"/>
      <use xlink:href="#ArialMT-2193" transform="translate(777.9375 0)"/>
      <use xlink:href="#ArialMT-20" transform="translate(827.9375 0)"/>
      <use xlink:href="#ArialMT-77" transform="translate(855.720703 0)"/>
      <use xlink:href="#ArialMT-6f" transform="translate(927.9375 0)"/>
      <use xlink:href="#ArialMT-72" transform="translate(983.552734 0)"/>
      <use xlink:href="#ArialMT-73" transform="translate(1016.853516 0)"/>
      <use xlink:href="#ArialMT-65" transform="translate(1066.853516 0)"/>
      <use xlink:href="#ArialMT-29" transform="translate(1122.46875 0)"/>
     </g>
    </g>
   </g>
  </g>
 </g>
 <defs>
  <clipPath id="p1a5ecc01d5">
   <rect x="7.2" y="7.2" width="892.8" height="498.96"/>
  </clipPath>
  <clipPath id="p6315a37dd9">
   <rect x="641.088" y="32.148" width="178.56" height="84.8232"/>
  </clipPath>
  <clipPath id="p813889330c">
   <rect x="775.008" y="32.148" width="107.136" height="84.8232"/>
  </clipPath>
  <clipPath id="pf542f3cb47">
   <rect x="525.024" y="32.148" width="178.56" height="84.8232"/>
  </clipPath>
 </defs>
</svg>
